G04 #@! TF.FileFunction,Soldermask,Bot*
%FSLAX46Y46*%
G04 Gerber Fmt 4.6, Leading zero omitted, Abs format (unit mm)*
G04 Created by KiCad (PCBNEW 4.0.7) date 04/23/18 15:57:54*
%MOMM*%
%LPD*%
G01*
G04 APERTURE LIST*
%ADD10C,0.100000*%
%ADD11R,2.000000X2.000000*%
%ADD12C,2.000000*%
%ADD13R,2.000000X3.000000*%
%ADD14C,6.400000*%
%ADD15C,7.900000*%
%ADD16C,2.400000*%
%ADD17R,3.900000X3.900000*%
%ADD18R,2.910000X1.400000*%
%ADD19C,2.200000*%
%ADD20R,3.400000X3.400000*%
%ADD21C,2.700000*%
%ADD22O,2.400000X4.400000*%
%ADD23C,2.900000*%
%ADD24C,2.600000*%
%ADD25C,3.400000*%
G04 APERTURE END LIST*
D10*
D11*
X121650000Y-57450000D03*
D12*
X121650000Y-60950000D03*
D11*
X138650000Y-57450000D03*
D12*
X138650000Y-60950000D03*
X124511827Y-108363908D03*
X120976293Y-104828374D03*
D11*
X147350000Y-57450000D03*
D12*
X147350000Y-60950000D03*
D11*
X156050000Y-57450000D03*
D12*
X156050000Y-60950000D03*
X129377549Y-131212347D03*
X129377549Y-126212347D03*
X115300000Y-102400000D03*
X110300000Y-102400000D03*
D13*
X114700000Y-43750000D03*
X114700000Y-47350000D03*
X106400000Y-43750000D03*
X106400000Y-47350000D03*
D12*
X107100000Y-102400000D03*
X102100000Y-102400000D03*
D11*
X24150000Y-65050000D03*
D12*
X24150000Y-68550000D03*
X35000000Y-80034316D03*
X35000000Y-75034316D03*
D11*
X32850000Y-65050000D03*
D12*
X32850000Y-68550000D03*
D13*
X101650000Y-43750000D03*
X101650000Y-47350000D03*
D12*
X49700000Y-84050000D03*
X49700000Y-79050000D03*
X49700000Y-75850000D03*
X49700000Y-70850000D03*
D13*
X93300000Y-43750000D03*
X93300000Y-47350000D03*
D14*
X28500000Y-58600000D03*
X129200000Y-58600000D03*
D15*
X83150000Y-48400000D03*
D14*
X129200000Y-114400000D03*
X28500000Y-114400000D03*
D16*
X138300000Y-170800000D03*
X133300000Y-174300000D03*
D17*
X45350000Y-40700000D03*
X45350000Y-34700000D03*
X40650000Y-37700000D03*
D18*
X35195000Y-169760000D03*
X35195000Y-164680000D03*
X35195000Y-159600000D03*
X38505000Y-172300000D03*
X38505000Y-167220000D03*
X38505000Y-162140000D03*
D19*
X150000000Y-73350000D03*
X150000000Y-75350000D03*
X150000000Y-77350000D03*
X150000000Y-79350000D03*
X150000000Y-71350000D03*
X150000000Y-69350000D03*
X150000000Y-67350000D03*
D20*
X161000000Y-65300000D03*
X161000000Y-81400000D03*
D19*
X150050000Y-98950000D03*
X150050000Y-100950000D03*
X150050000Y-102950000D03*
X150050000Y-104950000D03*
X150050000Y-96950000D03*
X150050000Y-94950000D03*
X150050000Y-92950000D03*
D20*
X161050000Y-90900000D03*
X161050000Y-107000000D03*
D17*
X20900000Y-143950000D03*
X35300000Y-143950000D03*
D19*
X25100000Y-150950000D03*
X27100000Y-150950000D03*
X29100000Y-150950000D03*
X31100000Y-150950000D03*
D21*
X30600000Y-136450000D03*
X25600000Y-136450000D03*
X28100000Y-136450000D03*
D17*
X86250000Y-143950000D03*
X100650000Y-143950000D03*
D19*
X90450000Y-150950000D03*
X92450000Y-150950000D03*
X94450000Y-150950000D03*
X96450000Y-150950000D03*
D21*
X95950000Y-136450000D03*
X90950000Y-136450000D03*
X93450000Y-136450000D03*
D17*
X151650000Y-143950000D03*
X166050000Y-143950000D03*
D19*
X155850000Y-150950000D03*
X157850000Y-150950000D03*
X159850000Y-150950000D03*
X161850000Y-150950000D03*
D21*
X161350000Y-136450000D03*
X156350000Y-136450000D03*
X158850000Y-136450000D03*
D22*
X26100000Y-173950000D03*
X30100000Y-173950000D03*
X95450000Y-173950000D03*
X91450000Y-173950000D03*
X160900000Y-173950000D03*
X156900000Y-173950000D03*
D19*
X67350000Y-177360000D03*
X67350000Y-174820000D03*
X67350000Y-172280000D03*
X67350000Y-169740000D03*
X67350000Y-167200000D03*
X67350000Y-164660000D03*
X67350000Y-162120000D03*
X67350000Y-159580000D03*
X67350000Y-157040000D03*
X67350000Y-154500000D03*
X67350000Y-151960000D03*
X67350000Y-149420000D03*
X67350000Y-146880000D03*
X67350000Y-144340000D03*
X67350000Y-141800000D03*
X67350000Y-139260000D03*
X67350000Y-136720000D03*
X67350000Y-134180000D03*
X67350000Y-131640000D03*
X41950000Y-131640000D03*
X41950000Y-134180000D03*
X41950000Y-136720000D03*
X41950000Y-139260000D03*
X41950000Y-141800000D03*
X41950000Y-144340000D03*
X41950000Y-146880000D03*
X41950000Y-149420000D03*
X41950000Y-151960000D03*
X41950000Y-154500000D03*
X41950000Y-157040000D03*
X41950000Y-159580000D03*
X41950000Y-162120000D03*
X41950000Y-164660000D03*
X41950000Y-167200000D03*
X41950000Y-169740000D03*
X41950000Y-172280000D03*
X41950000Y-174820000D03*
X41950000Y-177360000D03*
D23*
X74775000Y-128600000D03*
D16*
X99775000Y-128600000D03*
D24*
X135765000Y-35950000D03*
X124335000Y-35950000D03*
X138305000Y-36585000D03*
X130050000Y-39125000D03*
X134495000Y-45475000D03*
X125605000Y-45475000D03*
X137035000Y-48015000D03*
X123065000Y-48650000D03*
X130050000Y-53095000D03*
X132907500Y-52460000D03*
X127192500Y-52460000D03*
X161765000Y-35950000D03*
X150335000Y-35950000D03*
X164305000Y-36585000D03*
X156050000Y-39125000D03*
X160495000Y-45475000D03*
X151605000Y-45475000D03*
X163035000Y-48015000D03*
X149065000Y-48650000D03*
X156050000Y-53095000D03*
X158907500Y-52460000D03*
X153192500Y-52460000D03*
X110550000Y-40600000D03*
X105550000Y-33100000D03*
X105550000Y-35600000D03*
X115550000Y-33100000D03*
X115550000Y-35600000D03*
D23*
X110550000Y-35600000D03*
D24*
X115550000Y-40600000D03*
X105550000Y-40600000D03*
X113050000Y-40600000D03*
X108050000Y-40600000D03*
X97550000Y-40600000D03*
X92550000Y-33100000D03*
X92550000Y-35600000D03*
X102550000Y-33100000D03*
X102550000Y-35600000D03*
D23*
X97550000Y-35600000D03*
D24*
X102550000Y-40600000D03*
X92550000Y-40600000D03*
X100050000Y-40600000D03*
X95050000Y-40600000D03*
D25*
X36515000Y-32950000D03*
X36515000Y-39300000D03*
X36515000Y-45650000D03*
X20285000Y-32950000D03*
X20285000Y-39300000D03*
X20285000Y-45650000D03*
M02*
