M48
;DRILL file {KiCad 4.0.7} date 04/23/18 16:21:49
;FORMAT={-:-/ absolute / metric / decimal}
FMAT,2
METRIC,TZ
T1C0.300
T2C0.800
T3C1.000
T4C1.100
T5C1.200
T6C1.400
T7C1.500
T8C1.600
T9C1.700
T10C1.800
T11C2.500
T12C3.750
T13C5.000
%
G90
G05
M71
T1
X24.2Y-138.15
X24.2Y-139.4
X25.95Y-127.1
X26.05Y-74.85
X26.8Y-74.85
X26.8Y-75.55
X26.8Y-76.15
X26.8Y-76.75
X26.8Y-77.4
X27.55Y-74.85
X27.6Y-132.15
X28.55Y-132.2
X30.Y-164.95
X30.Y-168.05
X30.9Y-164.05
X31.95Y-76.858
X31.95Y-78.161
X32.75Y-162.6
X33.4Y-158.45
X34.2Y-123.65
X34.5Y-122.6
X35.1Y-123.65
X35.1Y-126.45
X35.1Y-132.45
X35.1Y-133.75
X35.5Y-122.55
X36.15Y-147.35
X36.3Y-158.6
X38.35Y-147.
X38.5Y-158.9
X39.65Y-158.85
X39.65Y-160.2
X42.05Y-79.95
X42.1Y-79.35
X42.95Y-79.35
X42.95Y-79.95
X43.45Y-76.85
X43.45Y-77.6
X43.45Y-78.25
X43.45Y-111.2
X43.45Y-112.4
X44.35Y-163.55
X44.45Y-97.7
X44.45Y-98.35
X44.55Y-111.2
X44.55Y-112.4
X44.75Y-61.
X44.75Y-61.65
X45.1Y-97.7
X45.1Y-98.35
X45.4Y-61.05
X45.4Y-61.65
X45.75Y-97.7
X45.75Y-98.35
X45.85Y-111.2
X45.85Y-112.4
X46.05Y-61.05
X46.05Y-61.7
X46.4Y-97.7
X46.45Y-98.35
X46.7Y-61.05
X46.7Y-61.7
X46.85Y-74.5
X46.85Y-80.4
X47.Y-163.55
X47.05Y-97.7
X47.05Y-111.2
X47.05Y-112.4
X47.1Y-98.35
X47.35Y-171.1
X48.15Y-171.1
X48.95Y-171.1
X49.1Y-61.
X49.1Y-61.6
X49.6Y-100.35
X49.6Y-101.3
X49.6Y-102.25
X49.6Y-103.2
X49.6Y-104.15
X49.6Y-105.1
X49.6Y-106.05
X49.75Y-61.
X49.75Y-61.6
X49.8Y-171.1
X50.35Y-61.
X50.35Y-61.6
X50.6Y-171.1
X50.8Y-89.299
X50.8Y-90.601
X50.95Y-61.
X50.95Y-61.6
X51.15Y-91.35
X51.25Y-163.55
X51.4Y-171.1
X52.2Y-171.1
X52.4Y-164.35
X53.Y-171.1
X53.65Y-171.1
X54.45Y-171.1
X54.5Y-116.55
X54.5Y-117.45
X54.5Y-118.35
X54.5Y-119.3
X55.25Y-171.1
X56.05Y-171.1
X56.85Y-171.1
X57.2Y-85.15
X57.65Y-171.1
X58.45Y-171.1
X59.25Y-171.1
X60.05Y-171.1
X60.5Y-151.7
X61.55Y-152.2
X61.6Y-153.05
X62.75Y-172.2
X65.45Y-148.05
X65.6Y-126.45
X65.6Y-127.1
X68.4Y-130.
X68.9Y-129.6
X69.25Y-142.4
X69.3Y-130.05
X69.5Y-114.1
X69.55Y-114.75
X69.6Y-174.85
X69.75Y-142.8
X70.2Y-174.85
X70.25Y-143.3
X70.25Y-146.3
X70.5Y-141.15
X70.6Y-140.5
X70.8Y-174.85
X71.2Y-141.85
X71.6Y-114.1
X71.65Y-114.75
X71.8Y-142.45
X71.8Y-152.45
X72.1Y-157.65
X72.15Y-153.
X72.3Y-154.7
X72.3Y-157.05
X72.35Y-142.95
X72.45Y-160.65
X73.Y-172.65
X73.3Y-154.75
X73.3Y-157.05
X73.6Y-168.85
X74.15Y-162.45
X74.8Y-136.75
X74.95Y-121.35
X74.95Y-161.65
X75.Y-175.9
X75.2Y-141.35
X75.35Y-140.65
X75.4Y-121.8
X75.45Y-175.15
X75.6Y-170.75
X75.8Y-141.9
X75.85Y-122.25
X76.Y-140.7
X76.1Y-174.85
X76.2Y-142.4
X76.65Y-137.4
X76.7Y-163.15
X76.75Y-142.85
X77.15Y-137.9
X77.2Y-162.75
X77.2Y-177.4
X77.6Y-138.35
X77.75Y-152.5
X77.85Y-162.8
X77.9Y-131.15
X78.25Y-153.
X78.3Y-149.
X78.4Y-173.05
X78.45Y-138.3
X78.8Y-149.4
X78.85Y-150.3
X78.85Y-151.1
X78.85Y-151.9
X78.85Y-152.7
X78.85Y-154.75
X78.85Y-156.95
X79.1Y-119.25
X79.1Y-120.45
X79.1Y-138.35
X79.15Y-118.6
X79.25Y-139.
X79.4Y-149.6
X79.41Y-171.7
X79.55Y-120.9
X79.85Y-138.4
X79.9Y-173.45
X80.29Y-171.7
X80.3Y-137.95
X80.5Y-169.9
X80.7Y-176.25
X81.35Y-176.25
X81.45Y-161.7
X81.8Y-135.05
X81.85Y-137.1
X81.9Y-163.7
X81.95Y-162.15
X81.95Y-176.3
X82.4Y-119.85
X82.5Y-162.7
X82.55Y-163.7
X82.75Y-119.5
X82.8Y-149.6
X82.8Y-150.25
X82.8Y-151.1
X82.8Y-151.9
X82.8Y-152.7
X82.8Y-154.75
X82.8Y-156.95
X82.85Y-164.65
X83.15Y-141.2
X83.95Y-137.85
X84.1Y-131.
X84.2Y-164.55
X84.223Y-120.027
X84.6Y-167.55
X84.7Y-164.1
X84.85Y-163.1
X85.1Y-168.05
X85.5Y-168.45
X85.55Y-162.9
X85.75Y-167.25
X85.95Y-139.75
X86.2Y-167.7
X86.25Y-162.9
X86.65Y-168.2
X87.1Y-162.9
X87.6Y-163.45
X88.3Y-130.65
X88.95Y-136.4
X89.Y-135.75
X89.45Y-121.65
X89.45Y-130.5
X89.65Y-117.05
X90.1Y-116.6
X90.25Y-119.5
X90.3Y-130.55
X90.95Y-122.95
X90.95Y-127.15
X91.Y-84.5
X91.Y-85.9
X91.Y-115.7
X91.Y-117.55
X91.6Y-122.95
X91.6Y-126.6
X91.65Y-84.5
X91.65Y-117.6
X91.65Y-137.85
X91.7Y-85.9
X91.7Y-115.7
X92.05Y-165.2
X92.05Y-166.
X92.2Y-82.75
X92.25Y-122.95
X92.25Y-126.05
X92.3Y-84.5
X92.3Y-117.6
X92.35Y-85.9
X92.35Y-115.7
X92.85Y-139.65
X92.85Y-146.85
X93.Y-85.9
X93.Y-115.7
X93.05Y-117.5
X93.05Y-122.95
X93.05Y-126.05
X94.15Y-147.65
X94.2Y-140.9
X94.7Y-131.15
X94.75Y-48.2
X95.05Y-122.95
X95.15Y-149.85
X95.6Y-140.25
X96.1Y-140.75
X96.3Y-134.35
X96.45Y-60.1
X96.45Y-61.05
X97.1Y-134.3
X97.4Y-61.05
X97.45Y-43.75
X98.05Y-52.05
X98.7Y-177.4
X98.85Y-52.05
X98.85Y-162.65
X98.85Y-163.3
X98.85Y-163.95
X98.85Y-164.6
X99.65Y-52.05
X100.05Y-48.2
X100.45Y-52.05
X101.9Y-170.9
X102.35Y-157.45
X102.35Y-159.6
X102.35Y-161.5
X102.35Y-167.3
X102.4Y-154.95
X102.65Y-171.7
X103.1Y-52.05
X103.6Y-145.15
X103.75Y-141.25
X103.9Y-52.05
X104.9Y-52.05
X105.5Y-114.65
X106.2Y-114.
X107.1Y-97.95
X107.55Y-145.95
X107.7Y-150.2
X107.7Y-154.8
X107.7Y-156.45
X107.8Y-127.15
X108.3Y-156.95
X108.5Y-52.05
X108.75Y-104.8
X109.2Y-52.05
X109.5Y-138.15
X109.7Y-127.15
X109.7Y-150.2
X109.85Y-52.05
X110.05Y-137.6
X110.3Y-98.05
X110.6Y-152.9
X111.1Y-150.2
X111.1Y-154.8
X111.25Y-114.05
X111.25Y-114.95
X111.35Y-138.2
X111.8Y-137.6
X112.65Y-134.85
X114.6Y-134.85
X117.1Y-150.2
X117.15Y-138.1
X117.5Y-36.
X117.5Y-38.75
X117.75Y-137.6
X118.2Y-109.75
X118.2Y-153.
X118.4Y-126.05
X119.05Y-138.15
X119.1Y-126.8
X119.5Y-137.6
X119.6Y-111.1
X120.55Y-134.8
X122.1Y-135.
X124.2Y-136.25
X124.2Y-137.9
X124.25Y-137.25
X124.4Y-135.05
X124.4Y-135.05
X124.8Y-136.75
X125.15Y-135.8
X125.95Y-70.7
X126.Y-69.4
X126.Y-71.35
X126.Y-72.15
X126.05Y-172.
X126.3Y-135.7
X127.Y-135.7
X127.45Y-67.5
X127.95Y-90.95
X127.95Y-172.
X128.35Y-69.4
X128.65Y-85.3
X128.7Y-70.7
X129.15Y-170.1
X129.2Y-47.15
X129.2Y-72.55
X129.55Y-166.4
X129.55Y-167.05
X129.55Y-167.6
X129.8Y-78.75
X130.5Y-90.95
X131.05Y-70.8
X131.05Y-71.75
X131.15Y-72.55
X131.83Y-169.33
X131.83Y-170.27
X132.67Y-169.33
X132.67Y-170.27
X133.Y-83.75
X133.55Y-81.15
X135.25Y-154.95
X135.5Y-166.95
X135.75Y-167.65
X135.9Y-154.95
X135.9Y-159.15
X135.9Y-161.45
X136.05Y-88.8
X136.2Y-167.2
X136.4Y-81.2
X136.4Y-83.75
X136.55Y-154.95
X136.65Y-167.7
X136.95Y-156.75
X137.1Y-87.6
X137.1Y-88.2
X137.1Y-88.8
X139.5Y-166.65
X139.6Y-73.1
X139.6Y-78.7
X139.75Y-69.4
X139.75Y-70.7
X141.15Y-166.45
X141.25Y-67.55
X141.25Y-161.3
X141.3Y-156.45
X141.85Y-166.5
X142.05Y-69.4
X142.3Y-160.45
X142.4Y-70.7
X142.55Y-165.2
X142.55Y-165.85
X142.55Y-166.5
X142.8Y-82.8
X142.9Y-72.5
X143.05Y-167.2
X143.7Y-167.2
X150.45Y-171.4
X150.45Y-172.1
X150.45Y-172.8
X151.1Y-170.8
X151.1Y-171.45
X151.1Y-172.1
X151.1Y-172.75
X151.1Y-173.4
X152.1Y-48.65
X152.1Y-136.2
X153.15Y-136.25
X156.5Y-48.35
X156.9Y-160.3
X160.85Y-164.05
X163.2Y-157.05
X163.6Y-177.4
X166.25Y-43.85
X166.85Y-50.15
T2
X24.15Y-65.05
X24.15Y-68.55
X32.85Y-65.05
X32.85Y-68.55
X35.Y-75.034
X35.Y-80.034
X49.7Y-70.85
X49.7Y-75.85
X49.7Y-79.05
X49.7Y-84.05
X102.1Y-102.4
X107.1Y-102.4
X110.3Y-102.4
X115.3Y-102.4
X120.976Y-104.828
X121.65Y-57.45
X121.65Y-60.95
X124.512Y-108.364
X129.378Y-126.212
X129.378Y-131.212
X138.65Y-57.45
X138.65Y-60.95
X147.35Y-57.45
X147.35Y-60.95
X156.05Y-57.45
X156.05Y-60.95
T3
X41.95Y-131.64
X41.95Y-134.18
X41.95Y-136.72
X41.95Y-139.26
X41.95Y-141.8
X41.95Y-144.34
X41.95Y-146.88
X41.95Y-149.42
X41.95Y-151.96
X41.95Y-154.5
X41.95Y-157.04
X41.95Y-159.58
X41.95Y-162.12
X41.95Y-164.66
X41.95Y-167.2
X41.95Y-169.74
X41.95Y-172.28
X41.95Y-174.82
X41.95Y-177.36
X67.35Y-131.64
X67.35Y-134.18
X67.35Y-136.72
X67.35Y-139.26
X67.35Y-141.8
X67.35Y-144.34
X67.35Y-146.88
X67.35Y-149.42
X67.35Y-151.96
X67.35Y-154.5
X67.35Y-157.04
X67.35Y-159.58
X67.35Y-162.12
X67.35Y-164.66
X67.35Y-167.2
X67.35Y-169.74
X67.35Y-172.28
X67.35Y-174.82
X67.35Y-177.36
X133.3Y-174.3
X138.3Y-170.8
T4
X99.775Y-128.6
T5
X25.1Y-150.95
X27.1Y-150.95
X29.1Y-150.95
X31.1Y-150.95
X90.45Y-150.95
X92.45Y-150.95
X92.55Y-33.1
X92.55Y-35.6
X94.45Y-150.95
X96.45Y-150.95
X97.55Y-40.6
X102.55Y-33.1
X102.55Y-35.6
X105.55Y-33.1
X105.55Y-35.6
X110.55Y-40.6
X115.55Y-33.1
X115.55Y-35.6
X150.Y-67.35
X150.Y-69.35
X150.Y-71.35
X150.Y-73.35
X150.Y-75.35
X150.Y-77.35
X150.Y-79.35
X150.05Y-92.95
X150.05Y-94.95
X150.05Y-96.95
X150.05Y-98.95
X150.05Y-100.95
X150.05Y-102.95
X150.05Y-104.95
X155.85Y-150.95
X157.85Y-150.95
X159.85Y-150.95
X161.85Y-150.95
T6
X20.285Y-32.95
X20.285Y-39.3
X20.285Y-45.65
X36.515Y-32.95
X36.515Y-39.3
X36.515Y-45.65
T7
X25.6Y-136.45
X28.1Y-136.45
X30.6Y-136.45
X90.95Y-136.45
X93.45Y-136.45
X95.95Y-136.45
X156.35Y-136.45
X158.85Y-136.45
X161.35Y-136.45
T8
X74.775Y-128.6
X123.065Y-48.65
X124.335Y-35.95
X125.605Y-45.475
X127.192Y-52.46
X130.05Y-39.125
X130.05Y-53.095
X132.907Y-52.46
X134.495Y-45.475
X135.765Y-35.95
X137.035Y-48.015
X138.305Y-36.585
X149.065Y-48.65
X150.335Y-35.95
X151.605Y-45.475
X153.192Y-52.46
X156.05Y-39.125
X156.05Y-53.095
X158.907Y-52.46
X160.495Y-45.475
X161.765Y-35.95
X163.035Y-48.015
X164.305Y-36.585
T9
X92.55Y-40.6
X95.05Y-40.6
X100.05Y-40.6
X102.55Y-40.6
X105.55Y-40.6
X108.05Y-40.6
X113.05Y-40.6
X115.55Y-40.6
T10
X97.55Y-35.6
X110.55Y-35.6
T11
X20.9Y-143.95
X35.3Y-143.95
X86.25Y-143.95
X100.65Y-143.95
X151.65Y-143.95
X161.Y-65.3
X161.Y-81.4
X161.05Y-90.9
X161.05Y-107.
X166.05Y-143.95
T12
X28.5Y-58.6
X28.5Y-114.4
X129.2Y-58.6
X129.2Y-114.4
T13
X83.15Y-48.4
T3
X26.1Y-173.2G85X26.1Y-174.7
G05
X30.1Y-173.2G85X30.1Y-174.7
G05
X40.65Y-36.7G85X40.65Y-38.7
G05
X46.35Y-34.7G85X44.35Y-34.7
G05
X46.35Y-40.7G85X44.35Y-40.7
G05
X91.45Y-174.7G85X91.45Y-173.2
G05
X95.45Y-174.7G85X95.45Y-173.2
G05
X156.9Y-174.7G85X156.9Y-173.2
G05
X160.9Y-174.7G85X160.9Y-173.2
G05
T0
M30
