G04 #@! TF.FileFunction,Legend,Bot*
%FSLAX46Y46*%
G04 Gerber Fmt 4.6, Leading zero omitted, Abs format (unit mm)*
G04 Created by KiCad (PCBNEW 4.0.7) date 04/23/18 16:21:46*
%MOMM*%
%LPD*%
G01*
G04 APERTURE LIST*
%ADD10C,0.100000*%
%ADD11C,0.600000*%
%ADD12C,0.120000*%
%ADD13C,0.150000*%
%ADD14C,0.010000*%
G04 APERTURE END LIST*
D10*
D11*
X157100000Y-124278571D02*
X157290476Y-124469048D01*
X157861905Y-124659524D01*
X158242857Y-124659524D01*
X158814285Y-124469048D01*
X159195238Y-124088095D01*
X159385714Y-123707143D01*
X159576190Y-122945238D01*
X159576190Y-122373810D01*
X159385714Y-121611905D01*
X159195238Y-121230952D01*
X158814285Y-120850000D01*
X158242857Y-120659524D01*
X157861905Y-120659524D01*
X157290476Y-120850000D01*
X157100000Y-121040476D01*
X155957143Y-120659524D02*
X153671428Y-120659524D01*
X154814285Y-124659524D02*
X154814285Y-120659524D01*
X152528571Y-123516667D02*
X150623809Y-123516667D01*
X152909524Y-124659524D02*
X151576190Y-120659524D01*
X150242857Y-124659524D01*
X146814286Y-120850000D02*
X147195238Y-120659524D01*
X147766667Y-120659524D01*
X148338095Y-120850000D01*
X148719048Y-121230952D01*
X148909524Y-121611905D01*
X149100000Y-122373810D01*
X149100000Y-122945238D01*
X148909524Y-123707143D01*
X148719048Y-124088095D01*
X148338095Y-124469048D01*
X147766667Y-124659524D01*
X147385715Y-124659524D01*
X146814286Y-124469048D01*
X146623810Y-124278571D01*
X146623810Y-122945238D01*
X147385715Y-122945238D01*
D12*
X125740000Y-59200000D02*
G75*
G03X125740000Y-59200000I-4090000J0D01*
G01*
X117600000Y-59200000D02*
X125700000Y-59200000D01*
X117600000Y-59240000D02*
X125700000Y-59240000D01*
X117600000Y-59280000D02*
X125700000Y-59280000D01*
X117601000Y-59320000D02*
X125699000Y-59320000D01*
X117603000Y-59360000D02*
X125697000Y-59360000D01*
X117604000Y-59400000D02*
X125696000Y-59400000D01*
X117607000Y-59440000D02*
X125693000Y-59440000D01*
X117609000Y-59480000D02*
X125691000Y-59480000D01*
X117612000Y-59520000D02*
X125688000Y-59520000D01*
X117615000Y-59560000D02*
X125685000Y-59560000D01*
X117619000Y-59600000D02*
X125681000Y-59600000D01*
X117623000Y-59640000D02*
X125677000Y-59640000D01*
X117628000Y-59680000D02*
X125672000Y-59680000D01*
X117633000Y-59720000D02*
X125667000Y-59720000D01*
X117638000Y-59760000D02*
X125662000Y-59760000D01*
X117644000Y-59800000D02*
X125656000Y-59800000D01*
X117650000Y-59840000D02*
X125650000Y-59840000D01*
X117656000Y-59880000D02*
X125644000Y-59880000D01*
X117663000Y-59921000D02*
X125637000Y-59921000D01*
X117671000Y-59961000D02*
X125629000Y-59961000D01*
X117679000Y-60001000D02*
X120670000Y-60001000D01*
X122630000Y-60001000D02*
X125621000Y-60001000D01*
X117687000Y-60041000D02*
X120670000Y-60041000D01*
X122630000Y-60041000D02*
X125613000Y-60041000D01*
X117695000Y-60081000D02*
X120670000Y-60081000D01*
X122630000Y-60081000D02*
X125605000Y-60081000D01*
X117704000Y-60121000D02*
X120670000Y-60121000D01*
X122630000Y-60121000D02*
X125596000Y-60121000D01*
X117714000Y-60161000D02*
X120670000Y-60161000D01*
X122630000Y-60161000D02*
X125586000Y-60161000D01*
X117724000Y-60201000D02*
X120670000Y-60201000D01*
X122630000Y-60201000D02*
X125576000Y-60201000D01*
X117734000Y-60241000D02*
X120670000Y-60241000D01*
X122630000Y-60241000D02*
X125566000Y-60241000D01*
X117745000Y-60281000D02*
X120670000Y-60281000D01*
X122630000Y-60281000D02*
X125555000Y-60281000D01*
X117756000Y-60321000D02*
X120670000Y-60321000D01*
X122630000Y-60321000D02*
X125544000Y-60321000D01*
X117767000Y-60361000D02*
X120670000Y-60361000D01*
X122630000Y-60361000D02*
X125533000Y-60361000D01*
X117780000Y-60401000D02*
X120670000Y-60401000D01*
X122630000Y-60401000D02*
X125520000Y-60401000D01*
X117792000Y-60441000D02*
X120670000Y-60441000D01*
X122630000Y-60441000D02*
X125508000Y-60441000D01*
X117805000Y-60481000D02*
X120670000Y-60481000D01*
X122630000Y-60481000D02*
X125495000Y-60481000D01*
X117818000Y-60521000D02*
X120670000Y-60521000D01*
X122630000Y-60521000D02*
X125482000Y-60521000D01*
X117832000Y-60561000D02*
X120670000Y-60561000D01*
X122630000Y-60561000D02*
X125468000Y-60561000D01*
X117847000Y-60601000D02*
X120670000Y-60601000D01*
X122630000Y-60601000D02*
X125453000Y-60601000D01*
X117861000Y-60641000D02*
X120670000Y-60641000D01*
X122630000Y-60641000D02*
X125439000Y-60641000D01*
X117877000Y-60681000D02*
X120670000Y-60681000D01*
X122630000Y-60681000D02*
X125423000Y-60681000D01*
X117892000Y-60721000D02*
X120670000Y-60721000D01*
X122630000Y-60721000D02*
X125408000Y-60721000D01*
X117909000Y-60761000D02*
X120670000Y-60761000D01*
X122630000Y-60761000D02*
X125391000Y-60761000D01*
X117925000Y-60801000D02*
X120670000Y-60801000D01*
X122630000Y-60801000D02*
X125375000Y-60801000D01*
X117943000Y-60841000D02*
X120670000Y-60841000D01*
X122630000Y-60841000D02*
X125357000Y-60841000D01*
X117960000Y-60881000D02*
X120670000Y-60881000D01*
X122630000Y-60881000D02*
X125340000Y-60881000D01*
X117979000Y-60921000D02*
X120670000Y-60921000D01*
X122630000Y-60921000D02*
X125321000Y-60921000D01*
X117998000Y-60961000D02*
X120670000Y-60961000D01*
X122630000Y-60961000D02*
X125302000Y-60961000D01*
X118017000Y-61001000D02*
X120670000Y-61001000D01*
X122630000Y-61001000D02*
X125283000Y-61001000D01*
X118037000Y-61041000D02*
X120670000Y-61041000D01*
X122630000Y-61041000D02*
X125263000Y-61041000D01*
X118057000Y-61081000D02*
X120670000Y-61081000D01*
X122630000Y-61081000D02*
X125243000Y-61081000D01*
X118078000Y-61121000D02*
X120670000Y-61121000D01*
X122630000Y-61121000D02*
X125222000Y-61121000D01*
X118100000Y-61161000D02*
X120670000Y-61161000D01*
X122630000Y-61161000D02*
X125200000Y-61161000D01*
X118122000Y-61201000D02*
X120670000Y-61201000D01*
X122630000Y-61201000D02*
X125178000Y-61201000D01*
X118145000Y-61241000D02*
X120670000Y-61241000D01*
X122630000Y-61241000D02*
X125155000Y-61241000D01*
X118168000Y-61281000D02*
X120670000Y-61281000D01*
X122630000Y-61281000D02*
X125132000Y-61281000D01*
X118192000Y-61321000D02*
X120670000Y-61321000D01*
X122630000Y-61321000D02*
X125108000Y-61321000D01*
X118216000Y-61361000D02*
X120670000Y-61361000D01*
X122630000Y-61361000D02*
X125084000Y-61361000D01*
X118242000Y-61401000D02*
X120670000Y-61401000D01*
X122630000Y-61401000D02*
X125058000Y-61401000D01*
X118267000Y-61441000D02*
X120670000Y-61441000D01*
X122630000Y-61441000D02*
X125033000Y-61441000D01*
X118294000Y-61481000D02*
X120670000Y-61481000D01*
X122630000Y-61481000D02*
X125006000Y-61481000D01*
X118321000Y-61521000D02*
X120670000Y-61521000D01*
X122630000Y-61521000D02*
X124979000Y-61521000D01*
X118349000Y-61561000D02*
X120670000Y-61561000D01*
X122630000Y-61561000D02*
X124951000Y-61561000D01*
X118378000Y-61601000D02*
X120670000Y-61601000D01*
X122630000Y-61601000D02*
X124922000Y-61601000D01*
X118407000Y-61641000D02*
X120670000Y-61641000D01*
X122630000Y-61641000D02*
X124893000Y-61641000D01*
X118437000Y-61681000D02*
X120670000Y-61681000D01*
X122630000Y-61681000D02*
X124863000Y-61681000D01*
X118468000Y-61721000D02*
X120670000Y-61721000D01*
X122630000Y-61721000D02*
X124832000Y-61721000D01*
X118500000Y-61761000D02*
X120670000Y-61761000D01*
X122630000Y-61761000D02*
X124800000Y-61761000D01*
X118532000Y-61801000D02*
X120670000Y-61801000D01*
X122630000Y-61801000D02*
X124768000Y-61801000D01*
X118566000Y-61841000D02*
X120670000Y-61841000D01*
X122630000Y-61841000D02*
X124734000Y-61841000D01*
X118600000Y-61881000D02*
X120670000Y-61881000D01*
X122630000Y-61881000D02*
X124700000Y-61881000D01*
X118635000Y-61921000D02*
X120670000Y-61921000D01*
X122630000Y-61921000D02*
X124665000Y-61921000D01*
X118671000Y-61961000D02*
X124629000Y-61961000D01*
X118708000Y-62001000D02*
X124592000Y-62001000D01*
X118746000Y-62041000D02*
X124554000Y-62041000D01*
X118785000Y-62081000D02*
X124515000Y-62081000D01*
X118826000Y-62121000D02*
X124474000Y-62121000D01*
X118867000Y-62161000D02*
X124433000Y-62161000D01*
X118910000Y-62201000D02*
X124390000Y-62201000D01*
X118953000Y-62241000D02*
X124347000Y-62241000D01*
X118998000Y-62281000D02*
X124302000Y-62281000D01*
X119045000Y-62321000D02*
X124255000Y-62321000D01*
X119093000Y-62361000D02*
X124207000Y-62361000D01*
X119142000Y-62401000D02*
X124158000Y-62401000D01*
X119193000Y-62441000D02*
X124107000Y-62441000D01*
X119246000Y-62481000D02*
X124054000Y-62481000D01*
X119301000Y-62521000D02*
X123999000Y-62521000D01*
X119357000Y-62561000D02*
X123943000Y-62561000D01*
X119416000Y-62601000D02*
X123884000Y-62601000D01*
X119477000Y-62641000D02*
X123823000Y-62641000D01*
X119541000Y-62681000D02*
X123759000Y-62681000D01*
X119607000Y-62721000D02*
X123693000Y-62721000D01*
X119676000Y-62761000D02*
X123624000Y-62761000D01*
X119748000Y-62801000D02*
X123552000Y-62801000D01*
X119824000Y-62841000D02*
X123476000Y-62841000D01*
X119905000Y-62881000D02*
X123395000Y-62881000D01*
X119990000Y-62921000D02*
X123310000Y-62921000D01*
X120080000Y-62961000D02*
X123220000Y-62961000D01*
X120177000Y-63001000D02*
X123123000Y-63001000D01*
X120281000Y-63041000D02*
X123019000Y-63041000D01*
X120396000Y-63081000D02*
X122904000Y-63081000D01*
X120523000Y-63121000D02*
X122777000Y-63121000D01*
X120667000Y-63161000D02*
X122633000Y-63161000D01*
X120836000Y-63201000D02*
X122464000Y-63201000D01*
X121052000Y-63241000D02*
X122248000Y-63241000D01*
X121404000Y-63281000D02*
X121896000Y-63281000D01*
X121650000Y-55250000D02*
X121650000Y-56450000D01*
X121000000Y-55850000D02*
X122300000Y-55850000D01*
X142740000Y-59200000D02*
G75*
G03X142740000Y-59200000I-4090000J0D01*
G01*
X134600000Y-59200000D02*
X142700000Y-59200000D01*
X134600000Y-59240000D02*
X142700000Y-59240000D01*
X134600000Y-59280000D02*
X142700000Y-59280000D01*
X134601000Y-59320000D02*
X142699000Y-59320000D01*
X134603000Y-59360000D02*
X142697000Y-59360000D01*
X134604000Y-59400000D02*
X142696000Y-59400000D01*
X134607000Y-59440000D02*
X142693000Y-59440000D01*
X134609000Y-59480000D02*
X142691000Y-59480000D01*
X134612000Y-59520000D02*
X142688000Y-59520000D01*
X134615000Y-59560000D02*
X142685000Y-59560000D01*
X134619000Y-59600000D02*
X142681000Y-59600000D01*
X134623000Y-59640000D02*
X142677000Y-59640000D01*
X134628000Y-59680000D02*
X142672000Y-59680000D01*
X134633000Y-59720000D02*
X142667000Y-59720000D01*
X134638000Y-59760000D02*
X142662000Y-59760000D01*
X134644000Y-59800000D02*
X142656000Y-59800000D01*
X134650000Y-59840000D02*
X142650000Y-59840000D01*
X134656000Y-59880000D02*
X142644000Y-59880000D01*
X134663000Y-59921000D02*
X142637000Y-59921000D01*
X134671000Y-59961000D02*
X142629000Y-59961000D01*
X134679000Y-60001000D02*
X137670000Y-60001000D01*
X139630000Y-60001000D02*
X142621000Y-60001000D01*
X134687000Y-60041000D02*
X137670000Y-60041000D01*
X139630000Y-60041000D02*
X142613000Y-60041000D01*
X134695000Y-60081000D02*
X137670000Y-60081000D01*
X139630000Y-60081000D02*
X142605000Y-60081000D01*
X134704000Y-60121000D02*
X137670000Y-60121000D01*
X139630000Y-60121000D02*
X142596000Y-60121000D01*
X134714000Y-60161000D02*
X137670000Y-60161000D01*
X139630000Y-60161000D02*
X142586000Y-60161000D01*
X134724000Y-60201000D02*
X137670000Y-60201000D01*
X139630000Y-60201000D02*
X142576000Y-60201000D01*
X134734000Y-60241000D02*
X137670000Y-60241000D01*
X139630000Y-60241000D02*
X142566000Y-60241000D01*
X134745000Y-60281000D02*
X137670000Y-60281000D01*
X139630000Y-60281000D02*
X142555000Y-60281000D01*
X134756000Y-60321000D02*
X137670000Y-60321000D01*
X139630000Y-60321000D02*
X142544000Y-60321000D01*
X134767000Y-60361000D02*
X137670000Y-60361000D01*
X139630000Y-60361000D02*
X142533000Y-60361000D01*
X134780000Y-60401000D02*
X137670000Y-60401000D01*
X139630000Y-60401000D02*
X142520000Y-60401000D01*
X134792000Y-60441000D02*
X137670000Y-60441000D01*
X139630000Y-60441000D02*
X142508000Y-60441000D01*
X134805000Y-60481000D02*
X137670000Y-60481000D01*
X139630000Y-60481000D02*
X142495000Y-60481000D01*
X134818000Y-60521000D02*
X137670000Y-60521000D01*
X139630000Y-60521000D02*
X142482000Y-60521000D01*
X134832000Y-60561000D02*
X137670000Y-60561000D01*
X139630000Y-60561000D02*
X142468000Y-60561000D01*
X134847000Y-60601000D02*
X137670000Y-60601000D01*
X139630000Y-60601000D02*
X142453000Y-60601000D01*
X134861000Y-60641000D02*
X137670000Y-60641000D01*
X139630000Y-60641000D02*
X142439000Y-60641000D01*
X134877000Y-60681000D02*
X137670000Y-60681000D01*
X139630000Y-60681000D02*
X142423000Y-60681000D01*
X134892000Y-60721000D02*
X137670000Y-60721000D01*
X139630000Y-60721000D02*
X142408000Y-60721000D01*
X134909000Y-60761000D02*
X137670000Y-60761000D01*
X139630000Y-60761000D02*
X142391000Y-60761000D01*
X134925000Y-60801000D02*
X137670000Y-60801000D01*
X139630000Y-60801000D02*
X142375000Y-60801000D01*
X134943000Y-60841000D02*
X137670000Y-60841000D01*
X139630000Y-60841000D02*
X142357000Y-60841000D01*
X134960000Y-60881000D02*
X137670000Y-60881000D01*
X139630000Y-60881000D02*
X142340000Y-60881000D01*
X134979000Y-60921000D02*
X137670000Y-60921000D01*
X139630000Y-60921000D02*
X142321000Y-60921000D01*
X134998000Y-60961000D02*
X137670000Y-60961000D01*
X139630000Y-60961000D02*
X142302000Y-60961000D01*
X135017000Y-61001000D02*
X137670000Y-61001000D01*
X139630000Y-61001000D02*
X142283000Y-61001000D01*
X135037000Y-61041000D02*
X137670000Y-61041000D01*
X139630000Y-61041000D02*
X142263000Y-61041000D01*
X135057000Y-61081000D02*
X137670000Y-61081000D01*
X139630000Y-61081000D02*
X142243000Y-61081000D01*
X135078000Y-61121000D02*
X137670000Y-61121000D01*
X139630000Y-61121000D02*
X142222000Y-61121000D01*
X135100000Y-61161000D02*
X137670000Y-61161000D01*
X139630000Y-61161000D02*
X142200000Y-61161000D01*
X135122000Y-61201000D02*
X137670000Y-61201000D01*
X139630000Y-61201000D02*
X142178000Y-61201000D01*
X135145000Y-61241000D02*
X137670000Y-61241000D01*
X139630000Y-61241000D02*
X142155000Y-61241000D01*
X135168000Y-61281000D02*
X137670000Y-61281000D01*
X139630000Y-61281000D02*
X142132000Y-61281000D01*
X135192000Y-61321000D02*
X137670000Y-61321000D01*
X139630000Y-61321000D02*
X142108000Y-61321000D01*
X135216000Y-61361000D02*
X137670000Y-61361000D01*
X139630000Y-61361000D02*
X142084000Y-61361000D01*
X135242000Y-61401000D02*
X137670000Y-61401000D01*
X139630000Y-61401000D02*
X142058000Y-61401000D01*
X135267000Y-61441000D02*
X137670000Y-61441000D01*
X139630000Y-61441000D02*
X142033000Y-61441000D01*
X135294000Y-61481000D02*
X137670000Y-61481000D01*
X139630000Y-61481000D02*
X142006000Y-61481000D01*
X135321000Y-61521000D02*
X137670000Y-61521000D01*
X139630000Y-61521000D02*
X141979000Y-61521000D01*
X135349000Y-61561000D02*
X137670000Y-61561000D01*
X139630000Y-61561000D02*
X141951000Y-61561000D01*
X135378000Y-61601000D02*
X137670000Y-61601000D01*
X139630000Y-61601000D02*
X141922000Y-61601000D01*
X135407000Y-61641000D02*
X137670000Y-61641000D01*
X139630000Y-61641000D02*
X141893000Y-61641000D01*
X135437000Y-61681000D02*
X137670000Y-61681000D01*
X139630000Y-61681000D02*
X141863000Y-61681000D01*
X135468000Y-61721000D02*
X137670000Y-61721000D01*
X139630000Y-61721000D02*
X141832000Y-61721000D01*
X135500000Y-61761000D02*
X137670000Y-61761000D01*
X139630000Y-61761000D02*
X141800000Y-61761000D01*
X135532000Y-61801000D02*
X137670000Y-61801000D01*
X139630000Y-61801000D02*
X141768000Y-61801000D01*
X135566000Y-61841000D02*
X137670000Y-61841000D01*
X139630000Y-61841000D02*
X141734000Y-61841000D01*
X135600000Y-61881000D02*
X137670000Y-61881000D01*
X139630000Y-61881000D02*
X141700000Y-61881000D01*
X135635000Y-61921000D02*
X137670000Y-61921000D01*
X139630000Y-61921000D02*
X141665000Y-61921000D01*
X135671000Y-61961000D02*
X141629000Y-61961000D01*
X135708000Y-62001000D02*
X141592000Y-62001000D01*
X135746000Y-62041000D02*
X141554000Y-62041000D01*
X135785000Y-62081000D02*
X141515000Y-62081000D01*
X135826000Y-62121000D02*
X141474000Y-62121000D01*
X135867000Y-62161000D02*
X141433000Y-62161000D01*
X135910000Y-62201000D02*
X141390000Y-62201000D01*
X135953000Y-62241000D02*
X141347000Y-62241000D01*
X135998000Y-62281000D02*
X141302000Y-62281000D01*
X136045000Y-62321000D02*
X141255000Y-62321000D01*
X136093000Y-62361000D02*
X141207000Y-62361000D01*
X136142000Y-62401000D02*
X141158000Y-62401000D01*
X136193000Y-62441000D02*
X141107000Y-62441000D01*
X136246000Y-62481000D02*
X141054000Y-62481000D01*
X136301000Y-62521000D02*
X140999000Y-62521000D01*
X136357000Y-62561000D02*
X140943000Y-62561000D01*
X136416000Y-62601000D02*
X140884000Y-62601000D01*
X136477000Y-62641000D02*
X140823000Y-62641000D01*
X136541000Y-62681000D02*
X140759000Y-62681000D01*
X136607000Y-62721000D02*
X140693000Y-62721000D01*
X136676000Y-62761000D02*
X140624000Y-62761000D01*
X136748000Y-62801000D02*
X140552000Y-62801000D01*
X136824000Y-62841000D02*
X140476000Y-62841000D01*
X136905000Y-62881000D02*
X140395000Y-62881000D01*
X136990000Y-62921000D02*
X140310000Y-62921000D01*
X137080000Y-62961000D02*
X140220000Y-62961000D01*
X137177000Y-63001000D02*
X140123000Y-63001000D01*
X137281000Y-63041000D02*
X140019000Y-63041000D01*
X137396000Y-63081000D02*
X139904000Y-63081000D01*
X137523000Y-63121000D02*
X139777000Y-63121000D01*
X137667000Y-63161000D02*
X139633000Y-63161000D01*
X137836000Y-63201000D02*
X139464000Y-63201000D01*
X138052000Y-63241000D02*
X139248000Y-63241000D01*
X138404000Y-63281000D02*
X138896000Y-63281000D01*
X138650000Y-55250000D02*
X138650000Y-56450000D01*
X138000000Y-55850000D02*
X139300000Y-55850000D01*
X127778660Y-106949694D02*
X122390507Y-101561541D01*
X123097613Y-111630741D02*
X117709460Y-106242588D01*
X127778660Y-106949694D02*
X123097613Y-111630741D01*
X122390507Y-101561541D02*
X117709460Y-106242588D01*
X151440000Y-59200000D02*
G75*
G03X151440000Y-59200000I-4090000J0D01*
G01*
X143300000Y-59200000D02*
X151400000Y-59200000D01*
X143300000Y-59240000D02*
X151400000Y-59240000D01*
X143300000Y-59280000D02*
X151400000Y-59280000D01*
X143301000Y-59320000D02*
X151399000Y-59320000D01*
X143303000Y-59360000D02*
X151397000Y-59360000D01*
X143304000Y-59400000D02*
X151396000Y-59400000D01*
X143307000Y-59440000D02*
X151393000Y-59440000D01*
X143309000Y-59480000D02*
X151391000Y-59480000D01*
X143312000Y-59520000D02*
X151388000Y-59520000D01*
X143315000Y-59560000D02*
X151385000Y-59560000D01*
X143319000Y-59600000D02*
X151381000Y-59600000D01*
X143323000Y-59640000D02*
X151377000Y-59640000D01*
X143328000Y-59680000D02*
X151372000Y-59680000D01*
X143333000Y-59720000D02*
X151367000Y-59720000D01*
X143338000Y-59760000D02*
X151362000Y-59760000D01*
X143344000Y-59800000D02*
X151356000Y-59800000D01*
X143350000Y-59840000D02*
X151350000Y-59840000D01*
X143356000Y-59880000D02*
X151344000Y-59880000D01*
X143363000Y-59921000D02*
X151337000Y-59921000D01*
X143371000Y-59961000D02*
X151329000Y-59961000D01*
X143379000Y-60001000D02*
X146370000Y-60001000D01*
X148330000Y-60001000D02*
X151321000Y-60001000D01*
X143387000Y-60041000D02*
X146370000Y-60041000D01*
X148330000Y-60041000D02*
X151313000Y-60041000D01*
X143395000Y-60081000D02*
X146370000Y-60081000D01*
X148330000Y-60081000D02*
X151305000Y-60081000D01*
X143404000Y-60121000D02*
X146370000Y-60121000D01*
X148330000Y-60121000D02*
X151296000Y-60121000D01*
X143414000Y-60161000D02*
X146370000Y-60161000D01*
X148330000Y-60161000D02*
X151286000Y-60161000D01*
X143424000Y-60201000D02*
X146370000Y-60201000D01*
X148330000Y-60201000D02*
X151276000Y-60201000D01*
X143434000Y-60241000D02*
X146370000Y-60241000D01*
X148330000Y-60241000D02*
X151266000Y-60241000D01*
X143445000Y-60281000D02*
X146370000Y-60281000D01*
X148330000Y-60281000D02*
X151255000Y-60281000D01*
X143456000Y-60321000D02*
X146370000Y-60321000D01*
X148330000Y-60321000D02*
X151244000Y-60321000D01*
X143467000Y-60361000D02*
X146370000Y-60361000D01*
X148330000Y-60361000D02*
X151233000Y-60361000D01*
X143480000Y-60401000D02*
X146370000Y-60401000D01*
X148330000Y-60401000D02*
X151220000Y-60401000D01*
X143492000Y-60441000D02*
X146370000Y-60441000D01*
X148330000Y-60441000D02*
X151208000Y-60441000D01*
X143505000Y-60481000D02*
X146370000Y-60481000D01*
X148330000Y-60481000D02*
X151195000Y-60481000D01*
X143518000Y-60521000D02*
X146370000Y-60521000D01*
X148330000Y-60521000D02*
X151182000Y-60521000D01*
X143532000Y-60561000D02*
X146370000Y-60561000D01*
X148330000Y-60561000D02*
X151168000Y-60561000D01*
X143547000Y-60601000D02*
X146370000Y-60601000D01*
X148330000Y-60601000D02*
X151153000Y-60601000D01*
X143561000Y-60641000D02*
X146370000Y-60641000D01*
X148330000Y-60641000D02*
X151139000Y-60641000D01*
X143577000Y-60681000D02*
X146370000Y-60681000D01*
X148330000Y-60681000D02*
X151123000Y-60681000D01*
X143592000Y-60721000D02*
X146370000Y-60721000D01*
X148330000Y-60721000D02*
X151108000Y-60721000D01*
X143609000Y-60761000D02*
X146370000Y-60761000D01*
X148330000Y-60761000D02*
X151091000Y-60761000D01*
X143625000Y-60801000D02*
X146370000Y-60801000D01*
X148330000Y-60801000D02*
X151075000Y-60801000D01*
X143643000Y-60841000D02*
X146370000Y-60841000D01*
X148330000Y-60841000D02*
X151057000Y-60841000D01*
X143660000Y-60881000D02*
X146370000Y-60881000D01*
X148330000Y-60881000D02*
X151040000Y-60881000D01*
X143679000Y-60921000D02*
X146370000Y-60921000D01*
X148330000Y-60921000D02*
X151021000Y-60921000D01*
X143698000Y-60961000D02*
X146370000Y-60961000D01*
X148330000Y-60961000D02*
X151002000Y-60961000D01*
X143717000Y-61001000D02*
X146370000Y-61001000D01*
X148330000Y-61001000D02*
X150983000Y-61001000D01*
X143737000Y-61041000D02*
X146370000Y-61041000D01*
X148330000Y-61041000D02*
X150963000Y-61041000D01*
X143757000Y-61081000D02*
X146370000Y-61081000D01*
X148330000Y-61081000D02*
X150943000Y-61081000D01*
X143778000Y-61121000D02*
X146370000Y-61121000D01*
X148330000Y-61121000D02*
X150922000Y-61121000D01*
X143800000Y-61161000D02*
X146370000Y-61161000D01*
X148330000Y-61161000D02*
X150900000Y-61161000D01*
X143822000Y-61201000D02*
X146370000Y-61201000D01*
X148330000Y-61201000D02*
X150878000Y-61201000D01*
X143845000Y-61241000D02*
X146370000Y-61241000D01*
X148330000Y-61241000D02*
X150855000Y-61241000D01*
X143868000Y-61281000D02*
X146370000Y-61281000D01*
X148330000Y-61281000D02*
X150832000Y-61281000D01*
X143892000Y-61321000D02*
X146370000Y-61321000D01*
X148330000Y-61321000D02*
X150808000Y-61321000D01*
X143916000Y-61361000D02*
X146370000Y-61361000D01*
X148330000Y-61361000D02*
X150784000Y-61361000D01*
X143942000Y-61401000D02*
X146370000Y-61401000D01*
X148330000Y-61401000D02*
X150758000Y-61401000D01*
X143967000Y-61441000D02*
X146370000Y-61441000D01*
X148330000Y-61441000D02*
X150733000Y-61441000D01*
X143994000Y-61481000D02*
X146370000Y-61481000D01*
X148330000Y-61481000D02*
X150706000Y-61481000D01*
X144021000Y-61521000D02*
X146370000Y-61521000D01*
X148330000Y-61521000D02*
X150679000Y-61521000D01*
X144049000Y-61561000D02*
X146370000Y-61561000D01*
X148330000Y-61561000D02*
X150651000Y-61561000D01*
X144078000Y-61601000D02*
X146370000Y-61601000D01*
X148330000Y-61601000D02*
X150622000Y-61601000D01*
X144107000Y-61641000D02*
X146370000Y-61641000D01*
X148330000Y-61641000D02*
X150593000Y-61641000D01*
X144137000Y-61681000D02*
X146370000Y-61681000D01*
X148330000Y-61681000D02*
X150563000Y-61681000D01*
X144168000Y-61721000D02*
X146370000Y-61721000D01*
X148330000Y-61721000D02*
X150532000Y-61721000D01*
X144200000Y-61761000D02*
X146370000Y-61761000D01*
X148330000Y-61761000D02*
X150500000Y-61761000D01*
X144232000Y-61801000D02*
X146370000Y-61801000D01*
X148330000Y-61801000D02*
X150468000Y-61801000D01*
X144266000Y-61841000D02*
X146370000Y-61841000D01*
X148330000Y-61841000D02*
X150434000Y-61841000D01*
X144300000Y-61881000D02*
X146370000Y-61881000D01*
X148330000Y-61881000D02*
X150400000Y-61881000D01*
X144335000Y-61921000D02*
X146370000Y-61921000D01*
X148330000Y-61921000D02*
X150365000Y-61921000D01*
X144371000Y-61961000D02*
X150329000Y-61961000D01*
X144408000Y-62001000D02*
X150292000Y-62001000D01*
X144446000Y-62041000D02*
X150254000Y-62041000D01*
X144485000Y-62081000D02*
X150215000Y-62081000D01*
X144526000Y-62121000D02*
X150174000Y-62121000D01*
X144567000Y-62161000D02*
X150133000Y-62161000D01*
X144610000Y-62201000D02*
X150090000Y-62201000D01*
X144653000Y-62241000D02*
X150047000Y-62241000D01*
X144698000Y-62281000D02*
X150002000Y-62281000D01*
X144745000Y-62321000D02*
X149955000Y-62321000D01*
X144793000Y-62361000D02*
X149907000Y-62361000D01*
X144842000Y-62401000D02*
X149858000Y-62401000D01*
X144893000Y-62441000D02*
X149807000Y-62441000D01*
X144946000Y-62481000D02*
X149754000Y-62481000D01*
X145001000Y-62521000D02*
X149699000Y-62521000D01*
X145057000Y-62561000D02*
X149643000Y-62561000D01*
X145116000Y-62601000D02*
X149584000Y-62601000D01*
X145177000Y-62641000D02*
X149523000Y-62641000D01*
X145241000Y-62681000D02*
X149459000Y-62681000D01*
X145307000Y-62721000D02*
X149393000Y-62721000D01*
X145376000Y-62761000D02*
X149324000Y-62761000D01*
X145448000Y-62801000D02*
X149252000Y-62801000D01*
X145524000Y-62841000D02*
X149176000Y-62841000D01*
X145605000Y-62881000D02*
X149095000Y-62881000D01*
X145690000Y-62921000D02*
X149010000Y-62921000D01*
X145780000Y-62961000D02*
X148920000Y-62961000D01*
X145877000Y-63001000D02*
X148823000Y-63001000D01*
X145981000Y-63041000D02*
X148719000Y-63041000D01*
X146096000Y-63081000D02*
X148604000Y-63081000D01*
X146223000Y-63121000D02*
X148477000Y-63121000D01*
X146367000Y-63161000D02*
X148333000Y-63161000D01*
X146536000Y-63201000D02*
X148164000Y-63201000D01*
X146752000Y-63241000D02*
X147948000Y-63241000D01*
X147104000Y-63281000D02*
X147596000Y-63281000D01*
X147350000Y-55250000D02*
X147350000Y-56450000D01*
X146700000Y-55850000D02*
X148000000Y-55850000D01*
X160140000Y-59200000D02*
G75*
G03X160140000Y-59200000I-4090000J0D01*
G01*
X152000000Y-59200000D02*
X160100000Y-59200000D01*
X152000000Y-59240000D02*
X160100000Y-59240000D01*
X152000000Y-59280000D02*
X160100000Y-59280000D01*
X152001000Y-59320000D02*
X160099000Y-59320000D01*
X152003000Y-59360000D02*
X160097000Y-59360000D01*
X152004000Y-59400000D02*
X160096000Y-59400000D01*
X152007000Y-59440000D02*
X160093000Y-59440000D01*
X152009000Y-59480000D02*
X160091000Y-59480000D01*
X152012000Y-59520000D02*
X160088000Y-59520000D01*
X152015000Y-59560000D02*
X160085000Y-59560000D01*
X152019000Y-59600000D02*
X160081000Y-59600000D01*
X152023000Y-59640000D02*
X160077000Y-59640000D01*
X152028000Y-59680000D02*
X160072000Y-59680000D01*
X152033000Y-59720000D02*
X160067000Y-59720000D01*
X152038000Y-59760000D02*
X160062000Y-59760000D01*
X152044000Y-59800000D02*
X160056000Y-59800000D01*
X152050000Y-59840000D02*
X160050000Y-59840000D01*
X152056000Y-59880000D02*
X160044000Y-59880000D01*
X152063000Y-59921000D02*
X160037000Y-59921000D01*
X152071000Y-59961000D02*
X160029000Y-59961000D01*
X152079000Y-60001000D02*
X155070000Y-60001000D01*
X157030000Y-60001000D02*
X160021000Y-60001000D01*
X152087000Y-60041000D02*
X155070000Y-60041000D01*
X157030000Y-60041000D02*
X160013000Y-60041000D01*
X152095000Y-60081000D02*
X155070000Y-60081000D01*
X157030000Y-60081000D02*
X160005000Y-60081000D01*
X152104000Y-60121000D02*
X155070000Y-60121000D01*
X157030000Y-60121000D02*
X159996000Y-60121000D01*
X152114000Y-60161000D02*
X155070000Y-60161000D01*
X157030000Y-60161000D02*
X159986000Y-60161000D01*
X152124000Y-60201000D02*
X155070000Y-60201000D01*
X157030000Y-60201000D02*
X159976000Y-60201000D01*
X152134000Y-60241000D02*
X155070000Y-60241000D01*
X157030000Y-60241000D02*
X159966000Y-60241000D01*
X152145000Y-60281000D02*
X155070000Y-60281000D01*
X157030000Y-60281000D02*
X159955000Y-60281000D01*
X152156000Y-60321000D02*
X155070000Y-60321000D01*
X157030000Y-60321000D02*
X159944000Y-60321000D01*
X152167000Y-60361000D02*
X155070000Y-60361000D01*
X157030000Y-60361000D02*
X159933000Y-60361000D01*
X152180000Y-60401000D02*
X155070000Y-60401000D01*
X157030000Y-60401000D02*
X159920000Y-60401000D01*
X152192000Y-60441000D02*
X155070000Y-60441000D01*
X157030000Y-60441000D02*
X159908000Y-60441000D01*
X152205000Y-60481000D02*
X155070000Y-60481000D01*
X157030000Y-60481000D02*
X159895000Y-60481000D01*
X152218000Y-60521000D02*
X155070000Y-60521000D01*
X157030000Y-60521000D02*
X159882000Y-60521000D01*
X152232000Y-60561000D02*
X155070000Y-60561000D01*
X157030000Y-60561000D02*
X159868000Y-60561000D01*
X152247000Y-60601000D02*
X155070000Y-60601000D01*
X157030000Y-60601000D02*
X159853000Y-60601000D01*
X152261000Y-60641000D02*
X155070000Y-60641000D01*
X157030000Y-60641000D02*
X159839000Y-60641000D01*
X152277000Y-60681000D02*
X155070000Y-60681000D01*
X157030000Y-60681000D02*
X159823000Y-60681000D01*
X152292000Y-60721000D02*
X155070000Y-60721000D01*
X157030000Y-60721000D02*
X159808000Y-60721000D01*
X152309000Y-60761000D02*
X155070000Y-60761000D01*
X157030000Y-60761000D02*
X159791000Y-60761000D01*
X152325000Y-60801000D02*
X155070000Y-60801000D01*
X157030000Y-60801000D02*
X159775000Y-60801000D01*
X152343000Y-60841000D02*
X155070000Y-60841000D01*
X157030000Y-60841000D02*
X159757000Y-60841000D01*
X152360000Y-60881000D02*
X155070000Y-60881000D01*
X157030000Y-60881000D02*
X159740000Y-60881000D01*
X152379000Y-60921000D02*
X155070000Y-60921000D01*
X157030000Y-60921000D02*
X159721000Y-60921000D01*
X152398000Y-60961000D02*
X155070000Y-60961000D01*
X157030000Y-60961000D02*
X159702000Y-60961000D01*
X152417000Y-61001000D02*
X155070000Y-61001000D01*
X157030000Y-61001000D02*
X159683000Y-61001000D01*
X152437000Y-61041000D02*
X155070000Y-61041000D01*
X157030000Y-61041000D02*
X159663000Y-61041000D01*
X152457000Y-61081000D02*
X155070000Y-61081000D01*
X157030000Y-61081000D02*
X159643000Y-61081000D01*
X152478000Y-61121000D02*
X155070000Y-61121000D01*
X157030000Y-61121000D02*
X159622000Y-61121000D01*
X152500000Y-61161000D02*
X155070000Y-61161000D01*
X157030000Y-61161000D02*
X159600000Y-61161000D01*
X152522000Y-61201000D02*
X155070000Y-61201000D01*
X157030000Y-61201000D02*
X159578000Y-61201000D01*
X152545000Y-61241000D02*
X155070000Y-61241000D01*
X157030000Y-61241000D02*
X159555000Y-61241000D01*
X152568000Y-61281000D02*
X155070000Y-61281000D01*
X157030000Y-61281000D02*
X159532000Y-61281000D01*
X152592000Y-61321000D02*
X155070000Y-61321000D01*
X157030000Y-61321000D02*
X159508000Y-61321000D01*
X152616000Y-61361000D02*
X155070000Y-61361000D01*
X157030000Y-61361000D02*
X159484000Y-61361000D01*
X152642000Y-61401000D02*
X155070000Y-61401000D01*
X157030000Y-61401000D02*
X159458000Y-61401000D01*
X152667000Y-61441000D02*
X155070000Y-61441000D01*
X157030000Y-61441000D02*
X159433000Y-61441000D01*
X152694000Y-61481000D02*
X155070000Y-61481000D01*
X157030000Y-61481000D02*
X159406000Y-61481000D01*
X152721000Y-61521000D02*
X155070000Y-61521000D01*
X157030000Y-61521000D02*
X159379000Y-61521000D01*
X152749000Y-61561000D02*
X155070000Y-61561000D01*
X157030000Y-61561000D02*
X159351000Y-61561000D01*
X152778000Y-61601000D02*
X155070000Y-61601000D01*
X157030000Y-61601000D02*
X159322000Y-61601000D01*
X152807000Y-61641000D02*
X155070000Y-61641000D01*
X157030000Y-61641000D02*
X159293000Y-61641000D01*
X152837000Y-61681000D02*
X155070000Y-61681000D01*
X157030000Y-61681000D02*
X159263000Y-61681000D01*
X152868000Y-61721000D02*
X155070000Y-61721000D01*
X157030000Y-61721000D02*
X159232000Y-61721000D01*
X152900000Y-61761000D02*
X155070000Y-61761000D01*
X157030000Y-61761000D02*
X159200000Y-61761000D01*
X152932000Y-61801000D02*
X155070000Y-61801000D01*
X157030000Y-61801000D02*
X159168000Y-61801000D01*
X152966000Y-61841000D02*
X155070000Y-61841000D01*
X157030000Y-61841000D02*
X159134000Y-61841000D01*
X153000000Y-61881000D02*
X155070000Y-61881000D01*
X157030000Y-61881000D02*
X159100000Y-61881000D01*
X153035000Y-61921000D02*
X155070000Y-61921000D01*
X157030000Y-61921000D02*
X159065000Y-61921000D01*
X153071000Y-61961000D02*
X159029000Y-61961000D01*
X153108000Y-62001000D02*
X158992000Y-62001000D01*
X153146000Y-62041000D02*
X158954000Y-62041000D01*
X153185000Y-62081000D02*
X158915000Y-62081000D01*
X153226000Y-62121000D02*
X158874000Y-62121000D01*
X153267000Y-62161000D02*
X158833000Y-62161000D01*
X153310000Y-62201000D02*
X158790000Y-62201000D01*
X153353000Y-62241000D02*
X158747000Y-62241000D01*
X153398000Y-62281000D02*
X158702000Y-62281000D01*
X153445000Y-62321000D02*
X158655000Y-62321000D01*
X153493000Y-62361000D02*
X158607000Y-62361000D01*
X153542000Y-62401000D02*
X158558000Y-62401000D01*
X153593000Y-62441000D02*
X158507000Y-62441000D01*
X153646000Y-62481000D02*
X158454000Y-62481000D01*
X153701000Y-62521000D02*
X158399000Y-62521000D01*
X153757000Y-62561000D02*
X158343000Y-62561000D01*
X153816000Y-62601000D02*
X158284000Y-62601000D01*
X153877000Y-62641000D02*
X158223000Y-62641000D01*
X153941000Y-62681000D02*
X158159000Y-62681000D01*
X154007000Y-62721000D02*
X158093000Y-62721000D01*
X154076000Y-62761000D02*
X158024000Y-62761000D01*
X154148000Y-62801000D02*
X157952000Y-62801000D01*
X154224000Y-62841000D02*
X157876000Y-62841000D01*
X154305000Y-62881000D02*
X157795000Y-62881000D01*
X154390000Y-62921000D02*
X157710000Y-62921000D01*
X154480000Y-62961000D02*
X157620000Y-62961000D01*
X154577000Y-63001000D02*
X157523000Y-63001000D01*
X154681000Y-63041000D02*
X157419000Y-63041000D01*
X154796000Y-63081000D02*
X157304000Y-63081000D01*
X154923000Y-63121000D02*
X157177000Y-63121000D01*
X155067000Y-63161000D02*
X157033000Y-63161000D01*
X155236000Y-63201000D02*
X156864000Y-63201000D01*
X155452000Y-63241000D02*
X156648000Y-63241000D01*
X155804000Y-63281000D02*
X156296000Y-63281000D01*
X156050000Y-55250000D02*
X156050000Y-56450000D01*
X155400000Y-55850000D02*
X156700000Y-55850000D01*
X132687549Y-132522347D02*
X132687549Y-124902347D01*
X126067549Y-132522347D02*
X126067549Y-124902347D01*
X132687549Y-132522347D02*
X126067549Y-132522347D01*
X132687549Y-124902347D02*
X126067549Y-124902347D01*
X116610000Y-99090000D02*
X108990000Y-99090000D01*
X116610000Y-105710000D02*
X108990000Y-105710000D01*
X116610000Y-99090000D02*
X116610000Y-105710000D01*
X108990000Y-99090000D02*
X108990000Y-105710000D01*
X113180000Y-43260000D02*
X113580000Y-43260000D01*
X112410000Y-47840000D02*
X113580000Y-47840000D01*
X116990000Y-47840000D02*
X115820000Y-47840000D01*
X116220000Y-43260000D02*
X115820000Y-43260000D01*
X116990000Y-44030000D02*
X116990000Y-47840000D01*
X116990000Y-44030000D02*
X116220000Y-43260000D01*
X112410000Y-44030000D02*
X112410000Y-47840000D01*
X112410000Y-44030000D02*
X113180000Y-43260000D01*
X104880000Y-43260000D02*
X105280000Y-43260000D01*
X104110000Y-47840000D02*
X105280000Y-47840000D01*
X108690000Y-47840000D02*
X107520000Y-47840000D01*
X107920000Y-43260000D02*
X107520000Y-43260000D01*
X108690000Y-44030000D02*
X108690000Y-47840000D01*
X108690000Y-44030000D02*
X107920000Y-43260000D01*
X104110000Y-44030000D02*
X104110000Y-47840000D01*
X104110000Y-44030000D02*
X104880000Y-43260000D01*
X108410000Y-99090000D02*
X100790000Y-99090000D01*
X108410000Y-105710000D02*
X100790000Y-105710000D01*
X108410000Y-99090000D02*
X108410000Y-105710000D01*
X100790000Y-99090000D02*
X100790000Y-105710000D01*
X28240000Y-66800000D02*
G75*
G03X28240000Y-66800000I-4090000J0D01*
G01*
X20100000Y-66800000D02*
X28200000Y-66800000D01*
X20100000Y-66840000D02*
X28200000Y-66840000D01*
X20100000Y-66880000D02*
X28200000Y-66880000D01*
X20101000Y-66920000D02*
X28199000Y-66920000D01*
X20103000Y-66960000D02*
X28197000Y-66960000D01*
X20104000Y-67000000D02*
X28196000Y-67000000D01*
X20107000Y-67040000D02*
X28193000Y-67040000D01*
X20109000Y-67080000D02*
X28191000Y-67080000D01*
X20112000Y-67120000D02*
X28188000Y-67120000D01*
X20115000Y-67160000D02*
X28185000Y-67160000D01*
X20119000Y-67200000D02*
X28181000Y-67200000D01*
X20123000Y-67240000D02*
X28177000Y-67240000D01*
X20128000Y-67280000D02*
X28172000Y-67280000D01*
X20133000Y-67320000D02*
X28167000Y-67320000D01*
X20138000Y-67360000D02*
X28162000Y-67360000D01*
X20144000Y-67400000D02*
X28156000Y-67400000D01*
X20150000Y-67440000D02*
X28150000Y-67440000D01*
X20156000Y-67480000D02*
X28144000Y-67480000D01*
X20163000Y-67521000D02*
X28137000Y-67521000D01*
X20171000Y-67561000D02*
X28129000Y-67561000D01*
X20179000Y-67601000D02*
X23170000Y-67601000D01*
X25130000Y-67601000D02*
X28121000Y-67601000D01*
X20187000Y-67641000D02*
X23170000Y-67641000D01*
X25130000Y-67641000D02*
X28113000Y-67641000D01*
X20195000Y-67681000D02*
X23170000Y-67681000D01*
X25130000Y-67681000D02*
X28105000Y-67681000D01*
X20204000Y-67721000D02*
X23170000Y-67721000D01*
X25130000Y-67721000D02*
X28096000Y-67721000D01*
X20214000Y-67761000D02*
X23170000Y-67761000D01*
X25130000Y-67761000D02*
X28086000Y-67761000D01*
X20224000Y-67801000D02*
X23170000Y-67801000D01*
X25130000Y-67801000D02*
X28076000Y-67801000D01*
X20234000Y-67841000D02*
X23170000Y-67841000D01*
X25130000Y-67841000D02*
X28066000Y-67841000D01*
X20245000Y-67881000D02*
X23170000Y-67881000D01*
X25130000Y-67881000D02*
X28055000Y-67881000D01*
X20256000Y-67921000D02*
X23170000Y-67921000D01*
X25130000Y-67921000D02*
X28044000Y-67921000D01*
X20267000Y-67961000D02*
X23170000Y-67961000D01*
X25130000Y-67961000D02*
X28033000Y-67961000D01*
X20280000Y-68001000D02*
X23170000Y-68001000D01*
X25130000Y-68001000D02*
X28020000Y-68001000D01*
X20292000Y-68041000D02*
X23170000Y-68041000D01*
X25130000Y-68041000D02*
X28008000Y-68041000D01*
X20305000Y-68081000D02*
X23170000Y-68081000D01*
X25130000Y-68081000D02*
X27995000Y-68081000D01*
X20318000Y-68121000D02*
X23170000Y-68121000D01*
X25130000Y-68121000D02*
X27982000Y-68121000D01*
X20332000Y-68161000D02*
X23170000Y-68161000D01*
X25130000Y-68161000D02*
X27968000Y-68161000D01*
X20347000Y-68201000D02*
X23170000Y-68201000D01*
X25130000Y-68201000D02*
X27953000Y-68201000D01*
X20361000Y-68241000D02*
X23170000Y-68241000D01*
X25130000Y-68241000D02*
X27939000Y-68241000D01*
X20377000Y-68281000D02*
X23170000Y-68281000D01*
X25130000Y-68281000D02*
X27923000Y-68281000D01*
X20392000Y-68321000D02*
X23170000Y-68321000D01*
X25130000Y-68321000D02*
X27908000Y-68321000D01*
X20409000Y-68361000D02*
X23170000Y-68361000D01*
X25130000Y-68361000D02*
X27891000Y-68361000D01*
X20425000Y-68401000D02*
X23170000Y-68401000D01*
X25130000Y-68401000D02*
X27875000Y-68401000D01*
X20443000Y-68441000D02*
X23170000Y-68441000D01*
X25130000Y-68441000D02*
X27857000Y-68441000D01*
X20460000Y-68481000D02*
X23170000Y-68481000D01*
X25130000Y-68481000D02*
X27840000Y-68481000D01*
X20479000Y-68521000D02*
X23170000Y-68521000D01*
X25130000Y-68521000D02*
X27821000Y-68521000D01*
X20498000Y-68561000D02*
X23170000Y-68561000D01*
X25130000Y-68561000D02*
X27802000Y-68561000D01*
X20517000Y-68601000D02*
X23170000Y-68601000D01*
X25130000Y-68601000D02*
X27783000Y-68601000D01*
X20537000Y-68641000D02*
X23170000Y-68641000D01*
X25130000Y-68641000D02*
X27763000Y-68641000D01*
X20557000Y-68681000D02*
X23170000Y-68681000D01*
X25130000Y-68681000D02*
X27743000Y-68681000D01*
X20578000Y-68721000D02*
X23170000Y-68721000D01*
X25130000Y-68721000D02*
X27722000Y-68721000D01*
X20600000Y-68761000D02*
X23170000Y-68761000D01*
X25130000Y-68761000D02*
X27700000Y-68761000D01*
X20622000Y-68801000D02*
X23170000Y-68801000D01*
X25130000Y-68801000D02*
X27678000Y-68801000D01*
X20645000Y-68841000D02*
X23170000Y-68841000D01*
X25130000Y-68841000D02*
X27655000Y-68841000D01*
X20668000Y-68881000D02*
X23170000Y-68881000D01*
X25130000Y-68881000D02*
X27632000Y-68881000D01*
X20692000Y-68921000D02*
X23170000Y-68921000D01*
X25130000Y-68921000D02*
X27608000Y-68921000D01*
X20716000Y-68961000D02*
X23170000Y-68961000D01*
X25130000Y-68961000D02*
X27584000Y-68961000D01*
X20742000Y-69001000D02*
X23170000Y-69001000D01*
X25130000Y-69001000D02*
X27558000Y-69001000D01*
X20767000Y-69041000D02*
X23170000Y-69041000D01*
X25130000Y-69041000D02*
X27533000Y-69041000D01*
X20794000Y-69081000D02*
X23170000Y-69081000D01*
X25130000Y-69081000D02*
X27506000Y-69081000D01*
X20821000Y-69121000D02*
X23170000Y-69121000D01*
X25130000Y-69121000D02*
X27479000Y-69121000D01*
X20849000Y-69161000D02*
X23170000Y-69161000D01*
X25130000Y-69161000D02*
X27451000Y-69161000D01*
X20878000Y-69201000D02*
X23170000Y-69201000D01*
X25130000Y-69201000D02*
X27422000Y-69201000D01*
X20907000Y-69241000D02*
X23170000Y-69241000D01*
X25130000Y-69241000D02*
X27393000Y-69241000D01*
X20937000Y-69281000D02*
X23170000Y-69281000D01*
X25130000Y-69281000D02*
X27363000Y-69281000D01*
X20968000Y-69321000D02*
X23170000Y-69321000D01*
X25130000Y-69321000D02*
X27332000Y-69321000D01*
X21000000Y-69361000D02*
X23170000Y-69361000D01*
X25130000Y-69361000D02*
X27300000Y-69361000D01*
X21032000Y-69401000D02*
X23170000Y-69401000D01*
X25130000Y-69401000D02*
X27268000Y-69401000D01*
X21066000Y-69441000D02*
X23170000Y-69441000D01*
X25130000Y-69441000D02*
X27234000Y-69441000D01*
X21100000Y-69481000D02*
X23170000Y-69481000D01*
X25130000Y-69481000D02*
X27200000Y-69481000D01*
X21135000Y-69521000D02*
X23170000Y-69521000D01*
X25130000Y-69521000D02*
X27165000Y-69521000D01*
X21171000Y-69561000D02*
X27129000Y-69561000D01*
X21208000Y-69601000D02*
X27092000Y-69601000D01*
X21246000Y-69641000D02*
X27054000Y-69641000D01*
X21285000Y-69681000D02*
X27015000Y-69681000D01*
X21326000Y-69721000D02*
X26974000Y-69721000D01*
X21367000Y-69761000D02*
X26933000Y-69761000D01*
X21410000Y-69801000D02*
X26890000Y-69801000D01*
X21453000Y-69841000D02*
X26847000Y-69841000D01*
X21498000Y-69881000D02*
X26802000Y-69881000D01*
X21545000Y-69921000D02*
X26755000Y-69921000D01*
X21593000Y-69961000D02*
X26707000Y-69961000D01*
X21642000Y-70001000D02*
X26658000Y-70001000D01*
X21693000Y-70041000D02*
X26607000Y-70041000D01*
X21746000Y-70081000D02*
X26554000Y-70081000D01*
X21801000Y-70121000D02*
X26499000Y-70121000D01*
X21857000Y-70161000D02*
X26443000Y-70161000D01*
X21916000Y-70201000D02*
X26384000Y-70201000D01*
X21977000Y-70241000D02*
X26323000Y-70241000D01*
X22041000Y-70281000D02*
X26259000Y-70281000D01*
X22107000Y-70321000D02*
X26193000Y-70321000D01*
X22176000Y-70361000D02*
X26124000Y-70361000D01*
X22248000Y-70401000D02*
X26052000Y-70401000D01*
X22324000Y-70441000D02*
X25976000Y-70441000D01*
X22405000Y-70481000D02*
X25895000Y-70481000D01*
X22490000Y-70521000D02*
X25810000Y-70521000D01*
X22580000Y-70561000D02*
X25720000Y-70561000D01*
X22677000Y-70601000D02*
X25623000Y-70601000D01*
X22781000Y-70641000D02*
X25519000Y-70641000D01*
X22896000Y-70681000D02*
X25404000Y-70681000D01*
X23023000Y-70721000D02*
X25277000Y-70721000D01*
X23167000Y-70761000D02*
X25133000Y-70761000D01*
X23336000Y-70801000D02*
X24964000Y-70801000D01*
X23552000Y-70841000D02*
X24748000Y-70841000D01*
X23904000Y-70881000D02*
X24396000Y-70881000D01*
X24150000Y-62850000D02*
X24150000Y-64050000D01*
X23500000Y-63450000D02*
X24800000Y-63450000D01*
X38310000Y-81344316D02*
X38310000Y-73724316D01*
X31690000Y-81344316D02*
X31690000Y-73724316D01*
X38310000Y-81344316D02*
X31690000Y-81344316D01*
X38310000Y-73724316D02*
X31690000Y-73724316D01*
X36940000Y-66800000D02*
G75*
G03X36940000Y-66800000I-4090000J0D01*
G01*
X28800000Y-66800000D02*
X36900000Y-66800000D01*
X28800000Y-66840000D02*
X36900000Y-66840000D01*
X28800000Y-66880000D02*
X36900000Y-66880000D01*
X28801000Y-66920000D02*
X36899000Y-66920000D01*
X28803000Y-66960000D02*
X36897000Y-66960000D01*
X28804000Y-67000000D02*
X36896000Y-67000000D01*
X28807000Y-67040000D02*
X36893000Y-67040000D01*
X28809000Y-67080000D02*
X36891000Y-67080000D01*
X28812000Y-67120000D02*
X36888000Y-67120000D01*
X28815000Y-67160000D02*
X36885000Y-67160000D01*
X28819000Y-67200000D02*
X36881000Y-67200000D01*
X28823000Y-67240000D02*
X36877000Y-67240000D01*
X28828000Y-67280000D02*
X36872000Y-67280000D01*
X28833000Y-67320000D02*
X36867000Y-67320000D01*
X28838000Y-67360000D02*
X36862000Y-67360000D01*
X28844000Y-67400000D02*
X36856000Y-67400000D01*
X28850000Y-67440000D02*
X36850000Y-67440000D01*
X28856000Y-67480000D02*
X36844000Y-67480000D01*
X28863000Y-67521000D02*
X36837000Y-67521000D01*
X28871000Y-67561000D02*
X36829000Y-67561000D01*
X28879000Y-67601000D02*
X31870000Y-67601000D01*
X33830000Y-67601000D02*
X36821000Y-67601000D01*
X28887000Y-67641000D02*
X31870000Y-67641000D01*
X33830000Y-67641000D02*
X36813000Y-67641000D01*
X28895000Y-67681000D02*
X31870000Y-67681000D01*
X33830000Y-67681000D02*
X36805000Y-67681000D01*
X28904000Y-67721000D02*
X31870000Y-67721000D01*
X33830000Y-67721000D02*
X36796000Y-67721000D01*
X28914000Y-67761000D02*
X31870000Y-67761000D01*
X33830000Y-67761000D02*
X36786000Y-67761000D01*
X28924000Y-67801000D02*
X31870000Y-67801000D01*
X33830000Y-67801000D02*
X36776000Y-67801000D01*
X28934000Y-67841000D02*
X31870000Y-67841000D01*
X33830000Y-67841000D02*
X36766000Y-67841000D01*
X28945000Y-67881000D02*
X31870000Y-67881000D01*
X33830000Y-67881000D02*
X36755000Y-67881000D01*
X28956000Y-67921000D02*
X31870000Y-67921000D01*
X33830000Y-67921000D02*
X36744000Y-67921000D01*
X28967000Y-67961000D02*
X31870000Y-67961000D01*
X33830000Y-67961000D02*
X36733000Y-67961000D01*
X28980000Y-68001000D02*
X31870000Y-68001000D01*
X33830000Y-68001000D02*
X36720000Y-68001000D01*
X28992000Y-68041000D02*
X31870000Y-68041000D01*
X33830000Y-68041000D02*
X36708000Y-68041000D01*
X29005000Y-68081000D02*
X31870000Y-68081000D01*
X33830000Y-68081000D02*
X36695000Y-68081000D01*
X29018000Y-68121000D02*
X31870000Y-68121000D01*
X33830000Y-68121000D02*
X36682000Y-68121000D01*
X29032000Y-68161000D02*
X31870000Y-68161000D01*
X33830000Y-68161000D02*
X36668000Y-68161000D01*
X29047000Y-68201000D02*
X31870000Y-68201000D01*
X33830000Y-68201000D02*
X36653000Y-68201000D01*
X29061000Y-68241000D02*
X31870000Y-68241000D01*
X33830000Y-68241000D02*
X36639000Y-68241000D01*
X29077000Y-68281000D02*
X31870000Y-68281000D01*
X33830000Y-68281000D02*
X36623000Y-68281000D01*
X29092000Y-68321000D02*
X31870000Y-68321000D01*
X33830000Y-68321000D02*
X36608000Y-68321000D01*
X29109000Y-68361000D02*
X31870000Y-68361000D01*
X33830000Y-68361000D02*
X36591000Y-68361000D01*
X29125000Y-68401000D02*
X31870000Y-68401000D01*
X33830000Y-68401000D02*
X36575000Y-68401000D01*
X29143000Y-68441000D02*
X31870000Y-68441000D01*
X33830000Y-68441000D02*
X36557000Y-68441000D01*
X29160000Y-68481000D02*
X31870000Y-68481000D01*
X33830000Y-68481000D02*
X36540000Y-68481000D01*
X29179000Y-68521000D02*
X31870000Y-68521000D01*
X33830000Y-68521000D02*
X36521000Y-68521000D01*
X29198000Y-68561000D02*
X31870000Y-68561000D01*
X33830000Y-68561000D02*
X36502000Y-68561000D01*
X29217000Y-68601000D02*
X31870000Y-68601000D01*
X33830000Y-68601000D02*
X36483000Y-68601000D01*
X29237000Y-68641000D02*
X31870000Y-68641000D01*
X33830000Y-68641000D02*
X36463000Y-68641000D01*
X29257000Y-68681000D02*
X31870000Y-68681000D01*
X33830000Y-68681000D02*
X36443000Y-68681000D01*
X29278000Y-68721000D02*
X31870000Y-68721000D01*
X33830000Y-68721000D02*
X36422000Y-68721000D01*
X29300000Y-68761000D02*
X31870000Y-68761000D01*
X33830000Y-68761000D02*
X36400000Y-68761000D01*
X29322000Y-68801000D02*
X31870000Y-68801000D01*
X33830000Y-68801000D02*
X36378000Y-68801000D01*
X29345000Y-68841000D02*
X31870000Y-68841000D01*
X33830000Y-68841000D02*
X36355000Y-68841000D01*
X29368000Y-68881000D02*
X31870000Y-68881000D01*
X33830000Y-68881000D02*
X36332000Y-68881000D01*
X29392000Y-68921000D02*
X31870000Y-68921000D01*
X33830000Y-68921000D02*
X36308000Y-68921000D01*
X29416000Y-68961000D02*
X31870000Y-68961000D01*
X33830000Y-68961000D02*
X36284000Y-68961000D01*
X29442000Y-69001000D02*
X31870000Y-69001000D01*
X33830000Y-69001000D02*
X36258000Y-69001000D01*
X29467000Y-69041000D02*
X31870000Y-69041000D01*
X33830000Y-69041000D02*
X36233000Y-69041000D01*
X29494000Y-69081000D02*
X31870000Y-69081000D01*
X33830000Y-69081000D02*
X36206000Y-69081000D01*
X29521000Y-69121000D02*
X31870000Y-69121000D01*
X33830000Y-69121000D02*
X36179000Y-69121000D01*
X29549000Y-69161000D02*
X31870000Y-69161000D01*
X33830000Y-69161000D02*
X36151000Y-69161000D01*
X29578000Y-69201000D02*
X31870000Y-69201000D01*
X33830000Y-69201000D02*
X36122000Y-69201000D01*
X29607000Y-69241000D02*
X31870000Y-69241000D01*
X33830000Y-69241000D02*
X36093000Y-69241000D01*
X29637000Y-69281000D02*
X31870000Y-69281000D01*
X33830000Y-69281000D02*
X36063000Y-69281000D01*
X29668000Y-69321000D02*
X31870000Y-69321000D01*
X33830000Y-69321000D02*
X36032000Y-69321000D01*
X29700000Y-69361000D02*
X31870000Y-69361000D01*
X33830000Y-69361000D02*
X36000000Y-69361000D01*
X29732000Y-69401000D02*
X31870000Y-69401000D01*
X33830000Y-69401000D02*
X35968000Y-69401000D01*
X29766000Y-69441000D02*
X31870000Y-69441000D01*
X33830000Y-69441000D02*
X35934000Y-69441000D01*
X29800000Y-69481000D02*
X31870000Y-69481000D01*
X33830000Y-69481000D02*
X35900000Y-69481000D01*
X29835000Y-69521000D02*
X31870000Y-69521000D01*
X33830000Y-69521000D02*
X35865000Y-69521000D01*
X29871000Y-69561000D02*
X35829000Y-69561000D01*
X29908000Y-69601000D02*
X35792000Y-69601000D01*
X29946000Y-69641000D02*
X35754000Y-69641000D01*
X29985000Y-69681000D02*
X35715000Y-69681000D01*
X30026000Y-69721000D02*
X35674000Y-69721000D01*
X30067000Y-69761000D02*
X35633000Y-69761000D01*
X30110000Y-69801000D02*
X35590000Y-69801000D01*
X30153000Y-69841000D02*
X35547000Y-69841000D01*
X30198000Y-69881000D02*
X35502000Y-69881000D01*
X30245000Y-69921000D02*
X35455000Y-69921000D01*
X30293000Y-69961000D02*
X35407000Y-69961000D01*
X30342000Y-70001000D02*
X35358000Y-70001000D01*
X30393000Y-70041000D02*
X35307000Y-70041000D01*
X30446000Y-70081000D02*
X35254000Y-70081000D01*
X30501000Y-70121000D02*
X35199000Y-70121000D01*
X30557000Y-70161000D02*
X35143000Y-70161000D01*
X30616000Y-70201000D02*
X35084000Y-70201000D01*
X30677000Y-70241000D02*
X35023000Y-70241000D01*
X30741000Y-70281000D02*
X34959000Y-70281000D01*
X30807000Y-70321000D02*
X34893000Y-70321000D01*
X30876000Y-70361000D02*
X34824000Y-70361000D01*
X30948000Y-70401000D02*
X34752000Y-70401000D01*
X31024000Y-70441000D02*
X34676000Y-70441000D01*
X31105000Y-70481000D02*
X34595000Y-70481000D01*
X31190000Y-70521000D02*
X34510000Y-70521000D01*
X31280000Y-70561000D02*
X34420000Y-70561000D01*
X31377000Y-70601000D02*
X34323000Y-70601000D01*
X31481000Y-70641000D02*
X34219000Y-70641000D01*
X31596000Y-70681000D02*
X34104000Y-70681000D01*
X31723000Y-70721000D02*
X33977000Y-70721000D01*
X31867000Y-70761000D02*
X33833000Y-70761000D01*
X32036000Y-70801000D02*
X33664000Y-70801000D01*
X32252000Y-70841000D02*
X33448000Y-70841000D01*
X32604000Y-70881000D02*
X33096000Y-70881000D01*
X32850000Y-62850000D02*
X32850000Y-64050000D01*
X32200000Y-63450000D02*
X33500000Y-63450000D01*
X100130000Y-43260000D02*
X100530000Y-43260000D01*
X99360000Y-47840000D02*
X100530000Y-47840000D01*
X103940000Y-47840000D02*
X102770000Y-47840000D01*
X103170000Y-43260000D02*
X102770000Y-43260000D01*
X103940000Y-44030000D02*
X103940000Y-47840000D01*
X103940000Y-44030000D02*
X103170000Y-43260000D01*
X99360000Y-44030000D02*
X99360000Y-47840000D01*
X99360000Y-44030000D02*
X100130000Y-43260000D01*
X53010000Y-85360000D02*
X53010000Y-77740000D01*
X46390000Y-85360000D02*
X46390000Y-77740000D01*
X53010000Y-85360000D02*
X46390000Y-85360000D01*
X53010000Y-77740000D02*
X46390000Y-77740000D01*
X53010000Y-77160000D02*
X53010000Y-69540000D01*
X46390000Y-77160000D02*
X46390000Y-69540000D01*
X53010000Y-77160000D02*
X46390000Y-77160000D01*
X53010000Y-69540000D02*
X46390000Y-69540000D01*
X91780000Y-43260000D02*
X92180000Y-43260000D01*
X91010000Y-47840000D02*
X92180000Y-47840000D01*
X95590000Y-47840000D02*
X94420000Y-47840000D01*
X94820000Y-43260000D02*
X94420000Y-43260000D01*
X95590000Y-44030000D02*
X95590000Y-47840000D01*
X95590000Y-44030000D02*
X94820000Y-43260000D01*
X91010000Y-44030000D02*
X91010000Y-47840000D01*
X91010000Y-44030000D02*
X91780000Y-43260000D01*
D13*
X133300000Y-176100000D02*
X130000000Y-176100000D01*
X130000000Y-176100000D02*
X130000000Y-167600000D01*
X130000000Y-167600000D02*
X142000000Y-167600000D01*
X142000000Y-167600000D02*
X142000000Y-176100000D01*
X142000000Y-176100000D02*
X133250000Y-176100000D01*
D12*
X35520000Y-173630000D02*
X38180000Y-173630000D01*
X35520000Y-158270000D02*
X38180000Y-158270000D01*
X38180000Y-171540000D02*
X38180000Y-167980000D01*
X38180000Y-166460000D02*
X38180000Y-162900000D01*
X38180000Y-161380000D02*
X38180000Y-158270000D01*
X35520000Y-173630000D02*
X35520000Y-170520000D01*
X38180000Y-173060000D02*
X39700000Y-173060000D01*
X38180000Y-173630000D02*
X38180000Y-173060000D01*
X35520000Y-158840000D02*
X35520000Y-158270000D01*
X35520000Y-169000000D02*
X35520000Y-165440000D01*
X35520000Y-163920000D02*
X35520000Y-160360000D01*
D13*
X141050000Y-28600000D02*
X141050000Y-22900000D01*
X141050000Y-22900000D02*
X119150000Y-22900000D01*
X119150000Y-22900000D02*
X119150000Y-28600000D01*
X142550000Y-53100000D02*
X117550000Y-53100000D01*
X117550000Y-53100000D02*
X117550000Y-28600000D01*
X117550000Y-28600000D02*
X142550000Y-28600000D01*
X142550000Y-28600000D02*
X142550000Y-53100000D01*
X167050000Y-28600000D02*
X167050000Y-22900000D01*
X167050000Y-22900000D02*
X145150000Y-22900000D01*
X145150000Y-22900000D02*
X145150000Y-28600000D01*
X168550000Y-53100000D02*
X143550000Y-53100000D01*
X143550000Y-53100000D02*
X143550000Y-28600000D01*
X143550000Y-28600000D02*
X168550000Y-28600000D01*
X168550000Y-28600000D02*
X168550000Y-53100000D01*
X113550000Y-28600000D02*
X113550000Y-26800000D01*
X113550000Y-26800000D02*
X107550000Y-26800000D01*
X107550000Y-26800000D02*
X107550000Y-28600000D01*
X104550000Y-42100000D02*
X116550000Y-42100000D01*
X116550000Y-42100000D02*
X116550000Y-29800000D01*
X116550000Y-29800000D02*
X115550000Y-29800000D01*
X115550000Y-29800000D02*
X115550000Y-28600000D01*
X115550000Y-28600000D02*
X112550000Y-28600000D01*
X112550000Y-28600000D02*
X112550000Y-29800000D01*
X112550000Y-29800000D02*
X108550000Y-29800000D01*
X108550000Y-29800000D02*
X108550000Y-28600000D01*
X108550000Y-28600000D02*
X105550000Y-28600000D01*
X105550000Y-28600000D02*
X105550000Y-29800000D01*
X105550000Y-29800000D02*
X104550000Y-29800000D01*
X104550000Y-29800000D02*
X104550000Y-42100000D01*
X100550000Y-28600000D02*
X100550000Y-26800000D01*
X100550000Y-26800000D02*
X94550000Y-26800000D01*
X94550000Y-26800000D02*
X94550000Y-28600000D01*
X91550000Y-42100000D02*
X103550000Y-42100000D01*
X103550000Y-42100000D02*
X103550000Y-29800000D01*
X103550000Y-29800000D02*
X102550000Y-29800000D01*
X102550000Y-29800000D02*
X102550000Y-28600000D01*
X102550000Y-28600000D02*
X99550000Y-28600000D01*
X99550000Y-28600000D02*
X99550000Y-29800000D01*
X99550000Y-29800000D02*
X95550000Y-29800000D01*
X95550000Y-29800000D02*
X95550000Y-28600000D01*
X95550000Y-28600000D02*
X92550000Y-28600000D01*
X92550000Y-28600000D02*
X92550000Y-29800000D01*
X92550000Y-29800000D02*
X91550000Y-29800000D01*
X91550000Y-29800000D02*
X91550000Y-42100000D01*
X22800000Y-28600000D02*
X22800000Y-19750000D01*
X22800000Y-19750000D02*
X34000000Y-19750000D01*
X34000000Y-19750000D02*
X34000000Y-28600000D01*
X37500000Y-28600000D02*
X19300000Y-28600000D01*
X19300000Y-28600000D02*
X19300000Y-52600000D01*
X19300000Y-52600000D02*
X37500000Y-52600000D01*
X37500000Y-52600000D02*
X37500000Y-28600000D01*
D14*
G36*
X160440667Y-120472869D02*
X160441251Y-120665048D01*
X160442915Y-120852293D01*
X160445524Y-121028401D01*
X160448944Y-121187171D01*
X160453041Y-121322399D01*
X160457680Y-121427885D01*
X160462727Y-121497424D01*
X160462881Y-121498876D01*
X160520255Y-121838249D01*
X160617269Y-122162893D01*
X160753599Y-122471985D01*
X160928920Y-122764703D01*
X161003523Y-122868583D01*
X161038441Y-122909961D01*
X161100537Y-122977976D01*
X161186831Y-123069560D01*
X161294341Y-123181643D01*
X161420087Y-123311154D01*
X161561088Y-123455025D01*
X161714363Y-123610187D01*
X161876931Y-123773569D01*
X162045811Y-123942102D01*
X162053108Y-123949357D01*
X162245179Y-124140183D01*
X162409860Y-124303431D01*
X162549703Y-124441448D01*
X162667259Y-124556579D01*
X162765081Y-124651173D01*
X162845720Y-124727577D01*
X162911729Y-124788137D01*
X162965660Y-124835200D01*
X163010064Y-124871114D01*
X163047495Y-124898226D01*
X163080503Y-124918883D01*
X163111641Y-124935432D01*
X163139417Y-124948413D01*
X163236074Y-124986005D01*
X163341747Y-125018380D01*
X163425167Y-125036938D01*
X163485951Y-125042924D01*
X163582066Y-125047792D01*
X163706581Y-125051550D01*
X163852563Y-125054205D01*
X164013079Y-125055764D01*
X164181197Y-125056234D01*
X164349985Y-125055624D01*
X164512511Y-125053939D01*
X164661841Y-125051189D01*
X164791044Y-125047379D01*
X164893186Y-125042518D01*
X164961337Y-125036612D01*
X164970333Y-125035297D01*
X165154206Y-124984456D01*
X165327087Y-124897014D01*
X165483756Y-124778308D01*
X165618991Y-124633676D01*
X165727570Y-124468457D01*
X165804272Y-124287986D01*
X165837217Y-124149167D01*
X165848028Y-124051209D01*
X165855012Y-123925514D01*
X165858265Y-123782796D01*
X165857882Y-123633770D01*
X165853959Y-123489148D01*
X165846592Y-123359645D01*
X165835876Y-123255976D01*
X165828888Y-123215251D01*
X165766525Y-123019251D01*
X165668644Y-122840393D01*
X165539916Y-122683148D01*
X165385016Y-122551983D01*
X165208617Y-122451368D01*
X165015391Y-122385773D01*
X164947540Y-122372379D01*
X164892552Y-122366901D01*
X164801666Y-122361909D01*
X164681318Y-122357578D01*
X164537943Y-122354084D01*
X164377976Y-122351601D01*
X164207851Y-122350307D01*
X164133406Y-122350160D01*
X163924561Y-122349722D01*
X163752670Y-122348068D01*
X163612355Y-122344529D01*
X163498238Y-122338432D01*
X163404944Y-122329106D01*
X163327095Y-122315881D01*
X163259313Y-122298085D01*
X163196223Y-122275048D01*
X163132447Y-122246098D01*
X163077641Y-122218396D01*
X163050189Y-122202283D01*
X163016650Y-122178695D01*
X162975035Y-122145739D01*
X162923354Y-122101521D01*
X162859620Y-122044149D01*
X162781842Y-121971730D01*
X162688034Y-121882369D01*
X162576204Y-121774174D01*
X162444366Y-121645251D01*
X162290529Y-121493708D01*
X162112706Y-121317651D01*
X161908906Y-121115186D01*
X161694792Y-120902008D01*
X160440667Y-119652403D01*
X160440667Y-120472869D01*
X160440667Y-120472869D01*
G37*
X160440667Y-120472869D02*
X160441251Y-120665048D01*
X160442915Y-120852293D01*
X160445524Y-121028401D01*
X160448944Y-121187171D01*
X160453041Y-121322399D01*
X160457680Y-121427885D01*
X160462727Y-121497424D01*
X160462881Y-121498876D01*
X160520255Y-121838249D01*
X160617269Y-122162893D01*
X160753599Y-122471985D01*
X160928920Y-122764703D01*
X161003523Y-122868583D01*
X161038441Y-122909961D01*
X161100537Y-122977976D01*
X161186831Y-123069560D01*
X161294341Y-123181643D01*
X161420087Y-123311154D01*
X161561088Y-123455025D01*
X161714363Y-123610187D01*
X161876931Y-123773569D01*
X162045811Y-123942102D01*
X162053108Y-123949357D01*
X162245179Y-124140183D01*
X162409860Y-124303431D01*
X162549703Y-124441448D01*
X162667259Y-124556579D01*
X162765081Y-124651173D01*
X162845720Y-124727577D01*
X162911729Y-124788137D01*
X162965660Y-124835200D01*
X163010064Y-124871114D01*
X163047495Y-124898226D01*
X163080503Y-124918883D01*
X163111641Y-124935432D01*
X163139417Y-124948413D01*
X163236074Y-124986005D01*
X163341747Y-125018380D01*
X163425167Y-125036938D01*
X163485951Y-125042924D01*
X163582066Y-125047792D01*
X163706581Y-125051550D01*
X163852563Y-125054205D01*
X164013079Y-125055764D01*
X164181197Y-125056234D01*
X164349985Y-125055624D01*
X164512511Y-125053939D01*
X164661841Y-125051189D01*
X164791044Y-125047379D01*
X164893186Y-125042518D01*
X164961337Y-125036612D01*
X164970333Y-125035297D01*
X165154206Y-124984456D01*
X165327087Y-124897014D01*
X165483756Y-124778308D01*
X165618991Y-124633676D01*
X165727570Y-124468457D01*
X165804272Y-124287986D01*
X165837217Y-124149167D01*
X165848028Y-124051209D01*
X165855012Y-123925514D01*
X165858265Y-123782796D01*
X165857882Y-123633770D01*
X165853959Y-123489148D01*
X165846592Y-123359645D01*
X165835876Y-123255976D01*
X165828888Y-123215251D01*
X165766525Y-123019251D01*
X165668644Y-122840393D01*
X165539916Y-122683148D01*
X165385016Y-122551983D01*
X165208617Y-122451368D01*
X165015391Y-122385773D01*
X164947540Y-122372379D01*
X164892552Y-122366901D01*
X164801666Y-122361909D01*
X164681318Y-122357578D01*
X164537943Y-122354084D01*
X164377976Y-122351601D01*
X164207851Y-122350307D01*
X164133406Y-122350160D01*
X163924561Y-122349722D01*
X163752670Y-122348068D01*
X163612355Y-122344529D01*
X163498238Y-122338432D01*
X163404944Y-122329106D01*
X163327095Y-122315881D01*
X163259313Y-122298085D01*
X163196223Y-122275048D01*
X163132447Y-122246098D01*
X163077641Y-122218396D01*
X163050189Y-122202283D01*
X163016650Y-122178695D01*
X162975035Y-122145739D01*
X162923354Y-122101521D01*
X162859620Y-122044149D01*
X162781842Y-121971730D01*
X162688034Y-121882369D01*
X162576204Y-121774174D01*
X162444366Y-121645251D01*
X162290529Y-121493708D01*
X162112706Y-121317651D01*
X161908906Y-121115186D01*
X161694792Y-120902008D01*
X160440667Y-119652403D01*
X160440667Y-120472869D01*
D13*
X116781429Y-42399048D02*
X116781429Y-43160953D01*
X117162381Y-42780001D02*
X116400476Y-42780001D01*
X108481429Y-42399048D02*
X108481429Y-43160953D01*
X108862381Y-42780001D02*
X108100476Y-42780001D01*
X103731429Y-42399048D02*
X103731429Y-43160953D01*
X104112381Y-42780001D02*
X103350476Y-42780001D01*
X95381429Y-42399048D02*
X95381429Y-43160953D01*
X95762381Y-42780001D02*
X95000476Y-42780001D01*
X130402381Y-171264286D02*
X131116667Y-171264286D01*
X131259524Y-171216666D01*
X131354762Y-171121428D01*
X131402381Y-170978571D01*
X131402381Y-170883333D01*
X130402381Y-172216667D02*
X130402381Y-171740476D01*
X130878571Y-171692857D01*
X130830952Y-171740476D01*
X130783333Y-171835714D01*
X130783333Y-172073810D01*
X130830952Y-172169048D01*
X130878571Y-172216667D01*
X130973810Y-172264286D01*
X131211905Y-172264286D01*
X131307143Y-172216667D01*
X131354762Y-172169048D01*
X131402381Y-172073810D01*
X131402381Y-171835714D01*
X131354762Y-171740476D01*
X131307143Y-171692857D01*
X130402381Y-172883333D02*
X130402381Y-172978572D01*
X130450000Y-173073810D01*
X130497619Y-173121429D01*
X130592857Y-173169048D01*
X130783333Y-173216667D01*
X131021429Y-173216667D01*
X131211905Y-173169048D01*
X131307143Y-173121429D01*
X131354762Y-173073810D01*
X131402381Y-172978572D01*
X131402381Y-172883333D01*
X131354762Y-172788095D01*
X131307143Y-172740476D01*
X131211905Y-172692857D01*
X131021429Y-172645238D01*
X130783333Y-172645238D01*
X130592857Y-172692857D01*
X130497619Y-172740476D01*
X130450000Y-172788095D01*
X130402381Y-172883333D01*
X131402381Y-174169048D02*
X131402381Y-173597619D01*
X131402381Y-173883333D02*
X130402381Y-173883333D01*
X130545238Y-173788095D01*
X130640476Y-173692857D01*
X130688095Y-173597619D01*
X38135714Y-174082381D02*
X38135714Y-174796667D01*
X38183334Y-174939524D01*
X38278572Y-175034762D01*
X38421429Y-175082381D01*
X38516667Y-175082381D01*
X37516667Y-174510952D02*
X37611905Y-174463333D01*
X37659524Y-174415714D01*
X37707143Y-174320476D01*
X37707143Y-174272857D01*
X37659524Y-174177619D01*
X37611905Y-174130000D01*
X37516667Y-174082381D01*
X37326190Y-174082381D01*
X37230952Y-174130000D01*
X37183333Y-174177619D01*
X37135714Y-174272857D01*
X37135714Y-174320476D01*
X37183333Y-174415714D01*
X37230952Y-174463333D01*
X37326190Y-174510952D01*
X37516667Y-174510952D01*
X37611905Y-174558571D01*
X37659524Y-174606190D01*
X37707143Y-174701429D01*
X37707143Y-174891905D01*
X37659524Y-174987143D01*
X37611905Y-175034762D01*
X37516667Y-175082381D01*
X37326190Y-175082381D01*
X37230952Y-175034762D01*
X37183333Y-174987143D01*
X37135714Y-174891905D01*
X37135714Y-174701429D01*
X37183333Y-174606190D01*
X37230952Y-174558571D01*
X37326190Y-174510952D01*
X36516667Y-174082381D02*
X36421428Y-174082381D01*
X36326190Y-174130000D01*
X36278571Y-174177619D01*
X36230952Y-174272857D01*
X36183333Y-174463333D01*
X36183333Y-174701429D01*
X36230952Y-174891905D01*
X36278571Y-174987143D01*
X36326190Y-175034762D01*
X36421428Y-175082381D01*
X36516667Y-175082381D01*
X36611905Y-175034762D01*
X36659524Y-174987143D01*
X36707143Y-174891905D01*
X36754762Y-174701429D01*
X36754762Y-174463333D01*
X36707143Y-174272857D01*
X36659524Y-174177619D01*
X36611905Y-174130000D01*
X36516667Y-174082381D01*
X35230952Y-175082381D02*
X35802381Y-175082381D01*
X35516667Y-175082381D02*
X35516667Y-174082381D01*
X35611905Y-174225238D01*
X35707143Y-174320476D01*
X35802381Y-174368095D01*
X131811905Y-29752381D02*
X131145238Y-30752381D01*
X131145238Y-29752381D02*
X131811905Y-30752381D01*
X130811905Y-29847619D02*
X130764286Y-29800000D01*
X130669048Y-29752381D01*
X130430952Y-29752381D01*
X130335714Y-29800000D01*
X130288095Y-29847619D01*
X130240476Y-29942857D01*
X130240476Y-30038095D01*
X130288095Y-30180952D01*
X130859524Y-30752381D01*
X130240476Y-30752381D01*
X129621429Y-29752381D02*
X129526190Y-29752381D01*
X129430952Y-29800000D01*
X129383333Y-29847619D01*
X129335714Y-29942857D01*
X129288095Y-30133333D01*
X129288095Y-30371429D01*
X129335714Y-30561905D01*
X129383333Y-30657143D01*
X129430952Y-30704762D01*
X129526190Y-30752381D01*
X129621429Y-30752381D01*
X129716667Y-30704762D01*
X129764286Y-30657143D01*
X129811905Y-30561905D01*
X129859524Y-30371429D01*
X129859524Y-30133333D01*
X129811905Y-29942857D01*
X129764286Y-29847619D01*
X129716667Y-29800000D01*
X129621429Y-29752381D01*
X128335714Y-30752381D02*
X128907143Y-30752381D01*
X128621429Y-30752381D02*
X128621429Y-29752381D01*
X128716667Y-29895238D01*
X128811905Y-29990476D01*
X128907143Y-30038095D01*
X157811905Y-29752381D02*
X157145238Y-30752381D01*
X157145238Y-29752381D02*
X157811905Y-30752381D01*
X156811905Y-29847619D02*
X156764286Y-29800000D01*
X156669048Y-29752381D01*
X156430952Y-29752381D01*
X156335714Y-29800000D01*
X156288095Y-29847619D01*
X156240476Y-29942857D01*
X156240476Y-30038095D01*
X156288095Y-30180952D01*
X156859524Y-30752381D01*
X156240476Y-30752381D01*
X155621429Y-29752381D02*
X155526190Y-29752381D01*
X155430952Y-29800000D01*
X155383333Y-29847619D01*
X155335714Y-29942857D01*
X155288095Y-30133333D01*
X155288095Y-30371429D01*
X155335714Y-30561905D01*
X155383333Y-30657143D01*
X155430952Y-30704762D01*
X155526190Y-30752381D01*
X155621429Y-30752381D01*
X155716667Y-30704762D01*
X155764286Y-30657143D01*
X155811905Y-30561905D01*
X155859524Y-30371429D01*
X155859524Y-30133333D01*
X155811905Y-29942857D01*
X155764286Y-29847619D01*
X155716667Y-29800000D01*
X155621429Y-29752381D01*
X154907143Y-29847619D02*
X154859524Y-29800000D01*
X154764286Y-29752381D01*
X154526190Y-29752381D01*
X154430952Y-29800000D01*
X154383333Y-29847619D01*
X154335714Y-29942857D01*
X154335714Y-30038095D01*
X154383333Y-30180952D01*
X154954762Y-30752381D01*
X154335714Y-30752381D01*
X112311905Y-30202381D02*
X111645238Y-31202381D01*
X111645238Y-30202381D02*
X112311905Y-31202381D01*
X111311905Y-30297619D02*
X111264286Y-30250000D01*
X111169048Y-30202381D01*
X110930952Y-30202381D01*
X110835714Y-30250000D01*
X110788095Y-30297619D01*
X110740476Y-30392857D01*
X110740476Y-30488095D01*
X110788095Y-30630952D01*
X111359524Y-31202381D01*
X110740476Y-31202381D01*
X110121429Y-30202381D02*
X110026190Y-30202381D01*
X109930952Y-30250000D01*
X109883333Y-30297619D01*
X109835714Y-30392857D01*
X109788095Y-30583333D01*
X109788095Y-30821429D01*
X109835714Y-31011905D01*
X109883333Y-31107143D01*
X109930952Y-31154762D01*
X110026190Y-31202381D01*
X110121429Y-31202381D01*
X110216667Y-31154762D01*
X110264286Y-31107143D01*
X110311905Y-31011905D01*
X110359524Y-30821429D01*
X110359524Y-30583333D01*
X110311905Y-30392857D01*
X110264286Y-30297619D01*
X110216667Y-30250000D01*
X110121429Y-30202381D01*
X109454762Y-30202381D02*
X108835714Y-30202381D01*
X109169048Y-30583333D01*
X109026190Y-30583333D01*
X108930952Y-30630952D01*
X108883333Y-30678571D01*
X108835714Y-30773810D01*
X108835714Y-31011905D01*
X108883333Y-31107143D01*
X108930952Y-31154762D01*
X109026190Y-31202381D01*
X109311905Y-31202381D01*
X109407143Y-31154762D01*
X109454762Y-31107143D01*
X99311905Y-30202381D02*
X98645238Y-31202381D01*
X98645238Y-30202381D02*
X99311905Y-31202381D01*
X98359524Y-30202381D02*
X97740476Y-30202381D01*
X98073810Y-30583333D01*
X97930952Y-30583333D01*
X97835714Y-30630952D01*
X97788095Y-30678571D01*
X97740476Y-30773810D01*
X97740476Y-31011905D01*
X97788095Y-31107143D01*
X97835714Y-31154762D01*
X97930952Y-31202381D01*
X98216667Y-31202381D01*
X98311905Y-31154762D01*
X98359524Y-31107143D01*
X97121429Y-30202381D02*
X97026190Y-30202381D01*
X96930952Y-30250000D01*
X96883333Y-30297619D01*
X96835714Y-30392857D01*
X96788095Y-30583333D01*
X96788095Y-30821429D01*
X96835714Y-31011905D01*
X96883333Y-31107143D01*
X96930952Y-31154762D01*
X97026190Y-31202381D01*
X97121429Y-31202381D01*
X97216667Y-31154762D01*
X97264286Y-31107143D01*
X97311905Y-31011905D01*
X97359524Y-30821429D01*
X97359524Y-30583333D01*
X97311905Y-30392857D01*
X97264286Y-30297619D01*
X97216667Y-30250000D01*
X97121429Y-30202381D01*
X95835714Y-31202381D02*
X96407143Y-31202381D01*
X96121429Y-31202381D02*
X96121429Y-30202381D01*
X96216667Y-30345238D01*
X96311905Y-30440476D01*
X96407143Y-30488095D01*
X29685714Y-28952381D02*
X29685714Y-29666667D01*
X29733334Y-29809524D01*
X29828572Y-29904762D01*
X29971429Y-29952381D01*
X30066667Y-29952381D01*
X29304762Y-28952381D02*
X28685714Y-28952381D01*
X29019048Y-29333333D01*
X28876190Y-29333333D01*
X28780952Y-29380952D01*
X28733333Y-29428571D01*
X28685714Y-29523810D01*
X28685714Y-29761905D01*
X28733333Y-29857143D01*
X28780952Y-29904762D01*
X28876190Y-29952381D01*
X29161905Y-29952381D01*
X29257143Y-29904762D01*
X29304762Y-29857143D01*
X28066667Y-28952381D02*
X27971428Y-28952381D01*
X27876190Y-29000000D01*
X27828571Y-29047619D01*
X27780952Y-29142857D01*
X27733333Y-29333333D01*
X27733333Y-29571429D01*
X27780952Y-29761905D01*
X27828571Y-29857143D01*
X27876190Y-29904762D01*
X27971428Y-29952381D01*
X28066667Y-29952381D01*
X28161905Y-29904762D01*
X28209524Y-29857143D01*
X28257143Y-29761905D01*
X28304762Y-29571429D01*
X28304762Y-29333333D01*
X28257143Y-29142857D01*
X28209524Y-29047619D01*
X28161905Y-29000000D01*
X28066667Y-28952381D01*
X26780952Y-29952381D02*
X27352381Y-29952381D01*
X27066667Y-29952381D02*
X27066667Y-28952381D01*
X27161905Y-29095238D01*
X27257143Y-29190476D01*
X27352381Y-29238095D01*
M02*
