G04 #@! TF.FileFunction,Paste,Top*
%FSLAX46Y46*%
G04 Gerber Fmt 4.6, Leading zero omitted, Abs format (unit mm)*
G04 Created by KiCad (PCBNEW 4.0.7) date 04/23/18 16:21:46*
%MOMM*%
%LPD*%
G01*
G04 APERTURE LIST*
%ADD10C,0.100000*%
%ADD11R,1.600000X2.600000*%
%ADD12R,0.800000X0.750000*%
%ADD13R,1.000000X1.250000*%
%ADD14R,0.750000X0.800000*%
%ADD15R,1.250000X1.000000*%
%ADD16R,1.000000X1.600000*%
%ADD17R,1.000000X2.500000*%
%ADD18R,0.800000X0.900000*%
%ADD19R,0.900000X0.800000*%
%ADD20R,1.100000X1.100000*%
%ADD21R,2.500000X1.800000*%
%ADD22R,1.400000X1.000000*%
%ADD23R,2.500000X2.300000*%
%ADD24R,0.900000X0.500000*%
%ADD25C,4.100000*%
%ADD26R,0.500000X0.900000*%
%ADD27R,1.300000X0.700000*%
%ADD28R,0.800000X2.000000*%
%ADD29R,2.450000X5.900000*%
%ADD30R,1.200000X0.900000*%
%ADD31R,0.700000X0.510000*%
%ADD32R,0.700000X1.300000*%
%ADD33R,1.400000X2.100000*%
%ADD34R,1.450000X0.450000*%
%ADD35R,0.250000X0.750000*%
%ADD36R,1.550000X0.600000*%
%ADD37R,0.650000X0.350000*%
%ADD38R,0.600000X0.480000*%
%ADD39R,1.060000X0.650000*%
%ADD40R,0.890000X0.420000*%
%ADD41R,0.504000X0.564000*%
%ADD42R,3.100000X2.600000*%
%ADD43R,0.600000X1.550000*%
%ADD44R,0.300000X0.500000*%
%ADD45R,0.528000X0.636000*%
%ADD46R,1.500000X0.900000*%
%ADD47R,0.900000X1.500000*%
%ADD48R,0.600000X2.000000*%
%ADD49R,2.300000X3.200000*%
%ADD50R,0.400000X1.500000*%
%ADD51R,0.450000X1.450000*%
G04 APERTURE END LIST*
D10*
D11*
X134800000Y-57350000D03*
X134800000Y-60950000D03*
X117800000Y-57350000D03*
X117800000Y-60950000D03*
D12*
X135450000Y-86150000D03*
X133950000Y-86150000D03*
D11*
X160400000Y-57350000D03*
X160400000Y-60950000D03*
X151700000Y-57350000D03*
X151700000Y-60950000D03*
D12*
X42800000Y-81800000D03*
X41300000Y-81800000D03*
D13*
X134050000Y-87600000D03*
X136050000Y-87600000D03*
D14*
X99250000Y-59500000D03*
X99250000Y-58000000D03*
X108500000Y-53250000D03*
X108500000Y-54750000D03*
D13*
X41400000Y-83250000D03*
X43400000Y-83250000D03*
D15*
X97750000Y-58100000D03*
X97750000Y-60100000D03*
D14*
X81900000Y-164700000D03*
X81900000Y-166200000D03*
D15*
X86000000Y-166100000D03*
X86000000Y-164100000D03*
D14*
X87500000Y-164700000D03*
X87500000Y-166200000D03*
D12*
X93250000Y-162950000D03*
X94750000Y-162950000D03*
D16*
X91450000Y-158950000D03*
X88450000Y-158950000D03*
D13*
X96150000Y-161500000D03*
X98150000Y-161500000D03*
D15*
X100000000Y-162250000D03*
X100000000Y-160250000D03*
D12*
X136500000Y-157550000D03*
X138000000Y-157550000D03*
D13*
X137900000Y-156100000D03*
X135900000Y-156100000D03*
X139150000Y-165200000D03*
X141150000Y-165200000D03*
D12*
X139850000Y-172150000D03*
X141350000Y-172150000D03*
D15*
X136200000Y-170800000D03*
X136200000Y-168800000D03*
D14*
X127000000Y-172000000D03*
X127000000Y-170500000D03*
X48950000Y-112550000D03*
X48950000Y-111050000D03*
D12*
X36650000Y-122550000D03*
X38150000Y-122550000D03*
X36650000Y-123750000D03*
X38150000Y-123750000D03*
X48150000Y-99300000D03*
X46650000Y-99300000D03*
D17*
X45250000Y-103050000D03*
X48250000Y-103050000D03*
X45250000Y-106050000D03*
X48250000Y-106050000D03*
D14*
X44500000Y-119250000D03*
X44500000Y-117750000D03*
D12*
X46000000Y-116450000D03*
X44500000Y-116450000D03*
D14*
X41550000Y-110750000D03*
X41550000Y-109250000D03*
D13*
X78650000Y-177400000D03*
X80650000Y-177400000D03*
D12*
X77850000Y-163850000D03*
X79350000Y-163850000D03*
D13*
X79250000Y-167950000D03*
X77250000Y-167950000D03*
D12*
X77850000Y-169400000D03*
X79350000Y-169400000D03*
X82250000Y-173950000D03*
X80750000Y-173950000D03*
X30250000Y-133250000D03*
X28750000Y-133250000D03*
D14*
X102700000Y-139750000D03*
X102700000Y-141250000D03*
D12*
X161000000Y-133300000D03*
X159500000Y-133300000D03*
X25950000Y-133250000D03*
X27450000Y-133250000D03*
D14*
X84200000Y-139700000D03*
X84200000Y-141200000D03*
D12*
X156700000Y-133300000D03*
X158200000Y-133300000D03*
D14*
X36150000Y-148450000D03*
X36150000Y-149950000D03*
X102700000Y-146650000D03*
X102700000Y-148150000D03*
X163200000Y-156050000D03*
X163200000Y-154550000D03*
D12*
X28950000Y-168050000D03*
X27450000Y-168050000D03*
X102650000Y-172700000D03*
X101150000Y-172700000D03*
D14*
X160861701Y-165193934D03*
X160861701Y-166693934D03*
X76100000Y-175900000D03*
X76100000Y-177400000D03*
X70800000Y-175900000D03*
X70800000Y-177400000D03*
X69600000Y-175900000D03*
X69600000Y-177400000D03*
X72100000Y-172650000D03*
X72100000Y-171150000D03*
X38350000Y-146000000D03*
X38350000Y-144500000D03*
D18*
X128750000Y-75050000D03*
X126850000Y-75050000D03*
X127800000Y-77050000D03*
D10*
G36*
X119774212Y-108788172D02*
X119208526Y-108222486D01*
X119844922Y-107586090D01*
X120410608Y-108151776D01*
X119774212Y-108788172D01*
X119774212Y-108788172D01*
G37*
G36*
X121117715Y-110131675D02*
X120552029Y-109565989D01*
X121188425Y-108929593D01*
X121754111Y-109495279D01*
X121117715Y-110131675D01*
X121117715Y-110131675D01*
G37*
G36*
X121860177Y-108045710D02*
X121294491Y-107480024D01*
X121930887Y-106843628D01*
X122496573Y-107409314D01*
X121860177Y-108045710D01*
X121860177Y-108045710D01*
G37*
D18*
X142500000Y-75100000D03*
X140600000Y-75100000D03*
X141550000Y-77100000D03*
D19*
X126177550Y-127762347D03*
X126177550Y-129662347D03*
X128177550Y-128712347D03*
D18*
X107800000Y-105750000D03*
X109700000Y-105750000D03*
X108750000Y-103750000D03*
X29450000Y-68550000D03*
X27550000Y-68550000D03*
X28500000Y-70550000D03*
X96500000Y-48200000D03*
X98400000Y-48200000D03*
X97450000Y-46200000D03*
D20*
X91050000Y-160750000D03*
X91050000Y-163550000D03*
X93350000Y-158700000D03*
X93350000Y-161500000D03*
X98100000Y-159050000D03*
X95300000Y-159050000D03*
D21*
X123100000Y-170000000D03*
X119100000Y-170000000D03*
D22*
X46530000Y-56075000D03*
X46530000Y-49925000D03*
X49070000Y-49925000D03*
X49070000Y-56075000D03*
D21*
X48300000Y-117700000D03*
X52300000Y-117700000D03*
D23*
X45650000Y-59450000D03*
X49950000Y-59450000D03*
D24*
X49400000Y-46950000D03*
X49400000Y-48450000D03*
D25*
X65300000Y-107000000D03*
D26*
X83100000Y-166150000D03*
X84600000Y-166150000D03*
D27*
X89150000Y-164300000D03*
X89150000Y-166200000D03*
D28*
X135650000Y-165550000D03*
X137650000Y-165550000D03*
D29*
X41575000Y-123150000D03*
X47125000Y-123150000D03*
D24*
X45200000Y-99200000D03*
X45200000Y-100700000D03*
D27*
X78800000Y-175850000D03*
X78800000Y-173950000D03*
D24*
X79300000Y-165050000D03*
X79300000Y-166550000D03*
D30*
X74550000Y-177350000D03*
X72350000Y-177350000D03*
D31*
X147090000Y-171150000D03*
X147090000Y-172100000D03*
X147090000Y-173050000D03*
X149410000Y-173050000D03*
X149410000Y-172100000D03*
X149410000Y-171150000D03*
D24*
X126450000Y-65850000D03*
X126450000Y-67350000D03*
D10*
G36*
X124151992Y-105528032D02*
X124788388Y-106164428D01*
X124434834Y-106517982D01*
X123798438Y-105881586D01*
X124151992Y-105528032D01*
X124151992Y-105528032D01*
G37*
G36*
X123091332Y-106588692D02*
X123727728Y-107225088D01*
X123374174Y-107578642D01*
X122737778Y-106942246D01*
X123091332Y-106588692D01*
X123091332Y-106588692D01*
G37*
D24*
X128450000Y-65850000D03*
X128450000Y-67350000D03*
D26*
X126650000Y-73150000D03*
X128150000Y-73150000D03*
D24*
X129800000Y-85250000D03*
X129800000Y-83750000D03*
D26*
X128700000Y-64650000D03*
X130200000Y-64650000D03*
X125200000Y-48650000D03*
X126700000Y-48650000D03*
D24*
X130050000Y-50950000D03*
X130050000Y-49450000D03*
X129800000Y-81150000D03*
X129800000Y-79650000D03*
D10*
G36*
X122419581Y-106624050D02*
X121783185Y-105987654D01*
X122136739Y-105634100D01*
X122773135Y-106270496D01*
X122419581Y-106624050D01*
X122419581Y-106624050D01*
G37*
G36*
X123480241Y-105563390D02*
X122843845Y-104926994D01*
X123197399Y-104573440D01*
X123833795Y-105209836D01*
X123480241Y-105563390D01*
X123480241Y-105563390D01*
G37*
D24*
X109705026Y-151224264D03*
X109705026Y-152724264D03*
X130450000Y-67350000D03*
X130450000Y-65850000D03*
D26*
X111155025Y-158724264D03*
X109655025Y-158724264D03*
X107155025Y-158724264D03*
X108655025Y-158724264D03*
D24*
X140150000Y-65850000D03*
X140150000Y-67350000D03*
D26*
X130877549Y-129412348D03*
X129377549Y-129412348D03*
D24*
X142200000Y-65850000D03*
X142200000Y-67350000D03*
D26*
X140400000Y-73200000D03*
X141900000Y-73200000D03*
D24*
X139600000Y-79600000D03*
X139600000Y-81100000D03*
D26*
X142450000Y-64650000D03*
X143950000Y-64650000D03*
X153000000Y-48650000D03*
X154500000Y-48650000D03*
D24*
X156050000Y-50950000D03*
X156050000Y-49450000D03*
X139600000Y-83800000D03*
X139600000Y-85300000D03*
D26*
X129377549Y-128012345D03*
X130877549Y-128012345D03*
D24*
X117110444Y-151219582D03*
X117110444Y-152719582D03*
X144150000Y-67350000D03*
X144150000Y-65850000D03*
D26*
X118660444Y-158719580D03*
X117160444Y-158719580D03*
X114660445Y-158719581D03*
X116160445Y-158719581D03*
D24*
X110300000Y-99050000D03*
X110300000Y-100550000D03*
X107100000Y-100550000D03*
X107100000Y-99050000D03*
D26*
X33500000Y-78184314D03*
X35000000Y-78184314D03*
X35000000Y-76834314D03*
X33500000Y-76834314D03*
X51200000Y-82350000D03*
X49700000Y-82350000D03*
X49700000Y-72550000D03*
X51200000Y-72550000D03*
D27*
X134200000Y-90950000D03*
X134200000Y-89050000D03*
D24*
X109850000Y-57400000D03*
X109850000Y-55900000D03*
D27*
X41550000Y-86600000D03*
X41550000Y-84700000D03*
D24*
X109850000Y-54900000D03*
X109850000Y-53400000D03*
D32*
X94400000Y-58250000D03*
X96300000Y-58250000D03*
D24*
X100000000Y-168250000D03*
X100000000Y-166750000D03*
X100000000Y-164250000D03*
X100000000Y-165750000D03*
X94700000Y-165600000D03*
X94700000Y-164100000D03*
X139900000Y-156300000D03*
X139900000Y-154800000D03*
X143050000Y-168100000D03*
X143050000Y-169600000D03*
D26*
X140650000Y-157500000D03*
X139150000Y-157500000D03*
D24*
X141250000Y-160450000D03*
X141250000Y-158950000D03*
D26*
X140000000Y-170800000D03*
X141500000Y-170800000D03*
D24*
X127000000Y-167850000D03*
X127000000Y-169350000D03*
X128500000Y-167850000D03*
X128500000Y-169350000D03*
D26*
X128500000Y-166650000D03*
X127000000Y-166650000D03*
D24*
X45850000Y-119400000D03*
X45850000Y-117900000D03*
X41550000Y-113000000D03*
X41550000Y-114500000D03*
X41550000Y-116050000D03*
X41550000Y-117550000D03*
D26*
X34300000Y-134450000D03*
X32800000Y-134450000D03*
D24*
X101300000Y-138600000D03*
X101300000Y-137100000D03*
D26*
X165050000Y-134450000D03*
X163550000Y-134450000D03*
D24*
X31600000Y-134650000D03*
X31600000Y-133150000D03*
X102650000Y-137100000D03*
X102650000Y-138600000D03*
X162350000Y-134650000D03*
X162350000Y-133150000D03*
X27100000Y-154400000D03*
X27100000Y-152900000D03*
X92450000Y-154400000D03*
X92450000Y-152900000D03*
X157850000Y-154400000D03*
X157850000Y-152900000D03*
X29100000Y-154400000D03*
X29100000Y-152900000D03*
X94450000Y-154400000D03*
X94450000Y-152900000D03*
X159850000Y-154400000D03*
X159850000Y-152900000D03*
X24600000Y-134650000D03*
X24600000Y-133150000D03*
X84250000Y-137050000D03*
X84250000Y-138550000D03*
X155350000Y-134650000D03*
X155350000Y-133150000D03*
D26*
X21900000Y-134450000D03*
X23400000Y-134450000D03*
D24*
X85600000Y-138550000D03*
X85600000Y-137050000D03*
D26*
X152650000Y-134450000D03*
X154150000Y-134450000D03*
D24*
X31100000Y-154400000D03*
X31100000Y-152900000D03*
X101300000Y-149300000D03*
X101300000Y-150800000D03*
D26*
X164550000Y-153100000D03*
X163050000Y-153100000D03*
X23400000Y-169200000D03*
X24900000Y-169200000D03*
D24*
X98700000Y-175450000D03*
X98700000Y-173950000D03*
D26*
X163611701Y-169143934D03*
X162111701Y-169143934D03*
D24*
X26100000Y-169400000D03*
X26100000Y-167900000D03*
D26*
X98500000Y-172750000D03*
X100000000Y-172750000D03*
D24*
X160911701Y-169343934D03*
X160911701Y-167843934D03*
X70750000Y-171150000D03*
X70750000Y-169650000D03*
X73450000Y-171150000D03*
X73450000Y-169650000D03*
X38550000Y-173550000D03*
X38550000Y-175050000D03*
X39650000Y-144350000D03*
X39650000Y-145850000D03*
D33*
X75350000Y-158800000D03*
X75350000Y-167900000D03*
X70850000Y-158800000D03*
X70850000Y-167900000D03*
X34050000Y-171700000D03*
X34050000Y-162600000D03*
X38550000Y-171700000D03*
X38550000Y-162600000D03*
D34*
X131750000Y-80500000D03*
X131750000Y-81150000D03*
X131750000Y-81800000D03*
X131750000Y-82450000D03*
X131750000Y-83100000D03*
X131750000Y-83750000D03*
X131750000Y-84400000D03*
X137650000Y-84400000D03*
X137650000Y-83750000D03*
X137650000Y-83100000D03*
X137650000Y-82450000D03*
X137650000Y-81800000D03*
X137650000Y-81150000D03*
X137650000Y-80500000D03*
D35*
X129200000Y-68500000D03*
X128700000Y-68500000D03*
X128200000Y-68500000D03*
X127700000Y-68500000D03*
X127700000Y-71600000D03*
X128200000Y-71600000D03*
X128700000Y-71600000D03*
X129200000Y-71600000D03*
X142900000Y-68500000D03*
X142400000Y-68500000D03*
X141900000Y-68500000D03*
X141400000Y-68500000D03*
X141400000Y-71600000D03*
X141900000Y-71600000D03*
X142400000Y-71600000D03*
X142900000Y-71600000D03*
D34*
X39300000Y-75550000D03*
X39300000Y-76200000D03*
X39300000Y-76850000D03*
X39300000Y-77500000D03*
X39300000Y-78150000D03*
X39300000Y-78800000D03*
X39300000Y-79450000D03*
X45200000Y-79450000D03*
X45200000Y-78800000D03*
X45200000Y-78150000D03*
X45200000Y-77500000D03*
X45200000Y-76850000D03*
X45200000Y-76200000D03*
X45200000Y-75550000D03*
D36*
X106550000Y-57905000D03*
X106550000Y-56635000D03*
X106550000Y-55365000D03*
X106550000Y-54095000D03*
X101150000Y-54095000D03*
X101150000Y-55365000D03*
X101150000Y-56635000D03*
X101150000Y-57905000D03*
D37*
X93100000Y-166250000D03*
X93100000Y-165600000D03*
X93100000Y-164950000D03*
X91000000Y-164950000D03*
X91000000Y-165600000D03*
X91000000Y-166250000D03*
D38*
X92050000Y-165200000D03*
X92050000Y-166000000D03*
D39*
X143050000Y-171200000D03*
X143050000Y-172150000D03*
X143050000Y-173100000D03*
X145250000Y-173100000D03*
X145250000Y-171200000D03*
D40*
X130145000Y-168825000D03*
X130145000Y-169475000D03*
X130145000Y-170125000D03*
X130145000Y-170775000D03*
X134355000Y-170775000D03*
X134355000Y-170125000D03*
X134355000Y-169475000D03*
X134355000Y-168825000D03*
D41*
X132670000Y-170270000D03*
X132670000Y-169330000D03*
X131830000Y-170270000D03*
X131830000Y-169330000D03*
D42*
X45250000Y-111800000D03*
D43*
X47155000Y-109100000D03*
X45885000Y-109100000D03*
X44615000Y-109100000D03*
X43345000Y-109100000D03*
X43345000Y-114500000D03*
X44615000Y-114500000D03*
X45885000Y-114500000D03*
X47155000Y-114500000D03*
D44*
X79100000Y-172600000D03*
X79600000Y-172600000D03*
X80100000Y-172600000D03*
X80600000Y-172600000D03*
X80600000Y-170800000D03*
X80100000Y-170800000D03*
X79600000Y-170800000D03*
X79100000Y-170800000D03*
D45*
X80290000Y-171700000D03*
X79410000Y-171700000D03*
D46*
X63700000Y-171100000D03*
X63700000Y-169830000D03*
X63700000Y-168560000D03*
X63700000Y-167290000D03*
X63700000Y-166020000D03*
X63700000Y-164750000D03*
X63700000Y-163480000D03*
X63700000Y-162210000D03*
X63700000Y-160940000D03*
X63700000Y-159670000D03*
X63700000Y-158400000D03*
X63700000Y-157130000D03*
X63700000Y-155860000D03*
X63700000Y-154590000D03*
X45700000Y-154590000D03*
X45700000Y-155860000D03*
X45700000Y-157130000D03*
X45700000Y-158400000D03*
X45700000Y-159670000D03*
X45700000Y-160940000D03*
X45700000Y-162210000D03*
X45700000Y-163480000D03*
X45700000Y-164750000D03*
X45700000Y-166020000D03*
X45700000Y-167290000D03*
X45700000Y-168560000D03*
X45700000Y-169830000D03*
X45700000Y-171100000D03*
D47*
X60510000Y-153090000D03*
X59240000Y-153090000D03*
X57970000Y-153090000D03*
X56700000Y-153090000D03*
X55430000Y-153090000D03*
X54160000Y-153090000D03*
X52890000Y-153090000D03*
X51620000Y-153090000D03*
X50350000Y-153090000D03*
X49080000Y-153090000D03*
D48*
X75475000Y-132700000D03*
X75875000Y-124500000D03*
X76275000Y-132700000D03*
X76675000Y-124500000D03*
X77075000Y-132700000D03*
X77475000Y-124500000D03*
X77875000Y-132700000D03*
X78275000Y-124500000D03*
X78675000Y-132700000D03*
X79075000Y-124500000D03*
X79475000Y-132700000D03*
X79875000Y-124500000D03*
X80275000Y-132700000D03*
X80675000Y-124500000D03*
X81075000Y-132700000D03*
X81475000Y-124500000D03*
X85075000Y-132700000D03*
X85475000Y-124500000D03*
X85875000Y-132700000D03*
X86275000Y-124500000D03*
X86675000Y-132700000D03*
X87075000Y-124500000D03*
X87475000Y-132700000D03*
X87875000Y-124500000D03*
X88275000Y-132700000D03*
X88675000Y-124500000D03*
X89075000Y-132700000D03*
X89475000Y-124500000D03*
X89875000Y-132700000D03*
X90275000Y-124500000D03*
X90675000Y-132700000D03*
X91075000Y-124500000D03*
X91475000Y-132700000D03*
X91875000Y-124500000D03*
X92275000Y-132700000D03*
X92675000Y-124500000D03*
X93075000Y-132700000D03*
X93475000Y-124500000D03*
X93875000Y-132700000D03*
X94275000Y-124500000D03*
X94675000Y-132700000D03*
X95075000Y-124500000D03*
X95475000Y-132700000D03*
X95875000Y-124500000D03*
X96275000Y-132700000D03*
X96675000Y-124500000D03*
X97075000Y-132700000D03*
X97475000Y-124500000D03*
X97875000Y-132700000D03*
X98275000Y-124500000D03*
X98675000Y-132700000D03*
X99075000Y-124500000D03*
D49*
X72625000Y-132100000D03*
X101925000Y-132100000D03*
D50*
X110355026Y-154294264D03*
X109705026Y-154294264D03*
X109055026Y-154294264D03*
X109055026Y-156954264D03*
X109705026Y-156954264D03*
X110355026Y-156954264D03*
X117760446Y-154289581D03*
X117110446Y-154289581D03*
X116460446Y-154289581D03*
X116460446Y-156949581D03*
X117110446Y-156949581D03*
X117760446Y-156949581D03*
D26*
X36300000Y-151550000D03*
X34800000Y-151550000D03*
D24*
X102650000Y-149300000D03*
X102650000Y-150800000D03*
X161850000Y-154400000D03*
X161850000Y-152900000D03*
D51*
X137525000Y-163450000D03*
X138175000Y-163450000D03*
X138825000Y-163450000D03*
X139475000Y-163450000D03*
X139475000Y-159050000D03*
X138825000Y-159050000D03*
X138175000Y-159050000D03*
X137525000Y-159050000D03*
M02*
