G04 #@! TF.FileFunction,Soldermask,Bot*
%FSLAX46Y46*%
G04 Gerber Fmt 4.6, Leading zero omitted, Abs format (unit mm)*
G04 Created by KiCad (PCBNEW 4.0.7) date 04/10/18 15:24:13*
%MOMM*%
%LPD*%
G01*
G04 APERTURE LIST*
%ADD10C,0.100000*%
%ADD11C,3.300000*%
%ADD12C,0.500000*%
%ADD13C,1.800000*%
%ADD14C,4.000000*%
%ADD15C,5.500000*%
%ADD16C,1.500000*%
%ADD17C,0.254000*%
G04 APERTURE END LIST*
D10*
D11*
X246700000Y-125000000D02*
X220700000Y-125000000D01*
D12*
X255750000Y-122500000D02*
X246600000Y-122500000D01*
X255750000Y-27250000D02*
X255750000Y-122500000D01*
X197050000Y-27250000D02*
X255750000Y-27250000D01*
X197050000Y-122400000D02*
X197050000Y-27250000D01*
X220500000Y-122400000D02*
X197050000Y-122400000D01*
D13*
X204850000Y-41460000D03*
X207350000Y-41460000D03*
X207350000Y-39460000D03*
X204850000Y-39460000D03*
D14*
X212120000Y-36750000D03*
X200080000Y-36750000D03*
D15*
X229700000Y-46400000D03*
D16*
X247900000Y-47850000D03*
X247900000Y-52350000D03*
X247950000Y-56900000D03*
X211400000Y-100600000D03*
X211400000Y-105100000D03*
X253900000Y-115850000D03*
X229400000Y-37850000D03*
X229400000Y-33350000D03*
X253900000Y-120350000D03*
X202850000Y-32850000D03*
X207350000Y-32850000D03*
D17*
G36*
X198823000Y-112423000D02*
X197777000Y-112423000D01*
X197777000Y-108177000D01*
X198823000Y-108177000D01*
X198823000Y-112423000D01*
X198823000Y-112423000D01*
G37*
X198823000Y-112423000D02*
X197777000Y-112423000D01*
X197777000Y-108177000D01*
X198823000Y-108177000D01*
X198823000Y-112423000D01*
M02*
