G04 #@! TF.FileFunction,Paste,Top*
%FSLAX46Y46*%
G04 Gerber Fmt 4.6, Leading zero omitted, Abs format (unit mm)*
G04 Created by KiCad (PCBNEW 4.0.7) date 04/10/18 20:02:39*
%MOMM*%
%LPD*%
G01*
G04 APERTURE LIST*
%ADD10C,0.100000*%
%ADD11R,2.347600X1.647600*%
%ADD12R,0.097600X0.847600*%
%ADD13R,0.847600X0.097600*%
%ADD14R,0.357600X0.547600*%
%ADD15R,0.747600X0.647600*%
%ADD16R,0.647600X0.747600*%
%ADD17R,0.447600X1.047600*%
%ADD18R,0.547600X0.097600*%
%ADD19R,0.097600X0.547600*%
%ADD20R,0.882600X0.882600*%
%ADD21R,0.497600X0.197600*%
%ADD22R,0.447600X0.327600*%
%ADD23R,0.312600X0.567600*%
%ADD24R,0.347600X0.147600*%
%ADD25R,0.483600X0.375600*%
%ADD26R,1.367600X0.305600*%
%ADD27R,0.147600X0.967600*%
%ADD28R,0.967600X0.147600*%
%ADD29R,1.247600X1.947600*%
%ADD30R,0.747600X0.297600*%
%ADD31R,0.297600X0.747600*%
%ADD32R,0.347600X0.747600*%
%ADD33R,0.747600X0.347600*%
%ADD34R,0.547600X1.147600*%
%ADD35R,1.147600X0.547600*%
%ADD36R,0.547600X1.597600*%
%ADD37R,1.347600X1.347600*%
%ADD38R,0.647600X1.347600*%
%ADD39R,1.347600X0.847600*%
%ADD40R,0.647600X1.247600*%
%ADD41R,0.847600X1.397600*%
%ADD42R,0.447600X1.297600*%
%ADD43R,0.447600X1.497600*%
%ADD44R,0.247600X1.047600*%
%ADD45R,2.357600X0.847600*%
%ADD46R,0.847600X3.147600*%
%ADD47R,0.847600X2.447600*%
%ADD48R,3.147600X0.847600*%
%ADD49R,2.447600X0.847600*%
%ADD50R,1.047600X1.047600*%
%ADD51R,1.647600X2.347600*%
%ADD52R,0.447600X0.547600*%
%ADD53R,0.247600X0.247600*%
%ADD54R,0.847600X1.097600*%
%ADD55R,0.647600X0.597600*%
%ADD56R,0.597600X0.647600*%
%ADD57R,1.097600X0.847600*%
%ADD58R,0.847600X1.447600*%
%ADD59R,2.347600X1.797600*%
%ADD60R,1.347600X1.797600*%
%ADD61R,0.147600X0.347600*%
G04 APERTURE END LIST*
D10*
D11*
X210800000Y-119350000D03*
X214800000Y-119350000D03*
D12*
X244800000Y-105650000D03*
X244300000Y-105650000D03*
X243800000Y-105650000D03*
X243300000Y-105650000D03*
X242800000Y-105650000D03*
X242300000Y-105650000D03*
X241800000Y-105650000D03*
X241300000Y-105650000D03*
X240800000Y-105650000D03*
X240300000Y-105650000D03*
X239800000Y-105650000D03*
X239300000Y-105650000D03*
X238800000Y-105650000D03*
X238300000Y-105650000D03*
X237800000Y-105650000D03*
X237300000Y-105650000D03*
D13*
X235350000Y-107600000D03*
X235350000Y-108100000D03*
X235350000Y-108600000D03*
X235350000Y-109100000D03*
X235350000Y-109600000D03*
X235350000Y-110100000D03*
X235350000Y-110600000D03*
X235350000Y-111100000D03*
X235350000Y-111600000D03*
X235350000Y-112100000D03*
X235350000Y-112600000D03*
X235350000Y-113100000D03*
X235350000Y-113600000D03*
X235350000Y-114100000D03*
X235350000Y-114600000D03*
X235350000Y-115100000D03*
D12*
X237300000Y-117050000D03*
X237800000Y-117050000D03*
X238300000Y-117050000D03*
X238800000Y-117050000D03*
X239300000Y-117050000D03*
X239800000Y-117050000D03*
X240300000Y-117050000D03*
X240800000Y-117050000D03*
X241300000Y-117050000D03*
X241800000Y-117050000D03*
X242300000Y-117050000D03*
X242800000Y-117050000D03*
X243300000Y-117050000D03*
X243800000Y-117050000D03*
X244300000Y-117050000D03*
X244800000Y-117050000D03*
D13*
X246750000Y-115100000D03*
X246750000Y-114600000D03*
X246750000Y-114100000D03*
X246750000Y-113600000D03*
X246750000Y-113100000D03*
X246750000Y-112600000D03*
X246750000Y-112100000D03*
X246750000Y-111600000D03*
X246750000Y-111100000D03*
X246750000Y-110600000D03*
X246750000Y-110100000D03*
X246750000Y-109600000D03*
X246750000Y-109100000D03*
X246750000Y-108600000D03*
X246750000Y-108100000D03*
X246750000Y-107600000D03*
D14*
X254450000Y-102240000D03*
X253500000Y-102240000D03*
X252550000Y-102240000D03*
X252550000Y-104560000D03*
X254450000Y-104560000D03*
D15*
X208800000Y-54350000D03*
X210200000Y-54350000D03*
X210200000Y-53250000D03*
X208800000Y-53250000D03*
D16*
X228300000Y-63850000D03*
X228300000Y-62450000D03*
X227200000Y-62450000D03*
X227200000Y-63850000D03*
D17*
X238350000Y-63750000D03*
X237150000Y-63750000D03*
D18*
X206600000Y-56850000D03*
X206600000Y-57350000D03*
X206600000Y-57850000D03*
X206600000Y-58350000D03*
X206600000Y-58850000D03*
X206600000Y-59350000D03*
X206600000Y-59850000D03*
X206600000Y-60350000D03*
D19*
X207250000Y-61000000D03*
X207750000Y-61000000D03*
X208250000Y-61000000D03*
X208750000Y-61000000D03*
X209250000Y-61000000D03*
X209750000Y-61000000D03*
X210250000Y-61000000D03*
X210750000Y-61000000D03*
D18*
X211400000Y-60350000D03*
X211400000Y-59850000D03*
X211400000Y-59350000D03*
X211400000Y-58850000D03*
X211400000Y-58350000D03*
X211400000Y-57850000D03*
X211400000Y-57350000D03*
X211400000Y-56850000D03*
D19*
X210750000Y-56200000D03*
X210250000Y-56200000D03*
X209750000Y-56200000D03*
X209250000Y-56200000D03*
X208750000Y-56200000D03*
X208250000Y-56200000D03*
X207750000Y-56200000D03*
X207250000Y-56200000D03*
D20*
X209862500Y-59462500D03*
X209862500Y-57737500D03*
X208137500Y-59462500D03*
X208137500Y-57737500D03*
D21*
X239696448Y-55696625D03*
X239696448Y-55046625D03*
X239696448Y-54396625D03*
X237596448Y-54396625D03*
X237596448Y-55046625D03*
X237596448Y-55696625D03*
D22*
X238646448Y-54646625D03*
X238646448Y-55446625D03*
D21*
X203950000Y-115375000D03*
X203950000Y-116025000D03*
X203950000Y-116675000D03*
X203950000Y-117325000D03*
X207050000Y-117325000D03*
X207050000Y-116675000D03*
X207050000Y-116025000D03*
X207050000Y-115375000D03*
D23*
X205887500Y-116950000D03*
X205887500Y-115750000D03*
X205112500Y-116950000D03*
X205112500Y-115750000D03*
D24*
X208735913Y-97822487D03*
X208735913Y-97322487D03*
X208735913Y-96822487D03*
X208735913Y-96322487D03*
X206935913Y-96322487D03*
X206935913Y-96822487D03*
X206935913Y-97322487D03*
X206935913Y-97822487D03*
D25*
X207835913Y-96632487D03*
X207835913Y-97512487D03*
D26*
X213890000Y-87300000D03*
X213890000Y-86500000D03*
X213890000Y-85700000D03*
X213890000Y-84900000D03*
X213890000Y-84100000D03*
X213890000Y-83300000D03*
X213890000Y-82500000D03*
X213890000Y-81700000D03*
X213890000Y-80900000D03*
X213890000Y-80100000D03*
X213890000Y-79300000D03*
X213890000Y-78500000D03*
X213890000Y-77700000D03*
X213890000Y-76900000D03*
X213890000Y-76100000D03*
X213890000Y-75300000D03*
X213890000Y-74500000D03*
X213890000Y-73700000D03*
X213890000Y-72900000D03*
X213890000Y-72100000D03*
X213890000Y-71300000D03*
X213890000Y-70500000D03*
X213890000Y-69700000D03*
X213890000Y-68900000D03*
X213890000Y-68100000D03*
X213890000Y-67300000D03*
X213890000Y-66500000D03*
X202210000Y-66500000D03*
X202210000Y-67300000D03*
X202210000Y-68100000D03*
X202210000Y-68900000D03*
X202210000Y-69700000D03*
X202210000Y-70500000D03*
X202210000Y-71300000D03*
X202210000Y-72100000D03*
X202210000Y-72900000D03*
X202210000Y-73700000D03*
X202210000Y-74500000D03*
X202210000Y-75300000D03*
X202210000Y-76100000D03*
X202210000Y-76900000D03*
X202210000Y-77700000D03*
X202210000Y-78500000D03*
X202210000Y-79300000D03*
X202210000Y-80100000D03*
X202210000Y-80900000D03*
X202210000Y-81700000D03*
X202210000Y-82500000D03*
X202210000Y-83300000D03*
X202210000Y-84100000D03*
X202210000Y-84900000D03*
X202210000Y-85700000D03*
X202210000Y-86500000D03*
X202210000Y-87300000D03*
D27*
X242000000Y-65680000D03*
X241500000Y-65680000D03*
X241000000Y-65680000D03*
X240500000Y-65680000D03*
X240000000Y-65680000D03*
X239500000Y-65680000D03*
X239000000Y-65680000D03*
X238500000Y-65680000D03*
X238000000Y-65680000D03*
X237500000Y-65680000D03*
X237000000Y-65680000D03*
X236500000Y-65680000D03*
X236000000Y-65680000D03*
X235500000Y-65680000D03*
X235000000Y-65680000D03*
X234500000Y-65680000D03*
X234000000Y-65680000D03*
X233500000Y-65680000D03*
X233000000Y-65680000D03*
X232500000Y-65680000D03*
X232000000Y-65680000D03*
X231500000Y-65680000D03*
X231000000Y-65680000D03*
X230500000Y-65680000D03*
X230000000Y-65680000D03*
X229500000Y-65680000D03*
X229000000Y-65680000D03*
X228500000Y-65680000D03*
X228000000Y-65680000D03*
X227500000Y-65680000D03*
X227000000Y-65680000D03*
X226500000Y-65680000D03*
X226000000Y-65680000D03*
X225500000Y-65680000D03*
X225000000Y-65680000D03*
X224500000Y-65680000D03*
X224000000Y-65680000D03*
X223500000Y-65680000D03*
X223000000Y-65680000D03*
X222500000Y-65680000D03*
X222000000Y-65680000D03*
X221500000Y-65680000D03*
X221000000Y-65680000D03*
X220500000Y-65680000D03*
D28*
X218630000Y-67550000D03*
X218630000Y-68050000D03*
X218630000Y-68550000D03*
X218630000Y-69050000D03*
X218630000Y-69550000D03*
X218630000Y-70050000D03*
X218630000Y-70550000D03*
X218630000Y-71050000D03*
X218630000Y-71550000D03*
X218630000Y-72050000D03*
X218630000Y-72550000D03*
X218630000Y-73050000D03*
X218630000Y-73550000D03*
X218630000Y-74050000D03*
X218630000Y-74550000D03*
X218630000Y-75050000D03*
X218630000Y-75550000D03*
X218630000Y-76050000D03*
X218630000Y-76550000D03*
X218630000Y-77050000D03*
X218630000Y-77550000D03*
X218630000Y-78050000D03*
X218630000Y-78550000D03*
X218630000Y-79050000D03*
X218630000Y-79550000D03*
X218630000Y-80050000D03*
X218630000Y-80550000D03*
X218630000Y-81050000D03*
X218630000Y-81550000D03*
X218630000Y-82050000D03*
X218630000Y-82550000D03*
X218630000Y-83050000D03*
X218630000Y-83550000D03*
X218630000Y-84050000D03*
X218630000Y-84550000D03*
X218630000Y-85050000D03*
X218630000Y-85550000D03*
X218630000Y-86050000D03*
X218630000Y-86550000D03*
X218630000Y-87050000D03*
X218630000Y-87550000D03*
X218630000Y-88050000D03*
X218630000Y-88550000D03*
X218630000Y-89050000D03*
D27*
X220500000Y-90920000D03*
X221000000Y-90920000D03*
X221500000Y-90920000D03*
X222000000Y-90920000D03*
X222500000Y-90920000D03*
X223000000Y-90920000D03*
X223500000Y-90920000D03*
X224000000Y-90920000D03*
X224500000Y-90920000D03*
X225000000Y-90920000D03*
X225500000Y-90920000D03*
X226000000Y-90920000D03*
X226500000Y-90920000D03*
X227000000Y-90920000D03*
X227500000Y-90920000D03*
X228000000Y-90920000D03*
X228500000Y-90920000D03*
X229000000Y-90920000D03*
X229500000Y-90920000D03*
X230000000Y-90920000D03*
X230500000Y-90920000D03*
X231000000Y-90920000D03*
X231500000Y-90920000D03*
X232000000Y-90920000D03*
X232500000Y-90920000D03*
X233000000Y-90920000D03*
X233500000Y-90920000D03*
X234000000Y-90920000D03*
X234500000Y-90920000D03*
X235000000Y-90920000D03*
X235500000Y-90920000D03*
X236000000Y-90920000D03*
X236500000Y-90920000D03*
X237000000Y-90920000D03*
X237500000Y-90920000D03*
X238000000Y-90920000D03*
X238500000Y-90920000D03*
X239000000Y-90920000D03*
X239500000Y-90920000D03*
X240000000Y-90920000D03*
X240500000Y-90920000D03*
X241000000Y-90920000D03*
X241500000Y-90920000D03*
X242000000Y-90920000D03*
D28*
X243870000Y-89050000D03*
X243870000Y-88550000D03*
X243870000Y-88050000D03*
X243870000Y-87550000D03*
X243870000Y-87050000D03*
X243870000Y-86550000D03*
X243870000Y-86050000D03*
X243870000Y-85550000D03*
X243870000Y-85050000D03*
X243870000Y-84550000D03*
X243870000Y-84050000D03*
X243870000Y-83550000D03*
X243870000Y-83050000D03*
X243870000Y-82550000D03*
X243870000Y-82050000D03*
X243870000Y-81550000D03*
X243870000Y-81050000D03*
X243870000Y-80550000D03*
X243870000Y-80050000D03*
X243870000Y-79550000D03*
X243870000Y-79050000D03*
X243870000Y-78550000D03*
X243870000Y-78050000D03*
X243870000Y-77550000D03*
X243870000Y-77050000D03*
X243870000Y-76550000D03*
X243870000Y-76050000D03*
X243870000Y-75550000D03*
X243870000Y-75050000D03*
X243870000Y-74550000D03*
X243870000Y-74050000D03*
X243870000Y-73550000D03*
X243870000Y-73050000D03*
X243870000Y-72550000D03*
X243870000Y-72050000D03*
X243870000Y-71550000D03*
X243870000Y-71050000D03*
X243870000Y-70550000D03*
X243870000Y-70050000D03*
X243870000Y-69550000D03*
X243870000Y-69050000D03*
X243870000Y-68550000D03*
X243870000Y-68050000D03*
X243870000Y-67550000D03*
D29*
X254550000Y-69600000D03*
X254550000Y-78700000D03*
X250050000Y-69600000D03*
X250050000Y-78700000D03*
D30*
X215700000Y-57200000D03*
X215700000Y-56400000D03*
X215700000Y-55600000D03*
X215700000Y-58000000D03*
X214000000Y-55600000D03*
X214000000Y-56400000D03*
X214000000Y-57200000D03*
X214000000Y-58000000D03*
X215700000Y-60800000D03*
X215700000Y-60000000D03*
X215700000Y-59200000D03*
X215700000Y-61600000D03*
X214000000Y-59200000D03*
X214000000Y-60000000D03*
X214000000Y-60800000D03*
X214000000Y-61600000D03*
D31*
X208150000Y-64200000D03*
X208950000Y-64200000D03*
X209750000Y-64200000D03*
X207350000Y-64200000D03*
X209750000Y-62500000D03*
X208950000Y-62500000D03*
X208150000Y-62500000D03*
X207350000Y-62500000D03*
X220950000Y-54850000D03*
X221750000Y-54850000D03*
X222550000Y-54850000D03*
X220150000Y-54850000D03*
X222550000Y-53150000D03*
X221750000Y-53150000D03*
X220950000Y-53150000D03*
X220150000Y-53150000D03*
X225150000Y-54850000D03*
X225950000Y-54850000D03*
X226750000Y-54850000D03*
X224350000Y-54850000D03*
X226750000Y-53150000D03*
X225950000Y-53150000D03*
X225150000Y-53150000D03*
X224350000Y-53150000D03*
D30*
X209400000Y-45250000D03*
X209400000Y-46050000D03*
X209400000Y-46850000D03*
X209400000Y-44450000D03*
X211100000Y-46850000D03*
X211100000Y-46050000D03*
X211100000Y-45250000D03*
X211100000Y-44450000D03*
D31*
X237650000Y-45900000D03*
X238450000Y-45900000D03*
X239250000Y-45900000D03*
X236850000Y-45900000D03*
X239250000Y-44200000D03*
X238450000Y-44200000D03*
X237650000Y-44200000D03*
X236850000Y-44200000D03*
X239850000Y-28800000D03*
X239050000Y-28800000D03*
X238250000Y-28800000D03*
X240650000Y-28800000D03*
X238250000Y-30500000D03*
X239050000Y-30500000D03*
X239850000Y-30500000D03*
X240650000Y-30500000D03*
X241600000Y-45900000D03*
X242400000Y-45900000D03*
X243200000Y-45900000D03*
X240800000Y-45900000D03*
X243200000Y-44200000D03*
X242400000Y-44200000D03*
X241600000Y-44200000D03*
X240800000Y-44200000D03*
X243800000Y-28800000D03*
X243000000Y-28800000D03*
X242200000Y-28800000D03*
X244600000Y-28800000D03*
X242200000Y-30500000D03*
X243000000Y-30500000D03*
X243800000Y-30500000D03*
X244600000Y-30500000D03*
X245650000Y-45900000D03*
X246450000Y-45900000D03*
X247250000Y-45900000D03*
X244850000Y-45900000D03*
X247250000Y-44200000D03*
X246450000Y-44200000D03*
X245650000Y-44200000D03*
X244850000Y-44200000D03*
X247700000Y-28800000D03*
X246900000Y-28800000D03*
X246100000Y-28800000D03*
X248500000Y-28800000D03*
X246100000Y-30500000D03*
X246900000Y-30500000D03*
X247700000Y-30500000D03*
X248500000Y-30500000D03*
X251300000Y-45900000D03*
X252100000Y-45900000D03*
X252900000Y-45900000D03*
X250500000Y-45900000D03*
X252900000Y-44200000D03*
X252100000Y-44200000D03*
X251300000Y-44200000D03*
X250500000Y-44200000D03*
X251450000Y-28800000D03*
X250650000Y-28800000D03*
X249850000Y-28800000D03*
X252250000Y-28800000D03*
X249850000Y-30500000D03*
X250650000Y-30500000D03*
X251450000Y-30500000D03*
X252250000Y-30500000D03*
D30*
X232200000Y-106600000D03*
X232200000Y-107400000D03*
X232200000Y-108200000D03*
X232200000Y-105800000D03*
X233900000Y-108200000D03*
X233900000Y-107400000D03*
X233900000Y-106600000D03*
X233900000Y-105800000D03*
X237100000Y-102800000D03*
X237100000Y-103600000D03*
X237100000Y-104400000D03*
X237100000Y-102000000D03*
X238800000Y-104400000D03*
X238800000Y-103600000D03*
X238800000Y-102800000D03*
X238800000Y-102000000D03*
D31*
X253600000Y-86250000D03*
X252800000Y-86250000D03*
X252000000Y-86250000D03*
X254400000Y-86250000D03*
X252000000Y-87950000D03*
X252800000Y-87950000D03*
X253600000Y-87950000D03*
X254400000Y-87950000D03*
D30*
X250250000Y-83300000D03*
X250250000Y-84100000D03*
X250250000Y-84900000D03*
X250250000Y-82500000D03*
X251950000Y-84900000D03*
X251950000Y-84100000D03*
X251950000Y-83300000D03*
X251950000Y-82500000D03*
D32*
X205300000Y-56300000D03*
X203800000Y-56300000D03*
X210250000Y-51500000D03*
X208750000Y-51500000D03*
X203800000Y-57700000D03*
X205300000Y-57700000D03*
D33*
X217300000Y-30650000D03*
X217300000Y-32150000D03*
X217100000Y-117200000D03*
X217100000Y-118700000D03*
D32*
X240996446Y-55046625D03*
X242496446Y-55046625D03*
D34*
X236050000Y-29150000D03*
X234150000Y-29150000D03*
D33*
X202450000Y-118900000D03*
X202450000Y-117400000D03*
D32*
X203850000Y-113600000D03*
X205350000Y-113600000D03*
D33*
X201100000Y-117400000D03*
X201100000Y-118900000D03*
X199750000Y-117400000D03*
X199750000Y-118900000D03*
X198400000Y-117400000D03*
X198400000Y-118900000D03*
X252300000Y-78700000D03*
X252300000Y-80200000D03*
X250050000Y-67500000D03*
X250050000Y-66000000D03*
X205000000Y-62950000D03*
X205000000Y-61450000D03*
X215850000Y-35000000D03*
X215850000Y-36500000D03*
X233950000Y-31200000D03*
X233950000Y-32700000D03*
X254250000Y-97100000D03*
X254250000Y-98600000D03*
D34*
X211985912Y-97322487D03*
X210085912Y-97322487D03*
D35*
X235796447Y-55946626D03*
X235796447Y-54046626D03*
D33*
X232496446Y-54546626D03*
X232496446Y-56046626D03*
D32*
X201235913Y-96972488D03*
X202735913Y-96972488D03*
X230050000Y-110700000D03*
X231550000Y-110700000D03*
D33*
X218400000Y-95600000D03*
X218400000Y-94100000D03*
D32*
X220850000Y-59700000D03*
X222350000Y-59700000D03*
X227650000Y-98050000D03*
X229150000Y-98050000D03*
D36*
X229575000Y-40050000D03*
X228475000Y-40050000D03*
X227375000Y-40050000D03*
X226275000Y-40050000D03*
X225175000Y-40050000D03*
X224075000Y-40050000D03*
X222975000Y-40050000D03*
X221875000Y-40050000D03*
D37*
X220425000Y-39925000D03*
X232025000Y-39925000D03*
D38*
X220425000Y-32325000D03*
D39*
X220775000Y-30825000D03*
D40*
X232375000Y-31675000D03*
D41*
X231775000Y-28475000D03*
D42*
X221350000Y-42800000D03*
X219350000Y-42800000D03*
X217350000Y-42800000D03*
D43*
X220350000Y-47900000D03*
X218350000Y-47900000D03*
X216350000Y-47900000D03*
D44*
X254000000Y-35850000D03*
X253500000Y-38250000D03*
X253000000Y-35850000D03*
X252500000Y-38250000D03*
X252000000Y-35850000D03*
X251500000Y-38250000D03*
X251000000Y-35850000D03*
X250500000Y-38250000D03*
X250000000Y-35850000D03*
X249500000Y-38250000D03*
X249000000Y-35850000D03*
X248500000Y-38250000D03*
X248000000Y-35850000D03*
X247500000Y-38250000D03*
X247000000Y-35850000D03*
X246500000Y-38250000D03*
X246000000Y-35850000D03*
X245500000Y-38250000D03*
X245000000Y-35850000D03*
X244500000Y-38250000D03*
X244000000Y-35850000D03*
X243500000Y-38250000D03*
X243000000Y-35850000D03*
X242500000Y-38250000D03*
X242000000Y-35850000D03*
X241500000Y-38250000D03*
X241000000Y-35850000D03*
X240500000Y-38250000D03*
X240000000Y-35850000D03*
X239500000Y-38250000D03*
X239000000Y-35850000D03*
X238500000Y-38250000D03*
X238000000Y-35850000D03*
X237500000Y-38250000D03*
X237000000Y-35850000D03*
X236500000Y-38250000D03*
X236000000Y-35850000D03*
X235500000Y-38250000D03*
X235000000Y-35850000D03*
X234500000Y-38250000D03*
D45*
X250645000Y-52590000D03*
X250645000Y-57670000D03*
X250645000Y-62750000D03*
X253955000Y-50050000D03*
X253955000Y-55130000D03*
X253955000Y-60210000D03*
D32*
X209850000Y-116950000D03*
X211350000Y-116950000D03*
D46*
X197900000Y-51350000D03*
D47*
X197900000Y-57200000D03*
X197900000Y-62200000D03*
X197900000Y-67200000D03*
X197900000Y-72200000D03*
X197900000Y-78700000D03*
X197900000Y-83700000D03*
X197900000Y-88700000D03*
X197900000Y-93700000D03*
D46*
X197900000Y-99550000D03*
D48*
X199050000Y-100700000D03*
D49*
X204900000Y-100700000D03*
X209900000Y-100700000D03*
X214900000Y-100700000D03*
X219900000Y-100700000D03*
X226400000Y-100700000D03*
X231400000Y-100700000D03*
X236400000Y-100700000D03*
X241400000Y-100700000D03*
D48*
X247250000Y-100700000D03*
D46*
X248400000Y-99550000D03*
D47*
X248400000Y-93700000D03*
X248400000Y-88700000D03*
X248400000Y-83700000D03*
X248400000Y-78700000D03*
X248400000Y-72200000D03*
X248400000Y-67200000D03*
X248400000Y-62200000D03*
X248400000Y-57200000D03*
D46*
X248400000Y-51350000D03*
D48*
X247250000Y-50200000D03*
D49*
X241400000Y-50200000D03*
X236400000Y-50200000D03*
X231400000Y-50200000D03*
X226400000Y-50200000D03*
X219900000Y-50200000D03*
X214900000Y-50200000D03*
X209900000Y-50200000D03*
X204900000Y-50200000D03*
D48*
X199050000Y-50200000D03*
D50*
X211150000Y-115000000D03*
X211150000Y-112900000D03*
D51*
X234600000Y-44700000D03*
X234600000Y-40700000D03*
D52*
X237346448Y-52896625D03*
X238746448Y-52896625D03*
D53*
X253850000Y-83400000D03*
X253850000Y-84000000D03*
X254450000Y-84000000D03*
X254450000Y-83400000D03*
D54*
X205100000Y-52350000D03*
X203100000Y-52350000D03*
D55*
X203650000Y-53800000D03*
X205150000Y-53800000D03*
D54*
X213500000Y-52850000D03*
X215500000Y-52850000D03*
D55*
X212550000Y-64250000D03*
X211050000Y-64250000D03*
X203650000Y-55000000D03*
X205150000Y-55000000D03*
X215600000Y-54300000D03*
X214100000Y-54300000D03*
D56*
X207150000Y-54450000D03*
X207150000Y-52950000D03*
X211850000Y-52950000D03*
X211850000Y-54450000D03*
D55*
X212550000Y-63000000D03*
X211050000Y-63000000D03*
X203650000Y-59000000D03*
X205150000Y-59000000D03*
D54*
X204950000Y-44200000D03*
X202950000Y-44200000D03*
X203300000Y-61400000D03*
X201300000Y-61400000D03*
D55*
X201900000Y-63050000D03*
X203400000Y-63050000D03*
D56*
X213500000Y-32050000D03*
X213500000Y-33550000D03*
X219000000Y-32250000D03*
X219000000Y-30750000D03*
X218850000Y-37650000D03*
X218850000Y-36150000D03*
D57*
X217400000Y-36250000D03*
X217400000Y-38250000D03*
D55*
X217300000Y-33800000D03*
X215800000Y-33800000D03*
X237100000Y-34200000D03*
X235600000Y-34200000D03*
D54*
X235500000Y-32750000D03*
X237500000Y-32750000D03*
D55*
X236900000Y-31300000D03*
X235400000Y-31300000D03*
X252800000Y-105800000D03*
X254300000Y-105800000D03*
D56*
X208500000Y-118400000D03*
X208500000Y-116900000D03*
D55*
X252800000Y-101000000D03*
X254300000Y-101000000D03*
X252800000Y-99800000D03*
X254300000Y-99800000D03*
D56*
X208500000Y-113650000D03*
X208500000Y-115150000D03*
D55*
X252800000Y-95900000D03*
X254300000Y-95900000D03*
X241146447Y-53746625D03*
X242646447Y-53746625D03*
D56*
X209750000Y-113650000D03*
X209750000Y-115150000D03*
D57*
X214735913Y-97172488D03*
X214735913Y-95172488D03*
D56*
X213285913Y-95572487D03*
X213285913Y-97072487D03*
D55*
X208585913Y-94872487D03*
X207085913Y-94872487D03*
D58*
X240046446Y-52096625D03*
X243046446Y-52096625D03*
D57*
X234046446Y-55796625D03*
X234046446Y-53796625D03*
D55*
X233846446Y-52196626D03*
X232346446Y-52196626D03*
D56*
X205585913Y-95572488D03*
X205585913Y-97072488D03*
D57*
X204135912Y-96972487D03*
X204135912Y-94972487D03*
D56*
X200035913Y-95572487D03*
X200035913Y-97072487D03*
D10*
G36*
X247662652Y-118109915D02*
X247240085Y-117687348D01*
X247698008Y-117229425D01*
X248120575Y-117651992D01*
X247662652Y-118109915D01*
X247662652Y-118109915D01*
G37*
G36*
X246601992Y-119170575D02*
X246179425Y-118748008D01*
X246637348Y-118290085D01*
X247059915Y-118712652D01*
X246601992Y-119170575D01*
X246601992Y-119170575D01*
G37*
D56*
X233950000Y-109350000D03*
X233950000Y-110850000D03*
D10*
G36*
X248512652Y-118959915D02*
X248090085Y-118537348D01*
X248548008Y-118079425D01*
X248970575Y-118501992D01*
X248512652Y-118959915D01*
X248512652Y-118959915D01*
G37*
G36*
X247451992Y-120020575D02*
X247029425Y-119598008D01*
X247487348Y-119140085D01*
X247909915Y-119562652D01*
X247451992Y-120020575D01*
X247451992Y-120020575D01*
G37*
D56*
X232750000Y-109350000D03*
X232750000Y-110850000D03*
D55*
X244850000Y-118450000D03*
X243350000Y-118450000D03*
X240750000Y-103050000D03*
X242250000Y-103050000D03*
X244850000Y-119650000D03*
X243350000Y-119650000D03*
X240750000Y-104250000D03*
X242250000Y-104250000D03*
X245050000Y-103050000D03*
X243550000Y-103050000D03*
D10*
G36*
X248181281Y-121694839D02*
X247405161Y-120918719D01*
X248004505Y-120319375D01*
X248780625Y-121095495D01*
X248181281Y-121694839D01*
X248181281Y-121694839D01*
G37*
G36*
X249595495Y-120280625D02*
X248819375Y-119504505D01*
X249418719Y-118905161D01*
X250194839Y-119681281D01*
X249595495Y-120280625D01*
X249595495Y-120280625D01*
G37*
D55*
X245050000Y-104250000D03*
X243550000Y-104250000D03*
X240550000Y-118450000D03*
X242050000Y-118450000D03*
D56*
X248150000Y-114650000D03*
X248150000Y-113150000D03*
D54*
X241950000Y-119900000D03*
X239950000Y-119900000D03*
D59*
X250400000Y-113825000D03*
X250400000Y-116875000D03*
D56*
X248150000Y-110350000D03*
X248150000Y-111850000D03*
D57*
X231600000Y-112250000D03*
X231600000Y-114250000D03*
D60*
X249800000Y-111275000D03*
X249800000Y-108525000D03*
D56*
X230150000Y-113650000D03*
X230150000Y-112150000D03*
X200600000Y-80200000D03*
X200600000Y-78700000D03*
X199400000Y-80200000D03*
X199400000Y-78700000D03*
X200600000Y-84950000D03*
X200600000Y-83450000D03*
X199400000Y-84950000D03*
X199400000Y-83450000D03*
X215700000Y-64800000D03*
X215700000Y-66300000D03*
X216900000Y-64800000D03*
X216900000Y-66300000D03*
X215700000Y-77250000D03*
X215700000Y-75750000D03*
X216900000Y-77250000D03*
X216900000Y-75750000D03*
X215700000Y-84150000D03*
X215700000Y-85650000D03*
D55*
X209600000Y-88650000D03*
X208100000Y-88650000D03*
D56*
X215700000Y-78550000D03*
X215700000Y-80050000D03*
X216900000Y-78550000D03*
X216900000Y-80050000D03*
D55*
X210900000Y-88650000D03*
X212400000Y-88650000D03*
X210900000Y-89850000D03*
X212400000Y-89850000D03*
D54*
X218350000Y-92700000D03*
X216350000Y-92700000D03*
D55*
X219750000Y-96800000D03*
X218250000Y-96800000D03*
X219750000Y-98100000D03*
X218250000Y-98100000D03*
D56*
X216900000Y-84150000D03*
X216900000Y-85650000D03*
D55*
X238350000Y-93400000D03*
X236850000Y-93400000D03*
D56*
X245600000Y-77050000D03*
X245600000Y-75550000D03*
X245600000Y-71350000D03*
X245600000Y-69850000D03*
X245600000Y-82050000D03*
X245600000Y-80550000D03*
X246800000Y-77050000D03*
X246800000Y-75550000D03*
X246800000Y-71350000D03*
X246800000Y-69850000D03*
X246800000Y-82050000D03*
X246800000Y-80550000D03*
D55*
X231250000Y-93400000D03*
X232750000Y-93400000D03*
D56*
X245600000Y-88550000D03*
X245600000Y-87050000D03*
D55*
X239650000Y-93400000D03*
X241150000Y-93400000D03*
D56*
X246800000Y-88550000D03*
X246800000Y-87050000D03*
D55*
X239650000Y-94600000D03*
X241150000Y-94600000D03*
X226500000Y-93400000D03*
X228000000Y-93400000D03*
X220500000Y-93400000D03*
X222000000Y-93400000D03*
D56*
X216900000Y-88450000D03*
X216900000Y-86950000D03*
D55*
X226500000Y-94600000D03*
X228000000Y-94600000D03*
X220500000Y-94600000D03*
X222000000Y-94600000D03*
D56*
X215700000Y-88450000D03*
X215700000Y-86950000D03*
X216900000Y-82850000D03*
X216900000Y-81350000D03*
X216900000Y-72950000D03*
X216900000Y-74450000D03*
X216900000Y-68550000D03*
X216900000Y-70050000D03*
D55*
X220700000Y-62200000D03*
X222200000Y-62200000D03*
D56*
X215700000Y-82850000D03*
X215700000Y-81350000D03*
X215700000Y-72950000D03*
X215700000Y-74450000D03*
X215700000Y-68550000D03*
X215700000Y-70050000D03*
D55*
X220700000Y-61000000D03*
X222200000Y-61000000D03*
D57*
X230600000Y-98000000D03*
X230600000Y-96000000D03*
D55*
X225000000Y-62200000D03*
X223500000Y-62200000D03*
X232850000Y-62200000D03*
X231350000Y-62200000D03*
X235600000Y-62200000D03*
X234100000Y-62200000D03*
X225000000Y-61000000D03*
X223500000Y-61000000D03*
X232850000Y-61000000D03*
X231350000Y-61000000D03*
X235600000Y-61000000D03*
X234100000Y-61000000D03*
D56*
X219400000Y-61150000D03*
X219400000Y-59650000D03*
X226450000Y-96600000D03*
X226450000Y-98100000D03*
X225250000Y-96600000D03*
X225250000Y-98100000D03*
X251300000Y-65850000D03*
X251300000Y-67350000D03*
D55*
X227000000Y-60700000D03*
X228500000Y-60700000D03*
D56*
X230050000Y-62200000D03*
X230050000Y-60700000D03*
X237150000Y-62200000D03*
X237150000Y-60700000D03*
X238350000Y-62200000D03*
X238350000Y-60700000D03*
D61*
X227850000Y-42550000D03*
X226950000Y-42550000D03*
X226150000Y-42550000D03*
X225350000Y-42550000D03*
X224450000Y-42550000D03*
X226550000Y-43350000D03*
X225750000Y-43350000D03*
X227450000Y-43350000D03*
X224850000Y-43350000D03*
D24*
X212850000Y-43950000D03*
X212850000Y-44850000D03*
X212850000Y-45650000D03*
X212850000Y-46450000D03*
X212850000Y-47350000D03*
X213650000Y-45250000D03*
X213650000Y-46050000D03*
X213650000Y-44350000D03*
X213650000Y-46950000D03*
D61*
X241750000Y-41000000D03*
X240850000Y-41000000D03*
X240050000Y-41000000D03*
X239250000Y-41000000D03*
X238350000Y-41000000D03*
X240450000Y-41800000D03*
X239650000Y-41800000D03*
X241350000Y-41800000D03*
X238750000Y-41800000D03*
X243100000Y-32700000D03*
X242200000Y-32700000D03*
X241400000Y-32700000D03*
X240600000Y-32700000D03*
X239700000Y-32700000D03*
X241800000Y-33500000D03*
X241000000Y-33500000D03*
X242700000Y-33500000D03*
X240100000Y-33500000D03*
X248950000Y-41000000D03*
X248050000Y-41000000D03*
X247250000Y-41000000D03*
X246450000Y-41000000D03*
X245550000Y-41000000D03*
X247650000Y-41800000D03*
X246850000Y-41800000D03*
X248550000Y-41800000D03*
X245950000Y-41800000D03*
X251150000Y-32700000D03*
X250250000Y-32700000D03*
X249450000Y-32700000D03*
X248650000Y-32700000D03*
X247750000Y-32700000D03*
X249850000Y-33500000D03*
X249050000Y-33500000D03*
X250750000Y-33500000D03*
X248150000Y-33500000D03*
M02*
