M48
;DRILL file {KiCad 4.0.7} date 04/10/18 15:25:19
;FORMAT={-:-/ absolute / metric / decimal}
FMAT,2
METRIC,TZ
T1C0.200
T2C0.300
T3C0.920
T4C2.300
T5C3.200
%
G90
G05
M71
T1
X202.3Y-61.35
X202.4Y-89.35
X202.9Y-115.35
X202.95Y-88.35
X203.Y-50.05
X203.45Y-67.3
X203.45Y-69.7
X203.45Y-70.5
X203.45Y-71.3
X203.45Y-72.1
X203.45Y-72.9
X203.45Y-73.7
X203.45Y-74.5
X203.45Y-75.3
X203.45Y-81.7
X203.45Y-84.15
X203.45Y-86.5
X203.5Y-68.9
X203.5Y-79.3
X204.05Y-66.85
X204.25Y-49.1
X204.55Y-64.65
X204.7Y-34.2
X204.85Y-111.2
X205.112Y-115.75
X205.5Y-34.2
X205.887Y-116.95
X205.9Y-56.85
X205.9Y-57.4
X205.9Y-58.8
X205.9Y-97.85
X206.65Y-61.8
X207.15Y-53.7
X207.35Y-65.15
X208.Y-55.55
X208.137Y-57.737
X208.137Y-59.462
X208.35Y-66.
X208.45Y-44.45
X208.45Y-45.25
X208.45Y-46.05
X208.45Y-46.85
X208.65Y-72.9
X208.8Y-52.4
X209.1Y-65.7
X209.1Y-72.1
X209.1Y-77.65
X209.2Y-90.2
X209.35Y-97.3
X209.65Y-71.85
X209.65Y-77.2
X209.75Y-65.2
X209.862Y-57.737
X209.862Y-59.462
X210.2Y-71.3
X210.2Y-76.7
X210.25Y-43.65
X210.3Y-80.65
X210.75Y-70.5
X210.75Y-76.25
X211.3Y-69.7
X211.3Y-75.8
X211.35Y-62.
X211.75Y-82.8
X211.85Y-53.7
X211.85Y-68.9
X211.85Y-73.7
X212.05Y-74.75
X212.3Y-73.2
X212.35Y-70.5
X212.6Y-67.4
X212.6Y-69.7
X212.6Y-71.15
X212.6Y-84.1
X212.65Y-68.1
X212.65Y-68.9
X212.65Y-72.1
X212.65Y-73.7
X212.65Y-75.3
X212.65Y-79.3
X212.65Y-81.65
X212.65Y-86.5
X213.2Y-54.2
X213.3Y-114.05
X214.6Y-35.
X214.75Y-51.5
X215.15Y-71.3
X215.5Y-121.8
X215.85Y-121.2
X216.2Y-121.8
X216.25Y-43.1
X216.3Y-87.7
X216.35Y-49.2
X216.55Y-121.2
X216.65Y-93.9
X216.9Y-121.8
X217.1Y-116.35
X217.2Y-99.25
X217.25Y-59.15
X217.25Y-60.
X217.25Y-60.8
X217.25Y-61.6
X217.25Y-121.2
X217.35Y-57.95
X217.6Y-121.8
X217.65Y-83.25
X217.65Y-98.9
X217.7Y-71.05
X217.8Y-57.2
X217.95Y-121.2
X218.1Y-108.6
X218.15Y-56.4
X218.3Y-121.8
X218.6Y-55.6
X218.6Y-66.25
X218.65Y-108.65
X218.65Y-121.2
X219.Y-29.65
X219.Y-63.4
X219.Y-98.15
X219.Y-121.8
X219.15Y-104.5
X219.15Y-107.05
X219.35Y-63.85
X219.35Y-121.2
X219.6Y-107.45
X219.7Y-70.55
X219.7Y-71.55
X219.7Y-72.5
X219.7Y-74.55
X219.7Y-79.55
X219.7Y-81.55
X219.7Y-84.05
X219.7Y-87.55
X219.7Y-88.55
X219.7Y-89.47
X219.7Y-121.8
X219.75Y-68.55
X219.75Y-86.
X219.95Y-70.05
X220.05Y-52.2
X220.05Y-75.05
X220.05Y-87.
X220.05Y-88.05
X220.05Y-106.6
X220.05Y-121.2
X220.1Y-83.6
X220.1Y-112.15
X220.15Y-80.05
X220.25Y-72.55
X220.25Y-74.55
X220.4Y-121.8
X220.5Y-89.85
X220.5Y-104.45
X220.65Y-87.15
X220.7Y-104.95
X220.7Y-107.05
X220.75Y-121.2
X220.95Y-57.5
X221.Y-46.5
X221.Y-64.65
X221.05Y-28.3
X221.1Y-121.8
X221.15Y-72.85
X221.15Y-75.8
X221.15Y-79.8
X221.15Y-86.
X221.2Y-74.05
X221.3Y-104.95
X221.3Y-107.05
X221.5Y-64.45
X221.5Y-76.25
X221.75Y-57.05
X221.85Y-104.95
X221.85Y-107.05
X221.9Y-72.8
X221.9Y-76.7
X222.Y-89.85
X222.15Y-77.2
X222.2Y-64.35
X222.25Y-92.55
X222.3Y-66.75
X222.45Y-49.05
X222.45Y-77.65
X222.5Y-89.6
X222.5Y-107.05
X222.55Y-72.8
X222.55Y-75.
X222.65Y-63.9
X222.65Y-92.1
X222.65Y-97.6
X222.8Y-78.1
X222.9Y-76.55
X222.95Y-78.65
X223.05Y-27.85
X223.05Y-73.85
X223.05Y-82.15
X223.2Y-120.75
X223.25Y-99.25
X223.3Y-92.1
X223.35Y-98.6
X223.35Y-99.8
X223.4Y-107.05
X223.45Y-86.95
X223.5Y-42.45
X223.5Y-54.05
X223.55Y-92.75
X223.7Y-120.05
X223.75Y-103.9
X223.95Y-28.8
X223.95Y-84.05
X224.Y-92.1
X224.2Y-109.1
X224.4Y-56.6
X224.45Y-58.
X224.45Y-84.25
X224.55Y-92.3
X224.9Y-56.5
X224.9Y-59.2
X224.9Y-84.55
X225.Y-92.
X225.15Y-55.8
X225.3Y-120.05
X225.3Y-120.7
X225.35Y-58.9
X225.35Y-60.
X225.4Y-59.45
X225.5Y-92.3
X225.5Y-104.4
X225.7Y-86.05
X225.7Y-89.85
X226.Y-92.
X226.Y-102.
X226.05Y-64.55
X226.05Y-74.05
X226.1Y-62.85
X226.1Y-83.7
X226.15Y-84.55
X226.5Y-75.
X226.5Y-78.65
X226.5Y-92.3
X226.5Y-102.8
X226.55Y-104.85
X226.55Y-116.75
X226.6Y-83.25
X226.6Y-86.05
X226.65Y-120.
X226.75Y-107.85
X227.Y-107.4
X227.Y-114.4
X227.1Y-116.75
X227.2Y-120.
X227.45Y-54.85
X227.45Y-105.
X227.45Y-107.85
X227.45Y-114.85
X227.6Y-75.05
X227.65Y-74.5
X227.65Y-116.75
X227.75Y-66.75
X227.85Y-86.5
X227.85Y-103.4
X228.Y-89.45
X228.Y-91.9
X228.15Y-74.95
X228.2Y-85.1
X228.25Y-83.05
X228.3Y-83.7
X228.45Y-64.75
X228.5Y-66.75
X228.5Y-85.55
X228.5Y-89.85
X228.7Y-51.25
X228.95Y-64.65
X228.95Y-72.8
X229.Y-81.2
X229.Y-89.5
X229.15Y-112.15
X229.5Y-64.6
X229.95Y-72.05
X230.Y-64.35
X230.Y-89.85
X230.5Y-64.65
X230.5Y-71.6
X230.5Y-89.3
X230.6Y-92.
X230.85Y-37.9
X230.95Y-59.7
X230.95Y-76.55
X230.95Y-86.95
X230.95Y-89.
X231.05Y-99.8
X231.25Y-108.2
X231.4Y-59.35
X231.4Y-72.1
X231.5Y-76.45
X231.5Y-92.
X231.5Y-99.35
X231.9Y-63.25
X231.95Y-72.8
X231.95Y-76.
X232.Y-67.05
X232.15Y-81.45
X232.15Y-82.15
X232.2Y-116.9
X232.3Y-116.4
X232.45Y-89.35
X232.5Y-67.4
X232.5Y-104.85
X232.7Y-51.25
X232.7Y-117.35
X233.Y-67.75
X233.Y-105.15
X233.1Y-112.05
X233.1Y-112.6
X233.4Y-111.55
X233.45Y-103.6
X233.5Y-68.1
X233.65Y-57.05
X233.7Y-89.35
X233.7Y-122.
X233.8Y-92.9
X233.85Y-85.5
X234.Y-68.6
X234.05Y-85.
X234.1Y-96.65
X234.15Y-92.45
X234.45Y-97.05
X234.5Y-69.
X234.5Y-89.85
X234.95Y-92.55
X234.95Y-99.7
X234.95Y-122.25
X235.Y-92.
X235.35Y-99.3
X235.4Y-67.05
X235.5Y-37.15
X235.5Y-122.3
X235.65Y-67.55
X235.75Y-55.05
X235.85Y-93.5
X235.9Y-77.85
X236.15Y-98.85
X236.2Y-37.
X236.2Y-46.85
X236.25Y-77.45
X236.25Y-78.8
X236.25Y-94.7
X236.4Y-122.35
X236.5Y-110.2
X236.5Y-112.05
X236.5Y-112.6
X236.6Y-92.15
X236.6Y-96.8
X236.65Y-67.7
X236.8Y-77.1
X236.9Y-89.85
X236.9Y-111.55
X237.05Y-98.85
X237.1Y-66.75
X237.15Y-29.6
X237.15Y-56.9
X237.3Y-122.5
X237.5Y-91.95
X237.55Y-74.95
X237.9Y-115.95
X237.95Y-99.75
X238.Y-89.9
X238.05Y-46.9
X238.05Y-87.6
X238.25Y-27.85
X238.25Y-99.3
X238.35Y-116.2
X238.6Y-46.85
X238.6Y-88.55
X238.6Y-98.85
X238.8Y-115.95
X238.85Y-122.8
X239.05Y-27.85
X239.05Y-88.05
X239.3Y-116.15
X239.3Y-121.6
X239.45Y-98.9
X239.5Y-47.55
X239.5Y-63.75
X239.65Y-102.8
X239.75Y-102.
X239.8Y-115.95
X239.85Y-27.85
X240.Y-64.3
X240.Y-89.85
X240.05Y-37.1
X240.2Y-122.15
X240.3Y-46.85
X240.3Y-115.8
X240.5Y-64.65
X240.5Y-89.35
X240.65Y-27.85
X240.8Y-106.55
X240.8Y-115.95
X240.8Y-122.15
X241.Y-46.8
X241.Y-89.85
X241.3Y-115.8
X241.4Y-27.9
X241.5Y-89.35
X241.8Y-115.95
X241.85Y-74.65
X241.85Y-86.55
X241.85Y-87.1
X242.Y-89.85
X242.05Y-122.15
X242.2Y-27.85
X242.2Y-46.85
X242.2Y-115.5
X242.35Y-84.55
X242.65Y-115.05
X242.65Y-122.8
X242.75Y-75.55
X242.8Y-71.05
X242.8Y-74.05
X242.8Y-76.9
X242.8Y-77.55
X242.8Y-80.55
X242.8Y-82.1
X242.8Y-84.05
X242.8Y-85.05
X242.8Y-87.05
X242.8Y-106.6
X242.9Y-71.55
X243.Y-27.85
X243.1Y-114.75
X243.2Y-46.8
X243.3Y-108.2
X243.55Y-111.1
X243.65Y-121.5
X243.7Y-47.25
X243.8Y-27.85
X243.8Y-106.7
X244.Y-110.6
X244.3Y-107.15
X244.35Y-122.
X244.4Y-122.6
X244.45Y-123.2
X244.6Y-27.85
X244.65Y-47.9
X244.65Y-48.95
X244.7Y-63.3
X244.8Y-48.45
X244.8Y-106.6
X244.85Y-64.65
X244.85Y-80.05
X244.85Y-110.1
X244.85Y-122.25
X244.9Y-70.65
X244.9Y-72.1
X244.9Y-89.4
X244.95Y-67.55
X244.95Y-78.05
X244.95Y-79.05
X244.95Y-82.85
X244.95Y-83.55
X245.05Y-68.05
X245.05Y-73.05
X245.05Y-85.1
X245.1Y-47.55
X245.1Y-74.65
X245.1Y-78.55
X245.1Y-79.55
X245.25Y-68.55
X245.3Y-73.55
X245.4Y-109.6
X245.4Y-122.1
X245.5Y-85.4
X245.55Y-69.05
X245.6Y-63.3
X245.6Y-107.6
X245.65Y-46.85
X245.65Y-109.1
X245.7Y-113.65
X245.7Y-114.45
X245.7Y-115.15
X245.7Y-115.75
X245.75Y-108.1
X246.1Y-27.85
X246.45Y-46.85
X246.9Y-27.85
X247.1Y-63.3
X247.25Y-46.85
X247.55Y-60.45
X247.55Y-64.85
X247.7Y-27.85
X247.95Y-108.6
X248.Y-55.5
X248.Y-59.05
X248.45Y-59.4
X248.5Y-27.85
X248.5Y-37.1
X248.85Y-59.75
X249.2Y-27.9
X249.3Y-71.2
X249.3Y-73.55
X249.3Y-106.7
X249.4Y-50.2
X249.4Y-51.35
X249.45Y-54.1
X249.65Y-73.05
X249.75Y-106.35
X249.85Y-27.85
X249.85Y-71.25
X249.9Y-55.8
X249.9Y-56.7
X250.2Y-88.9
X250.2Y-99.55
X250.2Y-100.7
X250.35Y-64.85
X250.45Y-46.9
X250.6Y-64.2
X250.65Y-27.85
X251.15Y-70.05
X251.3Y-46.85
X251.3Y-86.25
X251.35Y-64.8
X251.45Y-27.85
X251.7Y-70.3
X251.8Y-102.1
X252.Y-36.95
X252.6Y-92.
X252.75Y-69.05
X252.9Y-41.55
X252.9Y-84.9
X253.2Y-68.55
X253.4Y-41.85
X253.4Y-82.5
X253.4Y-85.2
X253.9Y-84.75
X253.95Y-75.65
X254.25Y-113.9
X254.35Y-68.05
X254.45Y-42.35
X254.45Y-75.85
X254.8Y-67.55
X254.8Y-76.25
X255.15Y-87.4
T2
X197.05Y-28.
X197.05Y-29.
X197.05Y-30.
X197.05Y-31.
X197.05Y-32.
X197.05Y-33.
X197.05Y-34.
X197.05Y-35.
X197.05Y-36.
X197.05Y-37.
X197.05Y-38.
X197.05Y-39.
X197.05Y-40.
X197.05Y-41.
X197.05Y-42.
X197.05Y-43.
X197.05Y-44.
X197.05Y-45.
X197.05Y-46.
X197.05Y-47.
X197.05Y-48.
X197.05Y-49.
X197.05Y-50.
X197.05Y-51.
X197.05Y-52.
X197.05Y-53.
X197.05Y-54.
X197.05Y-55.
X197.05Y-56.
X197.05Y-57.
X197.05Y-58.
X197.05Y-59.
X197.05Y-60.
X197.05Y-61.
X197.05Y-62.
X197.05Y-63.
X197.05Y-64.
X197.05Y-65.
X197.05Y-66.
X197.05Y-67.
X197.05Y-68.
X197.05Y-69.
X197.05Y-70.
X197.05Y-71.
X197.05Y-72.
X197.05Y-73.
X197.05Y-74.
X197.05Y-75.
X197.05Y-76.
X197.05Y-77.
X197.05Y-78.
X197.05Y-79.
X197.05Y-80.
X197.05Y-81.
X197.05Y-82.
X197.05Y-83.
X197.05Y-84.
X197.05Y-85.
X197.05Y-86.
X197.05Y-87.
X197.05Y-88.
X197.05Y-89.
X197.05Y-90.
X197.05Y-91.
X197.05Y-92.
X197.05Y-93.
X197.05Y-94.
X197.05Y-95.
X197.05Y-96.
X197.05Y-97.
X197.05Y-98.
X197.05Y-99.
X197.05Y-100.
X197.05Y-101.
X197.05Y-102.
X197.05Y-103.
X197.05Y-104.
X197.05Y-105.
X197.05Y-106.
X197.05Y-107.
X197.05Y-108.
X197.05Y-109.
X197.05Y-110.
X197.05Y-111.
X197.05Y-112.
X197.05Y-113.
X197.05Y-114.
X197.05Y-115.
X197.05Y-116.
X197.05Y-117.
X197.05Y-118.
X197.05Y-119.
X197.05Y-120.
X197.05Y-121.
X197.05Y-122.
X197.5Y-122.4
X198.Y-27.25
X198.5Y-122.4
X198.95Y-57.7
X198.95Y-58.25
X198.95Y-58.8
X199.Y-27.25
X199.4Y-81.15
X199.4Y-86.
X199.5Y-122.4
X199.75Y-62.9
X199.75Y-63.45
X199.75Y-64.
X199.975Y-116.675
X200.Y-27.25
X200.1Y-61.4
X200.45Y-53.1
X200.45Y-53.65
X200.45Y-54.2
X200.5Y-122.4
X200.55Y-116.65
X200.65Y-94.1
X201.Y-27.25
X201.Y-90.
X201.1Y-119.85
X201.15Y-116.65
X201.45Y-89.4
X201.45Y-90.45
X201.5Y-122.4
X201.65Y-115.05
X201.8Y-45.3
X201.85Y-89.8
X201.9Y-90.9
X202.Y-27.25
X202.Y-88.3
X202.05Y-89.
X202.35Y-57.3
X202.35Y-90.25
X202.45Y-119.85
X202.5Y-50.25
X202.5Y-53.85
X202.5Y-58.7
X202.5Y-122.4
X202.55Y-55.
X202.7Y-56.3
X202.7Y-57.7
X203.Y-27.25
X203.05Y-46.4
X203.1Y-51.1
X203.45Y-87.3
X203.5Y-122.4
X203.55Y-45.9
X203.6Y-66.1
X203.6Y-118.9
X203.7Y-85.7
X203.75Y-80.8
X203.8Y-51.25
X203.8Y-76.5
X204.Y-27.25
X204.05Y-45.4
X204.15Y-93.85
X204.25Y-48.55
X204.5Y-122.4
X204.85Y-110.1
X204.85Y-110.65
X205.Y-27.25
X205.1Y-77.
X205.5Y-77.4
X205.5Y-122.4
X205.6Y-94.5
X205.95Y-76.15
X206.Y-27.25
X206.35Y-76.55
X206.5Y-122.4
X207.Y-27.25
X207.3Y-114.75
X207.45Y-118.05
X207.5Y-122.4
X207.6Y-118.8
X207.85Y-90.2
X207.85Y-98.55
X208.Y-27.25
X208.5Y-122.4
X208.55Y-90.2
X208.9Y-28.85
X209.Y-27.25
X209.5Y-122.4
X209.6Y-87.6
X209.6Y-89.65
X210.Y-27.25
X210.Y-90.9
X210.05Y-95.75
X210.3Y-108.75
X210.5Y-122.4
X210.6Y-95.75
X210.9Y-87.6
X210.9Y-90.8
X211.Y-27.25
X211.15Y-95.75
X211.15Y-111.75
X211.5Y-122.4
X212.Y-27.25
X212.1Y-83.45
X212.15Y-91.6
X212.45Y-78.65
X212.5Y-122.4
X212.6Y-92.05
X213.Y-27.25
X213.Y-92.45
X213.05Y-97.9
X213.3Y-94.5
X213.5Y-122.4
X213.65Y-64.15
X213.75Y-51.75
X214.Y-27.25
X214.3Y-51.75
X214.4Y-30.8
X214.5Y-122.4
X214.65Y-98.4
X214.8Y-121.55
X215.Y-27.25
X215.05Y-98.8
X215.5Y-122.4
X215.7Y-63.8
X215.7Y-89.4
X215.85Y-97.
X216.Y-27.25
X216.Y-95.15
X216.35Y-91.5
X216.45Y-52.05
X216.5Y-122.4
X216.65Y-120.05
X216.7Y-54.3
X217.Y-27.25
X217.2Y-120.05
X217.35Y-41.4
X217.4Y-39.4
X217.5Y-122.4
X217.75Y-120.05
X218.Y-27.25
X218.35Y-33.8
X218.35Y-63.9
X218.5Y-122.4
X219.Y-27.25
X219.Y-33.15
X219.1Y-33.85
X219.1Y-39.9
X219.3Y-54.65
X219.3Y-55.2
X219.5Y-122.4
X219.6Y-111.65
X220.Y-27.25
X220.5Y-122.4
X220.7Y-95.55
X221.Y-27.25
X221.25Y-96.1
X222.Y-27.25
X222.05Y-58.45
X223.Y-27.25
X224.Y-27.25
X224.7Y-38.3
X224.95Y-95.65
X225.Y-27.25
X225.95Y-41.5
X226.Y-27.25
X226.15Y-61.3
X227.Y-27.25
X228.Y-27.25
X228.35Y-117.55
X228.35Y-118.1
X228.5Y-59.55
X228.55Y-95.8
X228.6Y-112.15
X229.Y-27.25
X229.05Y-113.65
X229.25Y-51.25
X229.45Y-116.429
X229.8Y-51.25
X230.Y-27.25
X230.05Y-59.6
X230.2Y-114.9
X230.6Y-115.3
X231.Y-27.25
X231.1Y-38.7
X231.25Y-109.6
X231.5Y-32.65
X231.9Y-30.4
X232.Y-27.25
X232.45Y-30.4
X232.85Y-59.65
X233.Y-27.25
X233.1Y-30.35
X233.7Y-59.6
X233.85Y-38.3
X234.Y-27.25
X234.15Y-30.3
X235.Y-27.25
X235.Y-30.35
X236.Y-27.25
X237.Y-27.25
X237.3Y-30.3
X238.Y-27.25
X238.35Y-94.45
X239.Y-27.25
X239.65Y-95.65
X240.Y-27.25
X240.75Y-102.
X241.Y-27.25
X242.Y-27.25
X242.4Y-113.
X242.85Y-112.55
X243.Y-27.25
X244.Y-27.25
X245.Y-27.25
X245.55Y-102.25
X245.8Y-119.65
X246.Y-27.25
X246.45Y-51.5
X247.Y-27.25
X247.Y-122.5
X247.3Y-74.2
X247.3Y-89.6
X247.4Y-115.75
X247.8Y-81.55
X247.95Y-116.4
X248.Y-27.25
X248.Y-122.5
X249.Y-27.25
X249.Y-122.5
X250.Y-27.25
X250.Y-122.5
X250.95Y-119.05
X251.Y-27.25
X251.Y-122.5
X251.1Y-107.2
X252.Y-27.25
X252.Y-122.5
X252.1Y-117.95
X252.8Y-96.9
X252.8Y-98.6
X252.8Y-106.75
X253.Y-27.25
X253.Y-122.5
X253.35Y-80.8
X254.Y-27.25
X254.Y-122.5
X254.3Y-94.25
X254.3Y-94.8
X255.Y-27.25
X255.Y-122.5
X255.75Y-28.
X255.75Y-29.
X255.75Y-30.
X255.75Y-31.
X255.75Y-32.
X255.75Y-33.
X255.75Y-34.
X255.75Y-35.
X255.75Y-36.
X255.75Y-37.
X255.75Y-38.
X255.75Y-39.
X255.75Y-40.
X255.75Y-41.
X255.75Y-42.
X255.75Y-43.
X255.75Y-44.
X255.75Y-45.
X255.75Y-46.
X255.75Y-47.
X255.75Y-48.
X255.75Y-49.
X255.75Y-50.
X255.75Y-51.
X255.75Y-52.
X255.75Y-53.
X255.75Y-54.
X255.75Y-55.
X255.75Y-56.
X255.75Y-57.
X255.75Y-58.
X255.75Y-59.
X255.75Y-60.
X255.75Y-61.
X255.75Y-62.
X255.75Y-63.
X255.75Y-64.
X255.75Y-65.
X255.75Y-66.
X255.75Y-67.
X255.75Y-68.
X255.75Y-69.
X255.75Y-70.
X255.75Y-71.
X255.75Y-72.
X255.75Y-73.
X255.75Y-74.
X255.75Y-75.
X255.75Y-76.
X255.75Y-77.
X255.75Y-78.
X255.75Y-79.
X255.75Y-80.
X255.75Y-81.
X255.75Y-82.
X255.75Y-83.
X255.75Y-84.
X255.75Y-85.
X255.75Y-86.
X255.75Y-87.
X255.75Y-88.
X255.75Y-89.
X255.75Y-90.
X255.75Y-91.
X255.75Y-92.
X255.75Y-93.
X255.75Y-94.
X255.75Y-95.
X255.75Y-96.
X255.75Y-97.
X255.75Y-98.
X255.75Y-99.
X255.75Y-100.
X255.75Y-101.
X255.75Y-102.
X255.75Y-103.
X255.75Y-104.
X255.75Y-105.
X255.75Y-106.
X255.75Y-107.
X255.75Y-108.
X255.75Y-109.
X255.75Y-110.
X255.75Y-111.
X255.75Y-112.
X255.75Y-113.
X255.75Y-114.
X255.75Y-115.
X255.75Y-116.
X255.75Y-117.
X255.75Y-118.
X255.75Y-119.
X255.75Y-120.
X255.75Y-121.
X255.75Y-122.
T3
X204.85Y-39.46
X204.85Y-41.46
X207.35Y-39.46
X207.35Y-41.46
T4
X200.08Y-36.75
X212.12Y-36.75
T5
X229.7Y-46.4
T0
M30
